<svg width="32" height="32" viewBox="0 0 32 32" fill="none" xmlns="http://www.w3.org/2000/svg">
    <path fill-rule="evenodd" clip-rule="evenodd"
        d="M30.6257 19.2302C30.4566 19.4214 30.2347 19.6008 29.9598 19.761L18.5253 26.4256C17.1027 27.2541 14.8038 27.2541 13.3907 26.4256L2.03091 19.7621C1.76368 19.6052 1.54722 19.4299 1.38151 19.2432C0.67491 20.0417 0.890263 21.0454 2.03037 21.7139L13.3913 28.3785C14.8043 29.207 17.1032 29.207 18.5248 28.3785L29.9593 21.7139C31.1129 21.0412 31.336 20.0307 30.6257 19.2302Z"
        fill="url(#paint0_linear_30_1028)" />
    <g style="mix-blend-mode:color-burn">
        <path fill-rule="evenodd" clip-rule="evenodd"
            d="M30.6257 19.2302C30.4566 19.4214 30.2347 19.6008 29.9598 19.761L18.5253 26.4256C17.1027 27.2541 14.8038 27.2541 13.3907 26.4256L2.03091 19.7621C1.76368 19.6052 1.54722 19.4299 1.38151 19.2432C0.67491 20.0417 0.890263 21.0454 2.03037 21.7139L13.3913 28.3785C14.8043 29.207 17.1032 29.207 18.5248 28.3785L29.9593 21.7139C31.1129 21.0412 31.336 20.0307 30.6257 19.2302Z"
            fill="url(#paint1_linear_30_1028)" />
    </g>
    <path fill-rule="evenodd" clip-rule="evenodd"
        d="M30.6258 15.5175C30.4567 15.7087 30.2347 15.8882 29.9598 16.0484L18.5253 22.713C17.1027 23.5415 14.8038 23.5415 13.3907 22.713L2.0309 16.0495C1.76363 15.8926 1.54714 15.7173 1.38141 15.5305C0.674929 16.329 0.890316 17.3327 2.03037 18.0011L13.3913 24.6657C14.8043 25.4942 17.1032 25.4942 18.5248 24.6657L29.9593 18.0011C31.1128 17.3284 31.336 16.3179 30.6258 15.5175Z"
        fill="url(#paint2_linear_30_1028)" />
    <g style="mix-blend-mode:color-burn">
        <path fill-rule="evenodd" clip-rule="evenodd"
            d="M30.6258 15.5175C30.4567 15.7087 30.2347 15.8882 29.9598 16.0484L18.5253 22.713C17.1027 23.5415 14.8038 23.5415 13.3907 22.713L2.0309 16.0495C1.76365 15.8926 1.54717 15.7173 1.38145 15.5305C0.674919 16.3291 0.890291 17.3327 2.03037 18.0012L13.3913 24.6658C14.8043 25.4943 17.1032 25.4943 18.5248 24.6658L29.9593 18.0012C31.1129 17.3285 31.336 16.318 30.6258 15.5175Z"
            fill="url(#paint3_linear_30_1028)" />
    </g>
    <path
        d="M20.3706 15.3455C20.16 15.466 19.9427 15.5739 19.7196 15.6687C19.6727 15.6943 19.6202 15.7078 19.5669 15.7078C19.5136 15.7078 19.4612 15.6943 19.4143 15.6687C18.1279 15.0761 16.8383 14.4865 15.5455 13.8996C15.1304 13.7133 14.7195 13.5226 14.3107 13.3319C13.4633 12.9386 12.6159 12.5454 11.7301 12.1812C10.8414 11.8052 9.87203 11.6657 8.91469 11.7762C8.64719 11.8051 8.38308 11.8599 8.12599 11.9399C8.07834 11.9581 8.02748 11.9662 7.97661 11.9636C7.92573 11.961 7.87594 11.9478 7.83036 11.9248L7.67454 11.8527C7.46789 11.7511 7.25381 11.6657 7.03419 11.5973C6.44506 11.4292 5.86021 11.481 5.43331 11.7331C5.37266 11.7684 5.31453 11.808 5.25934 11.8516C4.88581 12.1489 4.95304 12.5476 5.4301 12.8481C5.59233 12.9559 5.76202 13.0485 5.93598 13.1444C6.01496 13.1886 6.04271 13.2263 5.99361 13.2899C5.44718 14.0623 5.79831 14.7368 6.74069 15.2991C8.53012 16.3636 10.3284 17.4223 12.1357 18.4752C13.1026 19.0419 14.0692 19.609 15.0354 20.1764C15.0726 20.2051 15.1182 20.2207 15.1651 20.2207C15.2119 20.2207 15.2575 20.2051 15.2947 20.1764L15.315 20.1645C15.5701 20.0137 15.8241 19.8629 16.0813 19.7142C16.3104 19.5799 16.542 19.447 16.7761 19.3156L16.7878 19.308C16.9105 19.2369 16.8881 19.2003 16.7718 19.1313C14.9689 18.0791 13.1709 17.0254 11.3779 15.9703L10.4067 15.4004C9.19288 14.6872 7.97622 13.9751 6.7567 13.264C6.60835 13.1778 6.61582 13.1218 6.72255 13.0334C6.91884 12.8712 7.12882 12.7267 7.35009 12.6014C7.48243 12.5239 7.62117 12.4506 7.76632 12.3859C7.81443 12.3566 7.86935 12.3405 7.92555 12.3394C7.98175 12.3383 8.03726 12.3521 8.0865 12.3795C9.2064 12.8866 10.3284 13.3915 11.4526 13.8943H11.459L12.4099 14.3252C12.7483 14.4771 13.0855 14.6312 13.4228 14.7842C14.2275 15.1505 15.0322 15.5168 15.8529 15.8691C16.9741 16.3605 18.2311 16.4368 19.4026 16.0845C19.4438 16.0702 19.4876 16.0649 19.531 16.069C19.5745 16.0731 19.6165 16.0865 19.6545 16.1082C19.853 16.202 20.0557 16.2936 20.2574 16.3851L20.4794 16.4853C20.7434 16.6027 21.0305 16.6575 21.3187 16.6455C21.607 16.6336 21.8886 16.5552 22.1422 16.4164C22.6566 16.1169 22.7271 15.7215 22.3194 15.409C22.1059 15.242 21.8839 15.0772 21.6598 14.9145C21.6043 14.8736 21.584 14.8423 21.6299 14.7906C22.3418 13.9848 22.0173 13.2575 21.1315 12.5788C19.4239 11.2759 17.7163 9.97408 16.0087 8.67334L15.8273 8.53436C15.6512 8.39969 15.4751 8.26502 15.2937 8.13251C15.2157 8.07648 15.2286 8.04201 15.299 7.98922C15.4308 7.89287 15.5676 7.80368 15.7088 7.72203C15.9529 7.58065 16.2068 7.4575 16.4687 7.35357C16.5305 7.32027 16.6002 7.30467 16.6702 7.30847C16.7402 7.31227 16.8078 7.33532 16.8657 7.37512C18.1727 8.14867 19.4851 8.92042 20.8028 9.69038L21.8701 10.3131L22.9373 10.9401C24.2443 11.7115 25.5496 12.4808 26.8531 13.2478C26.8998 13.2872 26.9582 13.3095 27.019 13.3113C27.0797 13.313 27.1393 13.2941 27.1882 13.2575L27.201 13.2478C27.4244 13.1121 27.65 12.9781 27.8776 12.846C28.1359 12.6952 28.3974 12.5465 28.6589 12.3967C28.7656 12.3375 28.7656 12.3041 28.6589 12.2427C27.7467 11.7097 26.8339 11.175 25.9203 10.6385C24.0633 9.54529 22.1995 8.45536 20.329 7.36865C19.378 6.8192 18.2254 6.6145 16.9137 6.93017C16.8724 6.94397 16.8285 6.94824 16.7852 6.94264C16.742 6.93705 16.7006 6.92174 16.664 6.89785C16.4762 6.78472 16.2894 6.66944 16.0856 6.56494C15.83 6.44043 15.5516 6.37069 15.268 6.36012C14.9844 6.34955 14.7017 6.39838 14.4377 6.50353C14.3715 6.5337 14.3107 6.56386 14.2552 6.59618C13.8283 6.84398 13.7269 7.16934 13.9777 7.49471C14.1034 7.63991 14.2469 7.76842 14.4046 7.87717C14.4644 7.92242 14.5231 7.96767 14.5797 8.01292C14.6362 8.05817 14.6693 8.09157 14.6181 8.14867C13.9959 8.85003 14.2051 9.51908 14.8604 10.1655C15.1801 10.4623 15.52 10.7362 15.8774 10.9854C16.0076 11.0813 16.1379 11.1761 16.2659 11.273C17.8142 12.4459 19.3677 13.6174 20.9266 14.7874C21.0173 14.8553 21.0216 14.8951 20.933 14.9662C20.7536 15.1049 20.5654 15.2316 20.3695 15.3455M2.04904 11.286L13.4836 4.62137C14.9062 3.79288 17.2051 3.79288 18.6181 4.62137L29.9759 11.286C31.3889 12.1155 31.3825 13.459 29.9598 14.2886L18.5253 20.9532C17.1026 21.7817 14.8038 21.7817 13.3907 20.9532L2.0309 14.2897C0.617861 13.4601 0.624264 12.1155 2.04691 11.287"
        fill="url(#paint4_linear_30_1028)" />
    <g style="mix-blend-mode:color-burn">
        <path
            d="M20.3706 15.3455C20.16 15.466 19.9427 15.5739 19.7196 15.6687C19.6727 15.6943 19.6202 15.7078 19.5669 15.7078C19.5136 15.7078 19.4612 15.6943 19.4143 15.6687C18.1279 15.0761 16.8383 14.4865 15.5455 13.8996C15.1304 13.7133 14.7195 13.5226 14.3107 13.3319C13.4633 12.9386 12.6159 12.5454 11.7301 12.1812C10.8414 11.8052 9.87203 11.6657 8.91469 11.7762C8.64719 11.8051 8.38308 11.8599 8.12599 11.9399C8.07834 11.9581 8.02748 11.9662 7.97661 11.9636C7.92573 11.961 7.87594 11.9478 7.83036 11.9248L7.67454 11.8527C7.46789 11.7511 7.25381 11.6657 7.03419 11.5973C6.44506 11.4292 5.86021 11.481 5.43331 11.7331C5.37266 11.7684 5.31453 11.808 5.25934 11.8516C4.88581 12.1489 4.95304 12.5476 5.4301 12.8481C5.59233 12.9559 5.76202 13.0485 5.93598 13.1444C6.01496 13.1886 6.04271 13.2263 5.99361 13.2899C5.44718 14.0623 5.79831 14.7368 6.74069 15.2991C8.53012 16.3636 10.3284 17.4223 12.1357 18.4752C13.1026 19.0419 14.0692 19.609 15.0354 20.1764C15.0726 20.2051 15.1182 20.2207 15.1651 20.2207C15.2119 20.2207 15.2575 20.2051 15.2947 20.1764L15.315 20.1645C15.5701 20.0137 15.8241 19.8629 16.0813 19.7142C16.3104 19.5799 16.542 19.447 16.7761 19.3156L16.7878 19.308C16.9105 19.2369 16.8881 19.2003 16.7718 19.1313C14.9689 18.0791 13.1709 17.0254 11.3779 15.9703L10.4067 15.4004C9.19288 14.6872 7.97622 13.9751 6.7567 13.264C6.60835 13.1778 6.61582 13.1218 6.72255 13.0334C6.91884 12.8712 7.12882 12.7267 7.35009 12.6014C7.48243 12.5239 7.62117 12.4506 7.76632 12.3859C7.81443 12.3566 7.86935 12.3405 7.92555 12.3394C7.98175 12.3383 8.03726 12.3521 8.0865 12.3795C9.2064 12.8866 10.3284 13.3915 11.4526 13.8943H11.459L12.4099 14.3252C12.7483 14.4771 13.0855 14.6312 13.4228 14.7842C14.2275 15.1505 15.0322 15.5168 15.8529 15.8691C16.9741 16.3605 18.2311 16.4368 19.4026 16.0845C19.4438 16.0702 19.4876 16.0649 19.531 16.069C19.5745 16.0731 19.6165 16.0865 19.6545 16.1082C19.853 16.202 20.0557 16.2936 20.2574 16.3851L20.4794 16.4853C20.7434 16.6027 21.0305 16.6575 21.3187 16.6455C21.607 16.6336 21.8886 16.5552 22.1422 16.4164C22.6566 16.1169 22.7271 15.7215 22.3194 15.409C22.1059 15.242 21.8839 15.0772 21.6598 14.9145C21.6043 14.8736 21.584 14.8423 21.6299 14.7906C22.3418 13.9848 22.0173 13.2575 21.1315 12.5788C19.4239 11.2759 17.7163 9.97408 16.0087 8.67334L15.8273 8.53436C15.6512 8.39969 15.4751 8.26502 15.2937 8.13251C15.2157 8.07648 15.2286 8.04201 15.299 7.98922C15.4308 7.89287 15.5676 7.80368 15.7088 7.72203C15.9529 7.58065 16.2068 7.4575 16.4687 7.35357C16.5305 7.32027 16.6002 7.30467 16.6702 7.30847C16.7402 7.31227 16.8078 7.33532 16.8657 7.37512C18.1727 8.14867 19.4851 8.92042 20.8028 9.69038L21.8701 10.3131L22.9373 10.9401C24.2443 11.7115 25.5496 12.4808 26.8531 13.2478C26.8998 13.2872 26.9582 13.3095 27.019 13.3113C27.0797 13.313 27.1393 13.2941 27.1882 13.2575L27.201 13.2478C27.4244 13.1121 27.65 12.9781 27.8776 12.846C28.1359 12.6952 28.3974 12.5465 28.6589 12.3967C28.7656 12.3375 28.7656 12.3041 28.6589 12.2427C27.7467 11.7097 26.8339 11.175 25.9203 10.6385C24.0633 9.54529 22.1995 8.45536 20.329 7.36865C19.378 6.8192 18.2254 6.6145 16.9137 6.93017C16.8724 6.94397 16.8285 6.94824 16.7852 6.94264C16.742 6.93705 16.7006 6.92174 16.664 6.89785C16.4762 6.78472 16.2894 6.66944 16.0856 6.56494C15.83 6.44043 15.5516 6.37069 15.268 6.36012C14.9844 6.34955 14.7017 6.39838 14.4377 6.50353C14.3715 6.5337 14.3107 6.56386 14.2552 6.59618C13.8283 6.84398 13.7269 7.16934 13.9777 7.49471C14.1034 7.63991 14.2469 7.76842 14.4046 7.87717C14.4644 7.92242 14.5231 7.96767 14.5797 8.01292C14.6362 8.05817 14.6693 8.09157 14.6181 8.14867C13.9959 8.85003 14.2051 9.51908 14.8604 10.1655C15.1801 10.4623 15.52 10.7362 15.8774 10.9854C16.0076 11.0813 16.1379 11.1761 16.2659 11.273C17.8142 12.4459 19.3677 13.6174 20.9266 14.7874C21.0173 14.8553 21.0216 14.8951 20.933 14.9662C20.7536 15.1049 20.5654 15.2316 20.3695 15.3455M2.04904 11.286L13.4836 4.62137C14.9062 3.79288 17.2051 3.79288 18.6181 4.62137L29.9759 11.286C31.3889 12.1155 31.3825 13.459 29.9598 14.2886L18.5253 20.9532C17.1026 21.7817 14.8038 21.7817 13.3907 20.9532L2.0309 14.2897C0.617861 13.4601 0.624264 12.1155 2.04691 11.287"
            fill="url(#paint5_linear_30_1028)" />
    </g>
    <path fill-rule="evenodd" clip-rule="evenodd"
        d="M21.9944 14.1324C22.1165 13.5819 21.7697 13.0677 21.1315 12.5788C19.4239 11.2759 17.7163 9.97408 16.0087 8.67334L15.8273 8.53436C15.6512 8.39969 15.4751 8.26502 15.2937 8.13251C15.2157 8.07648 15.2286 8.04201 15.299 7.98922C15.4308 7.89287 15.5676 7.80368 15.7088 7.72203C15.9529 7.58065 16.2068 7.4575 16.4687 7.35357C16.5305 7.32027 16.6002 7.30467 16.6702 7.30847C16.7402 7.31227 16.8078 7.33532 16.8657 7.37512C18.1727 8.14867 19.4851 8.92042 20.8028 9.69038L21.8701 10.3131L22.9373 10.9401C24.2443 11.7115 25.5496 12.4808 26.8531 13.2478C26.8998 13.2872 26.9582 13.3095 27.019 13.3113C27.0797 13.313 27.1393 13.2941 27.1882 13.2575L27.201 13.2478C27.4244 13.1121 27.65 12.9781 27.8776 12.846C28.0809 12.7273 28.2862 12.6099 28.492 12.4922C28.5476 12.4604 28.6032 12.4286 28.6589 12.3967C28.7656 12.3375 28.7656 12.3041 28.6589 12.2427C27.7467 11.7097 26.8339 11.175 25.9203 10.6385C24.0633 9.54529 22.1995 8.45536 20.329 7.36865C19.378 6.8192 18.2254 6.6145 16.9137 6.93017C16.8724 6.94397 16.8285 6.94824 16.7852 6.94264C16.742 6.93705 16.7006 6.92174 16.664 6.89785C16.642 6.88459 16.62 6.8713 16.598 6.858C16.4322 6.75784 16.2655 6.65719 16.0856 6.56494C15.83 6.44043 15.5516 6.37069 15.268 6.36012C14.9844 6.34955 14.7017 6.39838 14.4377 6.50353C14.3715 6.5337 14.3107 6.56386 14.2552 6.59618C13.8283 6.84398 13.7269 7.16934 13.9777 7.49471C14.1034 7.63991 14.2469 7.76842 14.4046 7.87717C14.4644 7.92242 14.5231 7.96767 14.5797 8.01292C14.6362 8.05817 14.6693 8.09157 14.6181 8.14867C13.9959 8.85003 14.2051 9.51908 14.8604 10.1655C15.1801 10.4623 15.52 10.7362 15.8774 10.9854C15.9067 11.0069 15.9359 11.0284 15.9651 11.0498C16.066 11.1239 16.1666 11.1978 16.2659 11.273C16.4002 11.3748 16.5345 11.4765 16.6689 11.5782C15.5478 11.4669 14.3521 11.6625 13.4833 12.165L12.7217 12.6058C12.3953 12.4611 12.0655 12.3191 11.7301 12.1812C10.8414 11.8052 9.87203 11.6657 8.91469 11.7762C8.64719 11.8051 8.38308 11.8599 8.12599 11.9399C8.07834 11.9581 8.02748 11.9662 7.97661 11.9636C7.92573 11.961 7.87594 11.9478 7.83036 11.9248L7.67454 11.8527C7.46789 11.7511 7.25381 11.6657 7.03419 11.5973C6.44506 11.4292 5.86021 11.481 5.43331 11.7331C5.37266 11.7684 5.31453 11.808 5.25934 11.8516C4.88581 12.1489 4.95304 12.5476 5.4301 12.8481C5.58521 12.9511 5.74714 13.0404 5.91311 13.1318L5.93598 13.1444C6.01496 13.1886 6.04271 13.2263 5.99361 13.2899C5.44718 14.0623 5.79831 14.7368 6.74069 15.2991C6.9589 15.429 7.17725 15.5587 7.39573 15.6883L5.89552 16.5566L2.0309 14.2897C0.617861 13.4601 0.624264 12.1155 2.04691 11.287L2.04904 11.286L13.4836 4.62137C14.9062 3.79288 17.2051 3.79288 18.6181 4.62137L29.9759 11.286C31.3889 12.1155 31.3825 13.459 29.9598 14.2886L26.1116 16.5315L21.9944 14.1324ZM10.9129 13.6526L9.15858 14.668C8.35918 14.1995 7.55856 13.7315 6.7567 13.264C6.60835 13.1778 6.61582 13.1218 6.72255 13.0334C6.91884 12.8712 7.12882 12.7267 7.35009 12.6014C7.48243 12.5239 7.62117 12.4506 7.76632 12.3859C7.81443 12.3566 7.86935 12.3405 7.92555 12.3394C7.98175 12.3383 8.03726 12.3521 8.0865 12.3795C9.02713 12.8054 9.96927 13.2298 10.9129 13.6526Z"
        fill="url(#paint6_linear_30_1028)" />
    <path
        d="M5.42905 11.7394C5.85595 11.4873 6.44508 11.4356 7.02993 11.6037C7.24955 11.6721 7.46363 11.7574 7.67028 11.859L7.8261 11.9312C7.87168 11.9541 7.92148 11.9673 7.97235 11.9699C8.02323 11.9725 8.07409 11.9645 8.12173 11.9463C8.37882 11.8663 8.64294 11.8114 8.91043 11.7825C9.86778 11.6721 10.8372 11.8116 11.7258 12.1876C12.6117 12.5517 13.4591 12.9417 14.3065 13.3382C14.7152 13.5289 15.1261 13.7196 15.5413 13.906C16.8334 14.4928 18.123 15.0825 19.4101 15.675C19.4569 15.7007 19.5094 15.7141 19.5627 15.7141C19.616 15.7141 19.6684 15.7007 19.7153 15.675C19.9384 15.5803 20.1558 15.4723 20.3663 15.3518C20.5622 15.238 20.7504 15.1113 20.9298 14.9726C21.0184 14.9036 21.0141 14.8648 20.9234 14.7937C19.366 13.6194 17.8135 12.4454 16.2659 11.2718C16.1379 11.1749 16.0077 11.0801 15.8775 10.9842C15.5189 10.7355 15.178 10.4619 14.8572 10.1654C14.2019 9.51895 13.9927 8.84991 14.6149 8.14854C14.6661 8.09144 14.6341 8.05804 14.5765 8.01279C14.5188 7.96754 14.4612 7.92229 14.4014 7.87705C14.2437 7.7683 14.1002 7.63978 13.9745 7.49458C13.7237 7.17137 13.8273 6.84816 14.252 6.59606C14.3075 6.56374 14.3684 6.53357 14.4345 6.5034C14.6985 6.39825 14.9812 6.34943 15.2648 6.35999C15.5484 6.37056 15.8268 6.4403 16.0824 6.56481C16.2862 6.67255 16.473 6.78029 16.6608 6.89772C16.6974 6.92162 16.7388 6.93692 16.7821 6.94252C16.8253 6.94811 16.8692 6.94385 16.9106 6.93004C18.2222 6.61545 19.3748 6.8223 20.3258 7.36853C22.2056 8.45236 24.0704 9.54229 25.9203 10.6383C26.8346 11.1741 27.7482 11.7096 28.661 12.2447C28.7677 12.3061 28.7603 12.3395 28.661 12.3988C28.3995 12.5485 28.1381 12.6972 27.8798 12.848C27.65 12.9809 27.4237 13.1141 27.201 13.2477L27.1882 13.2553C27.1396 13.2921 27.0801 13.3114 27.0194 13.31C26.9586 13.3087 26.9 13.2867 26.8531 13.2477C25.551 12.4799 24.2461 11.7132 22.9384 10.9475L21.8711 10.3205L20.8039 9.69779C19.489 8.92784 18.1767 8.15608 16.8668 7.38253C16.8089 7.34273 16.7412 7.31969 16.6713 7.31589C16.6013 7.31209 16.5316 7.32769 16.4698 7.36099C16.2079 7.46492 15.9539 7.58807 15.7099 7.72945C15.5687 7.81109 15.4319 7.90028 15.3001 7.99663C15.2296 8.04942 15.2168 8.0839 15.2947 8.13992C15.4751 8.27244 15.6512 8.40711 15.8284 8.54178L16.0098 8.68076C17.7174 9.9815 19.425 11.2833 21.1326 12.5862C22.0184 13.265 22.3429 13.9868 21.631 14.798C21.5851 14.8498 21.6054 14.881 21.6609 14.9219C21.885 15.0846 22.1038 15.2452 22.3205 15.4165C22.7282 15.7289 22.6577 16.1243 22.1433 16.4238C21.8897 16.5626 21.608 16.641 21.3198 16.6529C21.0316 16.6649 20.7445 16.6101 20.4805 16.4927L20.2585 16.3925C20.0568 16.301 19.854 16.2094 19.6555 16.1157C19.6176 16.0939 19.5756 16.0805 19.5321 16.0764C19.4887 16.0724 19.4449 16.0776 19.4037 16.092C18.2322 16.4443 16.9752 16.3679 15.854 15.8765C15.0333 15.5242 14.2286 15.1579 13.4238 14.7916C13.0866 14.6386 12.7493 14.4845 12.411 14.3326L11.4601 13.9017H11.4537C10.3309 13.3989 9.21033 12.8911 8.09185 12.3783C8.04261 12.3509 7.9871 12.3371 7.9309 12.3382C7.8747 12.3393 7.81978 12.3554 7.77167 12.3847C7.62653 12.4526 7.48778 12.5259 7.35544 12.6002C7.12921 12.7293 6.9149 12.8785 6.71509 13.0462C6.60837 13.1346 6.60089 13.1906 6.74924 13.2768C7.97018 13.9871 9.18685 14.6993 10.3992 15.4132L11.3704 15.9831C13.1649 17.0382 14.9628 18.0919 16.7643 19.1441C16.8807 19.2131 16.9031 19.2519 16.7804 19.3208L16.7686 19.3284C16.5352 19.4598 16.3036 19.5927 16.0738 19.727C15.8166 19.8757 15.5626 20.0265 15.3075 20.1773L15.2873 20.1892C15.25 20.2179 15.2045 20.2335 15.1576 20.2335C15.1107 20.2335 15.0652 20.2179 15.0279 20.1892C14.0631 19.6218 13.0966 19.0547 12.1282 18.488C10.3245 17.4322 8.52622 16.3735 6.73323 15.3119C5.78765 14.7496 5.43652 14.0751 5.98616 13.3027C6.03098 13.2391 6.0075 13.2014 5.92852 13.1572C5.75456 13.0613 5.58487 12.9633 5.42265 12.8609C4.94559 12.5604 4.87835 12.1617 5.25189 11.8644C5.3079 11.8185 5.3671 11.7767 5.42905 11.7394Z"
        fill="white" />
    <defs>
        <linearGradient id="paint0_linear_30_1028" x1="31.0312" y1="20.4162" x2="0.975504"
            y2="20.4162" gradientUnits="userSpaceOnUse">
            <stop stop-color="#AE9AEE" />
            <stop offset="1" stop-color="#FFC5C2" />
        </linearGradient>
        <linearGradient id="paint1_linear_30_1028" x1="31.0312" y1="20.4162" x2="0.975504"
            y2="20.4162" gradientUnits="userSpaceOnUse">
            <stop stop-color="#AE9AEE" />
            <stop offset="1" stop-color="#FFC5C2" />
        </linearGradient>
        <linearGradient id="paint2_linear_30_1028" x1="31.0312" y1="16.7028" x2="0.975504"
            y2="16.7028" gradientUnits="userSpaceOnUse">
            <stop stop-color="#AE9AEE" />
            <stop offset="1" stop-color="#FFC5C2" />
        </linearGradient>
        <linearGradient id="paint3_linear_30_1028" x1="31.0312" y1="16.7029" x2="0.975506"
            y2="16.7029" gradientUnits="userSpaceOnUse">
            <stop stop-color="#AE9AEE" />
            <stop offset="1" stop-color="#FFC5C2" />
        </linearGradient>
        <linearGradient id="paint4_linear_30_1028" x1="31.0312" y1="12.7873" x2="0.97551"
            y2="12.7873" gradientUnits="userSpaceOnUse">
            <stop stop-color="#AE9AEE" />
            <stop offset="1" stop-color="#FFC5C2" />
        </linearGradient>
        <linearGradient id="paint5_linear_30_1028" x1="31.0312" y1="12.7873" x2="0.97551"
            y2="12.7873" gradientUnits="userSpaceOnUse">
            <stop stop-color="#AE9AEE" />
            <stop offset="1" stop-color="#FFC5C2" />
        </linearGradient>
        <linearGradient id="paint6_linear_30_1028" x1="31.0312" y1="10.2783" x2="0.975504"
            y2="10.2783" gradientUnits="userSpaceOnUse">
            <stop stop-color="#AE9AEE" />
            <stop offset="1" stop-color="#FFC5C2" />
        </linearGradient>
    </defs>
</svg>
    