<svg width="16" height="16" viewBox="0 0 16 16" fill="none" xmlns="http://www.w3.org/2000/svg">
    <g clip-path="url(#clip0_62_371)">
    <path fill-rule="evenodd" clip-rule="evenodd" d="M3.33333 4.66667C4.0697 4.66667 4.66667 4.0697 4.66667 3.33333C4.66667 2.59695 4.0697 2 3.33333 2C2.59695 2 2 2.59695 2 3.33333C2 4.0697 2.59695 4.66667 3.33333 4.66667ZM8 4.66667C8.73637 4.66667 9.33333 4.0697 9.33333 3.33333C9.33333 2.59695 8.73637 2 8 2C7.26363 2 6.66667 2.59695 6.66667 3.33333C6.66667 4.0697 7.26363 4.66667 8 4.66667ZM14 3.33333C14 4.0697 13.403 4.66667 12.6667 4.66667C11.9303 4.66667 11.3333 4.0697 11.3333 3.33333C11.3333 2.59695 11.9303 2 12.6667 2C13.403 2 14 2.59695 14 3.33333ZM3.33333 9.33333C4.0697 9.33333 4.66667 8.73637 4.66667 8C4.66667 7.26363 4.0697 6.66667 3.33333 6.66667C2.59695 6.66667 2 7.26363 2 8C2 8.73637 2.59695 9.33333 3.33333 9.33333ZM9.33333 8C9.33333 8.73637 8.73637 9.33333 8 9.33333C7.26363 9.33333 6.66667 8.73637 6.66667 8C6.66667 7.26363 7.26363 6.66667 8 6.66667C8.73637 6.66667 9.33333 7.26363 9.33333 8ZM12.6667 9.33333C13.403 9.33333 14 8.73637 14 8C14 7.26363 13.403 6.66667 12.6667 6.66667C11.9303 6.66667 11.3333 7.26363 11.3333 8C11.3333 8.73637 11.9303 9.33333 12.6667 9.33333ZM4.66667 12.6667C4.66667 13.403 4.0697 14 3.33333 14C2.59695 14 2 13.403 2 12.6667C2 11.9303 2.59695 11.3333 3.33333 11.3333C4.0697 11.3333 4.66667 11.9303 4.66667 12.6667ZM8 14C8.73637 14 9.33333 13.403 9.33333 12.6667C9.33333 11.9303 8.73637 11.3333 8 11.3333C7.26363 11.3333 6.66667 11.9303 6.66667 12.6667C6.66667 13.403 7.26363 14 8 14ZM14 12.6667C14 13.403 13.403 14 12.6667 14C11.9303 14 11.3333 13.403 11.3333 12.6667C11.3333 11.9303 11.9303 11.3333 12.6667 11.3333C13.403 11.3333 14 11.9303 14 12.6667Z" fill="black" fill-opacity="0.8"/>
    </g>
    <defs>
    <clipPath id="clip0_62_371">
    <rect width="16" height="16" fill="white"/>
    </clipPath>
    </defs>
    </svg>
    