<svg width="16" height="16" viewBox="0 0 16 16" fill="none" xmlns="http://www.w3.org/2000/svg">
    <g clip-path="url(#clip0_62_384)">
        <path fill-rule="evenodd" clip-rule="evenodd"
            d="M4.00016 3.33333C4.00016 4.0697 3.4032 4.66667 2.66683 4.66667C1.93045 4.66667 1.3335 4.0697 1.3335 3.33333C1.3335 2.59695 1.93045 2 2.66683 2C3.4032 2 4.00016 2.59695 4.00016 3.33333ZM4.00016 8.00002C4.00016 8.73639 3.4032 9.33335 2.66683 9.33335C1.93045 9.33335 1.3335 8.73639 1.3335 8.00002C1.3335 7.26365 1.93045 6.66669 2.66683 6.66669C3.4032 6.66669 4.00016 7.26365 4.00016 8.00002ZM2.66683 14C3.4032 14 4.00016 13.403 4.00016 12.6666C4.00016 11.9303 3.4032 11.3333 2.66683 11.3333C1.93045 11.3333 1.3335 11.9303 1.3335 12.6666C1.3335 13.403 1.93045 14 2.66683 14ZM6.66683 2.66667C6.29864 2.66667 6.00016 2.96514 6.00016 3.33333C6.00016 3.70152 6.29864 4 6.66683 4H14.0002C14.3684 4 14.6668 3.70152 14.6668 3.33333C14.6668 2.96514 14.3684 2.66667 14.0002 2.66667H6.66683ZM6.66683 7.33333C6.29864 7.33333 6.00016 7.63181 6.00016 8C6.00016 8.36819 6.29864 8.66667 6.66683 8.66667H14.0002C14.3684 8.66667 14.6668 8.36819 14.6668 8C14.6668 7.63181 14.3684 7.33333 14.0002 7.33333H6.66683ZM6.00016 12.6667C6.00016 12.2985 6.29864 12 6.66683 12H14.0002C14.3684 12 14.6668 12.2985 14.6668 12.6667C14.6668 13.0349 14.3684 13.3333 14.0002 13.3333H6.66683C6.29864 13.3333 6.00016 13.0349 6.00016 12.6667Z"
            fill="black" fill-opacity="0.8" />
    </g>
    <defs>
        <clipPath id="clip0_62_384">
            <rect width="16" height="16" fill="white" />
        </clipPath>
    </defs>
</svg>
    