<svg width="88" height="98" viewBox="0 0 88 98" fill="none" xmlns="http://www.w3.org/2000/svg">
<circle cx="44" cy="44" r="44" fill="#F0F1F5"/>
<mask id="mask0_31618_534463" style="mask-type:alpha" maskUnits="userSpaceOnUse" x="0" y="0" width="88" height="88">
<circle cx="44" cy="44" r="44" fill="#F0F1F5"/>
</mask>
<g mask="url(#mask0_31618_534463)">
<rect x="22.1113" y="15.8123" width="68.5385" height="67.6923" rx="8" transform="rotate(4.5 22.1113 15.8123)" fill="#E4E6E9"/>
<rect x="9.30762" y="26.2307" width="68.5385" height="67.6923" rx="8" fill="white"/>
<rect x="16.0771" y="41.4615" width="7.61538" height="3.38462" rx="1.69231" fill="#D1D2D4"/>
<rect x="30.4619" y="41.4615" width="16.9231" height="3.38462" rx="1.69231" fill="#E9EBEE"/>
<rect x="54.1543" y="41.4615" width="16.9231" height="3.38462" rx="1.69231" fill="#F0F2F5"/>
<rect x="16.0771" y="51.6154" width="7.61538" height="3.38462" rx="1.69231" fill="#D1D2D4"/>
<rect x="30.4619" y="51.6154" width="16.9231" height="3.38462" rx="1.69231" fill="#E9EBEE"/>
<rect x="54.1543" y="51.6154" width="16.9231" height="3.38462" rx="1.69231" fill="#F0F2F5"/>
<rect x="16.0771" y="61.7693" width="7.61538" height="3.38462" rx="1.69231" fill="#D1D2D4"/>
<rect x="30.4619" y="61.7693" width="16.9231" height="3.38462" rx="1.69231" fill="#E9EBEE"/>
<rect x="54.1543" y="61.7693" width="16.9231" height="3.38462" rx="1.69231" fill="#F0F2F5"/>
<rect x="16.0771" y="71.9231" width="7.61538" height="3.38462" rx="1.69231" fill="#D1D2D4"/>
<rect x="30.4619" y="71.9231" width="16.9231" height="3.38462" rx="1.69231" fill="#E9EBEE"/>
<rect x="54.1543" y="71.9231" width="16.9231" height="3.38462" rx="1.69231" fill="#F0F2F5"/>
<rect x="16.0771" y="82.0769" width="7.61538" height="3.38462" rx="1.69231" fill="#D1D2D4"/>
</g>
<path d="M54 88C54 93.5228 49.5228 98 44 98C38.4772 98 34 93.5228 34 88C34 82.4772 38.4772 78 44 78C49.5228 78 54 82.4772 54 88Z" fill="#DADBDE"/>
<path fill-rule="evenodd" clip-rule="evenodd" d="M48.4684 83.6763C48.1018 83.3097 47.5075 83.3097 47.141 83.6763L43.9883 86.829L40.8356 83.6763C40.469 83.3097 39.8747 83.3097 39.5081 83.6763C39.1416 84.0429 39.1416 84.6372 39.5081 85.0037L42.6608 88.1564L39.5082 91.3091C39.1416 91.6756 39.1416 92.27 39.5082 92.6365C39.8747 93.0031 40.469 93.0031 40.8356 92.6365L43.9883 89.4839L47.1409 92.6365C47.5075 93.0031 48.1018 93.0031 48.4684 92.6365C48.835 92.27 48.8349 91.6757 48.4684 91.3091L45.3157 88.1564L48.4684 85.0037C48.835 84.6372 48.835 84.0428 48.4684 83.6763Z" fill="#FCFDFE"/>
</svg>
