<svg width="15" height="14" viewBox="0 0 15 14" fill="none" xmlns="http://www.w3.org/2000/svg">
<path fill-rule="evenodd" clip-rule="evenodd" d="M13.8634 2.05086C14.2539 1.66033 14.2539 1.02717 13.8634 0.636643C13.4728 0.246119 12.8397 0.246119 12.4491 0.636643L7.49929 5.5865L2.54954 0.63675C2.15902 0.246226 1.52585 0.246226 1.13533 0.63675C0.744805 1.02727 0.744805 1.66044 1.13533 2.05096L6.08507 7.00071L1.13543 11.9504C0.744909 12.3409 0.744909 12.974 1.13543 13.3646C1.52596 13.7551 2.15912 13.7551 2.54965 13.3646L7.49929 8.41492L12.449 13.3647C12.8396 13.7552 13.4727 13.7552 13.8632 13.3647C14.2538 12.9741 14.2538 12.341 13.8632 11.9505L8.9135 7.00071L13.8634 2.05086Z" />
</svg>
