<svg width="16" height="16" viewBox="0 0 16 16" fill="none" xmlns="http://www.w3.org/2000/svg">
<path d="M8.02004 3.80078C8.1916 3.80082 8.35717 3.86423 8.48531 3.9783C8.61345 4.09238 8.69524 4.24954 8.71514 4.41994L8.71644 4.43108L8.72035 4.50114L8.71999 9.81015L9.52496 9.00483C9.6454 8.88425 9.80577 8.81167 9.97585 8.80084C10.146 8.79002 10.3142 8.84164 10.449 8.94603L10.4601 8.95464L10.515 9.0044C10.6356 9.12485 10.708 9.28539 10.7188 9.45551C10.7296 9.62563 10.678 9.79385 10.5736 9.92862L10.565 9.93974L10.5152 9.99471L8.51702 11.9945C8.39657 12.1151 8.23623 12.1876 8.06613 12.1984C7.89601 12.2093 7.72778 12.1576 7.59302 12.0533L7.58189 12.0446L7.52692 11.9949L5.52574 9.99523C5.39908 9.86959 5.32481 9.69997 5.31876 9.52165C5.31271 9.34317 5.3751 9.16912 5.49317 9.03513C5.61123 8.90114 5.77605 8.81734 5.95388 8.80089C6.1317 8.78444 6.30909 8.83658 6.44974 8.94663L6.46004 8.95469L6.515 9.00438L7.31999 9.8084V4.50114C7.32001 4.32969 7.38296 4.16418 7.49689 4.03606C7.61082 3.90793 7.76781 3.82608 7.93809 3.80602L7.94954 3.805L8.02004 3.80078Z" fill="black" fill-opacity="0.6"/>
</svg>
