<svg width="8" height="6" viewBox="0 0 8 6" fill="none" xmlns="http://www.w3.org/2000/svg">
<path fill-rule="evenodd" clip-rule="evenodd" d="M4.0037 3.4375L1.46735 0.767153C1.31612 0.611567 1.10058 0.5 0.847391 0.5C0.344842 0.5 2.00685e-07 0.908854 1.81546e-07 1.34672C1.71871e-07 1.56805 0.0804168 1.77 0.234123 1.92891L3.35104 5.20712L3.35198 5.20812C3.51683 5.38356 3.73287 5.5 4 5.5L4.01127 5.5C4.25464 5.49285 4.48098 5.3959 4.65422 5.20591L7.76597 1.92882C7.91962 1.76992 8 1.568 8 1.34672C8 0.908854 7.65516 0.5 7.15261 0.5C6.90515 0.5 6.68517 0.610271 6.53266 0.767168L6.52947 0.770456L4.0037 3.4375Z" fill="black" fill-opacity="0.8"/>
</svg>
