<svg width="4" height="8" viewBox="0 0 4 8" fill="none" xmlns="http://www.w3.org/2000/svg">
	<path
		d="M3.20766 1.61574C3.40255 1.43209 3.5 1.20916 3.5 0.947733C3.5 0.686722 3.40255 0.463939 3.20766 0.278587C3.0127 0.0932362 2.77861 0 2.50412 0C2.23075 0 1.99436 0.0932398 1.79836 0.278587C1.60346 0.463939 1.50489 0.686722 1.50489 0.947733C1.50489 1.20916 1.60345 1.43209 1.79836 1.61574C1.99437 1.79932 2.23077 1.89143 2.50412 1.89143C2.77861 1.89143 3.0127 1.79932 3.20766 1.61574ZM2.75845 7.75494C3.11014 7.5883 3.29618 7.2751 3.11357 7.13185C3.00824 7.04941 2.87041 7.18581 2.76961 7.18581C2.55345 7.18581 2.40102 7.15 2.3137 7.07781C2.22518 7.00505 2.18263 6.87027 2.18263 6.6713C2.18263 6.59177 2.19497 6.47528 2.22183 6.32116C2.24868 6.16654 2.28007 6.02838 2.3137 5.90787L2.73152 4.40931C2.77072 4.27171 2.79988 4.12047 2.81557 3.95617C2.83008 3.79017 2.83796 3.67532 2.83796 3.61047C2.83796 3.29502 2.72817 3.03804 2.50969 2.84017C2.29234 2.64296 1.98096 2.54343 1.57764 2.54343C1.35359 2.54343 1.11503 2.57698 0.865229 2.6645C0.375621 2.83841 0.4843 3.27057 0.592978 3.27057C0.813604 3.27057 0.961497 3.30858 1.03996 3.38423C1.11836 3.45932 1.15868 3.59289 1.15868 3.78558C1.15868 3.89133 1.1441 4.01021 1.11948 4.13862C1.09367 4.26718 1.06347 4.40415 1.02538 4.54796L0.605329 6.05226C0.569475 6.21027 0.54255 6.35182 0.524623 6.47743C0.507812 6.60309 0.5 6.72592 0.5 6.8465C0.5 7.15518 0.612025 7.40982 0.837197 7.61107C1.06236 7.81295 1.40855 8 1.81404 8C2.07729 8 2.45368 7.90054 2.75845 7.75496L2.75845 7.75494Z"
		fill-opacity="0.6" />
</svg>
