<svg width="12" height="12" viewBox="0 0 12 12" fill="none" xmlns="http://www.w3.org/2000/svg">
<circle cx="6" cy="6" r="6" fill="white" fill-opacity="0.9"/>
<path fill-rule="evenodd" clip-rule="evenodd" d="M6.72715 5.19321H5V6.04308H5.43864V8.48303H5V9.3329H7.1658V8.48303H6.72715V5.19321Z" fill="black" fill-opacity="0.6"/>
<path fill-rule="evenodd" clip-rule="evenodd" d="M6.0829 3C5.85386 3 5.63421 3.09098 5.47226 3.25294C5.31031 3.41489 5.21932 3.63454 5.21932 3.86358C5.21932 4.09261 5.31031 4.31227 5.47226 4.47422C5.63421 4.63617 5.85386 4.72715 6.0829 4.72715C6.31193 4.72715 6.53159 4.63617 6.69354 4.47422C6.85549 4.31227 6.94648 4.09261 6.94648 3.86358C6.94648 3.63454 6.85549 3.41489 6.69354 3.25294C6.53159 3.09098 6.31193 3 6.0829 3Z" fill="black" fill-opacity="0.6"/>
</svg>
