<svg width="24" height="24" viewBox="0 0 24 24" xmlns="http://www.w3.org/2000/svg">
<g clip-path="url(#clip0_31342_530058)">
<path d="M6.65629 6.65678C6.26545 7.04762 6.26577 7.68047 6.65629 8.071L10.8989 12.3136L6.65629 16.5563C6.26545 16.9471 6.26577 17.58 6.65629 17.9705C7.04682 18.361 7.67967 18.3613 8.07051 17.9705L12.3131 13.7278L16.5558 17.9705C16.9463 18.361 17.5792 18.3613 17.97 17.9705C18.3608 17.5796 18.3605 16.9468 17.97 16.5563L13.7274 12.3136L17.97 8.071C18.3608 7.68015 18.3605 7.04731 17.97 6.65678C17.5795 6.26626 16.9466 6.26594 16.5558 6.65678L12.3131 10.8994L8.07051 6.65678C7.67998 6.26626 7.04714 6.26594 6.65629 6.65678Z"/>
</g>
<defs>
<clipPath id="clip0_31342_530058">
<rect width="24" height="24" fill="white"/>
</clipPath>
</defs>
</svg>
