<svg width="44" height="44" viewBox="0 0 44 44" fill="none" xmlns="http://www.w3.org/2000/svg">
<path fill-rule="evenodd" clip-rule="evenodd" d="M38.7955 33.559L24.4609 8.26256C23.3774 6.35052 20.6226 6.35052 19.5391 8.26256L5.20447 33.559C4.13597 35.4446 5.49806 37.782 7.66535 37.782H36.3346C38.5019 37.782 39.864 35.4446 38.7955 33.559ZM26.9218 6.86806C24.7548 3.04398 19.2452 3.04398 17.0782 6.86806L2.74359 32.1645C0.606577 35.9357 3.33076 40.6106 7.66535 40.6106H36.3346C40.6692 40.6106 43.3934 35.9357 41.2564 32.1645L26.9218 6.86806ZM20.5857 16.568C20.5857 15.7869 21.2189 15.1538 21.9999 15.1538C22.781 15.1538 23.4142 15.7869 23.4142 16.568V25.0536C23.4142 25.8347 22.781 26.4679 21.9999 26.4679C21.2189 26.4679 20.5857 25.8347 20.5857 25.0536V16.568ZM21.9999 33.5393C22.781 33.5393 23.4142 32.9062 23.4142 32.1251C23.4142 31.344 22.781 30.7108 21.9999 30.7108C21.2189 30.7108 20.5857 31.344 20.5857 32.1251C20.5857 32.9062 21.2189 33.5393 21.9999 33.5393Z" fill="#D1D2D4"/>
</svg>
