<svg width="34" height="34" viewBox="0 0 34 34" fill="none" xmlns="http://www.w3.org/2000/svg">
<path fill-rule="evenodd" clip-rule="evenodd" d="M20.8027 5.30717C19.1282 2.3522 14.8708 2.3522 13.1963 5.30717L2.11951 24.8544C0.468186 27.7685 2.57324 31.3809 5.9227 31.3809H28.0762C31.4257 31.3809 33.5307 27.7685 31.8794 24.8544L20.8027 5.30717Z" fill="#FCEBDB"/>
<path fill-rule="evenodd" clip-rule="evenodd" d="M19.8166 5.86592C18.5763 3.67706 15.4227 3.67706 14.1823 5.86592L3.10554 25.4132C1.88234 27.5717 3.44163 30.2476 5.9227 30.2476H28.0762C30.5573 30.2476 32.1166 27.5717 30.8934 25.4132L19.8166 5.86592ZM13.1963 5.30717C14.8708 2.3522 19.1282 2.3522 20.8027 5.30717L31.8794 24.8544C33.5307 27.7685 31.4257 31.3809 28.0762 31.3809H5.9227C2.57324 31.3809 0.468186 27.7685 2.11951 24.8544L13.1963 5.30717Z" fill="#F2994A"/>
<path fill-rule="evenodd" clip-rule="evenodd" d="M17.0007 12.4667C16.3971 12.4667 15.9079 12.956 15.9079 13.5595V20.1166C15.9079 20.7201 16.3971 21.2094 17.0007 21.2094C17.6043 21.2094 18.0935 20.7201 18.0935 20.1166V13.5595C18.0935 12.956 17.6043 12.4667 17.0007 12.4667ZM17.0005 26.0667C17.6264 26.0667 18.1339 25.5593 18.1339 24.9333C18.1339 24.3074 17.6264 23.8 17.0005 23.8C16.3746 23.8 15.8672 24.3074 15.8672 24.9333C15.8672 25.5593 16.3746 26.0667 17.0005 26.0667Z" fill="#F2994A"/>
</svg>
