<svg width="24" height="24" viewBox="0 0 24 24" fill="none" xmlns="http://www.w3.org/2000/svg">
    <g clip-path="url(#clip0_1_1386)">
    <path fill-rule="evenodd" clip-rule="evenodd" d="M18.2956 16.9367C19.3633 15.577 20 13.8629 20 12C20 7.58172 16.4183 4 12 4C7.58172 4 4 7.58172 4 12C4 13.8629 4.63673 15.577 5.70442 16.9367C6.52676 15.2497 8.00687 13.9423 9.81161 13.3488C8.72066 12.6345 8 11.4014 8 10C8 7.79086 9.79086 6 12 6C14.2091 6 16 7.79086 16 10C16 11.4014 15.2793 12.6345 14.1884 13.3488C15.9931 13.9422 17.4733 15.2497 18.2956 16.9367ZM16.7511 18.437C16.0949 16.4406 14.2146 15 12 15C9.78545 15 7.90507 16.4406 7.24887 18.437C8.57745 19.4193 10.2209 20 12 20C13.7791 20 15.4226 19.4193 16.7511 18.437ZM12 22C17.5228 22 22 17.5228 22 12C22 6.47715 17.5228 2 12 2C6.47715 2 2 6.47715 2 12C2 17.5228 6.47715 22 12 22ZM12 12C13.1046 12 14 11.1046 14 10C14 8.89543 13.1046 8 12 8C10.8954 8 10 8.89543 10 10C10 11.1046 10.8954 12 12 12Z" fill="#000000" fill-opacity="0.8"/>
    </g>
    <defs>
    <clipPath id="clip0_1_1386">
    <rect width="24" height="24" fill="white"/>
    </clipPath>
    </defs>
    </svg>
    