<svg width="20" height="20" viewBox="0 0 20 20" fill="none" xmlns="http://www.w3.org/2000/svg">
<path fill-rule="evenodd" clip-rule="evenodd" d="M15.0007 3.33333V15H15.834C16.2942 15 16.6673 14.6269 16.6673 14.1667V2.5C16.6673 2.03976 16.2942 1.66667 15.834 1.66667H7.50065C7.04041 1.66667 6.66732 2.03976 6.66732 2.5V3.33333H15.0007ZM5.00065 16.6667V6.66667H11.6673V16.6667H5.00065ZM3.33398 5.83333C3.33398 5.3731 3.70708 5 4.16732 5H12.5007C12.9609 5 13.334 5.3731 13.334 5.83333V17.5C13.334 17.9602 12.9609 18.3333 12.5007 18.3333H4.16732C3.70708 18.3333 3.33398 17.9602 3.33398 17.5V5.83333Z" fill="black" fill-opacity="0.8"/>
</svg>
