<svg width="20" height="20" viewBox="0 0 20 20" fill="none" xmlns="http://www.w3.org/2000/svg">
<g clip-path="url(#clip0_33253_12830)">
<path fill-rule="evenodd" clip-rule="evenodd" d="M9.99935 3.33333H4.99935C4.07887 3.33333 3.33268 4.07952 3.33268 5V15C3.33268 15.9205 4.07887 16.6667 4.99935 16.6667H9.99935C10.9198 16.6667 11.666 15.9205 11.666 15C11.666 14.5398 12.0391 14.1667 12.4993 14.1667C12.9596 14.1667 13.3327 14.5398 13.3327 15C13.3327 16.8409 11.8403 18.3333 9.99935 18.3333H4.99935C3.1584 18.3333 1.66602 16.8409 1.66602 15V5C1.66602 3.15905 3.1584 1.66666 4.99935 1.66666H9.99935C11.8403 1.66666 13.3327 3.15905 13.3327 5C13.3327 5.46023 12.9596 5.83333 12.4993 5.83333C12.0391 5.83333 11.666 5.46023 11.666 5C11.666 4.07952 10.9198 3.33333 9.99935 3.33333ZM14.4101 6.91074C14.0847 7.23618 14.0847 7.76382 14.4101 8.08925L15.4875 9.16666H7.49935C7.03911 9.16666 6.66602 9.53976 6.66602 10C6.66602 10.4602 7.03911 10.8333 7.49935 10.8333H15.4875L14.4101 11.9107C14.0847 12.2362 14.0847 12.7638 14.4101 13.0893C14.7355 13.4147 15.2632 13.4147 15.5886 13.0893L18.0886 10.5893C18.1685 10.5094 18.2288 10.4173 18.2695 10.319C18.3102 10.2207 18.3327 10.113 18.3327 10C18.3327 9.88701 18.3102 9.77927 18.2695 9.68101C18.2288 9.58272 18.1685 9.49064 18.0886 9.41074L15.5886 6.91074C15.2632 6.5853 14.7355 6.5853 14.4101 6.91074Z" fill="black" fill-opacity="0.8"/>
</g>
<defs>
<clipPath id="clip0_33253_12830">
<rect width="20" height="20" fill="white"/>
</clipPath>
</defs>
</svg>
