<svg width="24" height="24" viewBox="0 0 24 24" fill="#809dff" xmlns="http://www.w3.org/2000/svg">
<path fill-rule="evenodd" clip-rule="evenodd" d="M5 7.33333C5 6.59694 5.63491 6 6.41818 6H17.0545C17.4461 6 17.7636 6.29848 17.7636 6.66667C17.7636 7.03485 17.4461 7.33333 17.0545 7.33333H7.12727C6.73565 7.33333 6.41818 7.63181 6.41818 8C6.41818 8.36819 6.71666 8.66667 7.08485 8.66667H17.7636C18.5469 8.66667 19.1818 9.26362 19.1818 10V16.6667C19.1818 17.403 18.5469 18 17.7636 18H6.41818C5.63494 18 5 17.403 5 16.6667V7.33333ZM14.9267 13.3333C14.9267 12.597 15.5236 12 16.26 12H19.1812V14.6667H16.26C15.5236 14.6667 14.9267 14.0697 14.9267 13.3333ZM17.0546 14.0004C17.4463 14.0004 17.7637 13.7019 17.7637 13.3337C17.7637 12.9655 17.4463 12.6671 17.0546 12.6671C16.663 12.6671 16.3456 12.9655 16.3456 13.3337C16.3456 13.7019 16.663 14.0004 17.0546 14.0004Z" />
</svg>
