<svg width="6" height="8" viewBox="0 0 6 8" fill="none" xmlns="http://www.w3.org/2000/svg">
<path fill-rule="evenodd" clip-rule="evenodd" d="M3.43751 3.9963L0.767153 6.53265C0.611567 6.68388 0.5 6.89942 0.5 7.15261C0.5 7.65516 0.908854 8 1.34672 8C1.56805 8 1.77 7.91958 1.92891 7.76588L5.20712 4.64896L5.20812 4.64802C5.38356 4.48317 5.5 4.26713 5.5 4V3.98873C5.49285 3.74536 5.3959 3.51902 5.20591 3.34578L1.92882 0.234029C1.76992 0.0803849 1.568 0 1.34672 0C0.908854 0 0.5 0.344843 0.5 0.847392C0.5 1.09485 0.610271 1.31483 0.767169 1.46734L0.770456 1.47053L3.43751 3.9963Z" fill="black" fill-opacity="0.8"/>
</svg>
