<svg width="24" height="24" viewBox="0 0 24 24" xmlns="http://www.w3.org/2000/svg">
    <g clip-path="url(#clip0_1_1327)">
        <path fill-rule="evenodd" clip-rule="evenodd"
            d="M4.51808 6.97378L11.5181 3.12378C11.8182 2.95874 12.1818 2.95874 12.4819 3.12378L19.4819 6.97378C19.8015 7.14954 20 7.48531 20 7.85V15.3024C20 15.6671 19.8015 16.0028 19.4819 16.1786L12.4819 20.0286C12.1818 20.1936 11.8182 20.1936 11.5181 20.0286L4.51808 16.1786C4.19853 16.0028 4 15.6671 4 15.3024V7.85C4 7.48531 4.19853 7.14954 4.51808 6.97378ZM2 7.85C2 6.75593 2.5956 5.74861 3.55424 5.22135L10.5542 1.37135C11.4545 0.876216 12.5455 0.876216 13.4458 1.37135L20.4458 5.22135C21.4044 5.74861 22 6.75593 22 7.85V15.3024C22 16.3964 21.4044 17.4038 20.4458 17.931L13.4458 21.781C12.5455 22.2762 11.4545 22.2762 10.5542 21.781L3.55424 17.931C2.5956 17.4038 2 16.3964 2 15.3024V7.85ZM8 8.57617C7.44772 8.57617 7 9.02389 7 9.57617V13.5762C7 14.1285 7.44772 14.5762 8 14.5762C8.55228 14.5762 9 14.1285 9 13.5762V9.57617C9 9.02389 8.55228 8.57617 8 8.57617ZM11 7.57617C11 7.02389 11.4477 6.57617 12 6.57617C12.5523 6.57617 13 7.02389 13 7.57617V15.5762C13 16.1285 12.5523 16.5762 12 16.5762C11.4477 16.5762 11 16.1285 11 15.5762V7.57617ZM16 8.57617C15.4477 8.57617 15 9.02389 15 9.57617V13.5762C15 14.1285 15.4477 14.5762 16 14.5762C16.5523 14.5762 17 14.1285 17 13.5762V9.57617C17 9.02389 16.5523 8.57617 16 8.57617Z"
            fill-opacity="0.8" />
    </g>
    <defs>
        <clipPath id="clip0_1_1327">
            <rect width="24" height="24" fill="white" />
        </clipPath>
    </defs>
</svg>
    