<svg width="16" height="16" viewBox="0 0 16 16" fill="none" xmlns="http://www.w3.org/2000/svg">
<path d="M6.20088 4.93683C6.18023 4.91105 6.15795 4.88614 6.13405 4.86224C5.78258 4.51077 5.21273 4.51077 4.86126 4.86224C4.50979 5.21371 4.50979 5.78356 4.86126 6.13503C4.88516 6.15893 4.91007 6.18121 4.93585 6.20186L4.93197 6.20574L6.72621 7.99998L4.83204 9.89414C4.50951 10.2473 4.51972 10.796 4.86137 11.1376C5.20301 11.4792 5.75098 11.4888 6.10417 11.1663L6.13416 11.1376L7.999 9.27277L9.89308 11.1668C10.2463 11.4894 10.7949 11.4792 11.1365 11.1375C11.4782 10.7959 11.4877 10.2479 11.1652 9.89472L11.1365 9.86473L9.27179 7.99998L11.0659 6.20583L11.0621 6.20194C11.0878 6.18129 11.1128 6.15902 11.1367 6.13512C11.4881 5.78364 11.4881 5.2138 11.1367 4.86232C10.7852 4.51085 10.2153 4.51085 9.86386 4.86232C9.83996 4.88622 9.81768 4.91114 9.79703 4.93692L9.79315 4.93303L7.999 6.72718L6.20476 4.93295L6.20088 4.93683Z" fill="#7C5B56"/>
<path fill-rule="evenodd" clip-rule="evenodd" d="M16 8C16 12.418 12.418 16 8 16C3.582 16 0 12.418 0 8C0 3.582 3.582 0 8 0C12.418 0 16 3.582 16 8ZM14.5 8C14.5 11.5896 11.5896 14.5 8 14.5C4.41043 14.5 1.5 11.5896 1.5 8C1.5 4.41043 4.41043 1.5 8 1.5C11.5896 1.5 14.5 4.41043 14.5 8Z" fill="#7C5B56"/>
</svg>
