<svg width="16" height="16" viewBox="0 0 16 16" fill="none" xmlns="http://www.w3.org/2000/svg">
<path d="M8.80815 6.79321H6.64062V7.85977H7.19111V10.9218H6.64062V11.9884H9.35864V10.9218H8.80815V6.79321Z" fill="black" fill-opacity="0.6"/>
<path d="M8 6.14258C8.55229 6.14258 9 5.69486 9 5.14258C9 4.59029 8.55229 4.14258 8 4.14258C7.44772 4.14258 7 4.59029 7 5.14258C7 5.69486 7.44772 6.14258 8 6.14258Z" fill="black" fill-opacity="0.6"/>
<path fill-rule="evenodd" clip-rule="evenodd" d="M8 16C12.4183 16 16 12.4183 16 8C16 3.58172 12.4183 0 8 0C3.58172 0 0 3.58172 0 8C0 12.4183 3.58172 16 8 16ZM8 14.5C11.5899 14.5 14.5 11.5899 14.5 8C14.5 4.41015 11.5899 1.5 8 1.5C4.41015 1.5 1.5 4.41015 1.5 8C1.5 11.5899 4.41015 14.5 8 14.5Z" fill="black" fill-opacity="0.6"/>
</svg>
