<svg width="16" height="16" viewBox="0 0 16 16" fill="none" xmlns="http://www.w3.org/2000/svg">
<g clip-path="url(#clip0_48927_8782)">
<path fill-rule="evenodd" clip-rule="evenodd" d="M15.5416 10.262L11.0273 2.27245C9.69194 -0.0908173 6.30766 -0.0908134 4.97235 2.27245L0.45802 10.262C-0.848013 12.5735 0.78567 15.5 3.48547 15.5H12.5141C15.2139 15.5 16.8476 12.5735 15.5416 10.262ZM6.2783 3.01034C7.03947 1.66322 8.96014 1.66322 9.7213 3.01034L14.2356 10.9999C14.9909 12.3367 14.0365 14 12.5141 14H3.48547C1.96308 14 1.00865 12.3367 1.76397 10.9999L6.2783 3.01034ZM7.1004 8.78285V5.40009C7.1004 4.90303 7.50335 4.5 8.0004 4.5C8.49746 4.5 8.9004 4.90303 8.9004 5.40009V8.74138L8.89946 8.78285C8.87779 9.26066 8.48356 9.64138 8.0004 9.64138C7.51725 9.64138 7.12208 9.26066 7.1004 8.78285ZM7.99982 12.5C8.5521 12.5 8.99982 12.0523 8.99982 11.5C8.99982 10.9477 8.5521 10.5 7.99982 10.5C7.44753 10.5 6.99982 10.9477 6.99982 11.5C6.99982 12.0523 7.44753 12.5 7.99982 12.5Z" fill="#73604B"/>
</g>
<defs>
<clipPath id="clip0_48927_8782">
<rect width="16" height="16" fill="white" transform="translate(-0.000244141)"/>
</clipPath>
</defs>
</svg>
