<svg width="16" height="16" viewBox="0 0 16 16" fill="none" xmlns="http://www.w3.org/2000/svg">
<path d="M10.6083 4.36597C10.8597 3.97997 11.3757 3.8703 11.761 4.12063C12.147 4.37097 12.257 4.88697 12.0067 5.2733C12.0067 5.2733 7.95065 11.528 7.83999 11.6966C7.65165 11.9823 7.36465 12.0763 7.14032 12.0763C6.93832 12.0763 6.73499 12.003 6.57499 11.8546L4.17199 9.63263C3.83399 9.3203 3.81332 8.79296 4.12565 8.45497C4.43799 8.1173 4.96532 8.0963 5.30332 8.40897L6.97965 9.95897L10.6083 4.36597Z" fill="#68734B"/>
<path fill-rule="evenodd" clip-rule="evenodd" d="M16 8C16 12.418 12.418 16 8 16C3.582 16 0 12.418 0 8C0 3.582 3.582 0 8 0C12.418 0 16 3.582 16 8ZM14.5 8C14.5 11.5896 11.5896 14.5 8 14.5C4.41043 14.5 1.5 11.5896 1.5 8C1.5 4.41043 4.41043 1.5 8 1.5C11.5896 1.5 14.5 4.41043 14.5 8Z" fill="#68734B"/>
</svg>
