<svg width="16" height="16" viewBox="0 0 16 16" fill="none" xmlns="http://www.w3.org/2000/svg">
<path d="M9 12C9 12.5523 8.55229 13 8 13C7.44772 13 7 12.5523 7 12C7 11.4477 7.44772 11 8 11C8.55229 11 9 11.4477 9 12Z" fill="#73604B"/>
<path d="M7.10059 3.90009V9.28285C7.12226 9.76066 7.51743 10.1414 8.00059 10.1414C8.48374 10.1414 8.87797 9.76066 8.89965 9.28285L8.90059 9.24138V3.90009C8.90059 3.40303 8.49764 3 8.00059 3C7.50353 3 7.10059 3.40303 7.10059 3.90009Z" fill="#73604B"/>
<path fill-rule="evenodd" clip-rule="evenodd" d="M8 16C12.4183 16 16 12.4183 16 8C16 3.58172 12.4183 0 8 0C3.58172 0 0 3.58172 0 8C0 12.4183 3.58172 16 8 16ZM8 14.5C11.5899 14.5 14.5 11.5899 14.5 8C14.5 4.41015 11.5899 1.5 8 1.5C4.41015 1.5 1.5 4.41015 1.5 8C1.5 11.5899 4.41015 14.5 8 14.5Z" fill="#73604B"/>
</svg>
