<svg width="92" height="92" viewBox="0 0 92 92" fill="none" xmlns="http://www.w3.org/2000/svg">
    <path fill-rule="evenodd" clip-rule="evenodd"
        d="M56.2898 14.3621C51.7589 6.36629 40.2388 6.36628 35.7079 14.3621L5.73544 67.2546C1.26714 75.1398 6.96317 84.9146 16.0264 84.9146H75.9713C85.0345 84.9146 90.7305 75.1399 86.2622 67.2546L56.2898 14.3621Z"
        fill="#FCEBDB" />
    <path fill-rule="evenodd" clip-rule="evenodd"
        d="M53.6217 15.874C50.2655 9.9512 41.7322 9.9512 38.3759 15.874L8.4035 68.7665C5.09367 74.6074 9.31293 81.8479 16.0264 81.8479H75.9713C82.6848 81.8479 86.904 74.6074 83.5942 68.7665L53.6217 15.874ZM35.7079 14.3621C40.2388 6.36628 51.7589 6.36629 56.2898 14.3621L86.2622 67.2546C90.7305 75.1399 85.0345 84.9146 75.9713 84.9146H16.0264C6.96317 84.9146 1.26714 75.1398 5.73544 67.2546L35.7079 14.3621Z"
        fill="#F2994A" />
    <path fill-rule="evenodd" clip-rule="evenodd"
        d="M46.0002 33.7344C44.3671 33.7344 43.0431 35.0583 43.0431 36.6915V54.4341C43.0431 56.0672 44.3671 57.3912 46.0002 57.3912C47.6334 57.3912 48.9573 56.0672 48.9573 54.4341V36.6915C48.9573 35.0583 47.6334 33.7344 46.0002 33.7344ZM45.9988 70.5335C47.6925 70.5335 49.0655 69.1605 49.0655 67.4668C49.0655 65.7732 47.6925 64.4002 45.9988 64.4002C44.3051 64.4002 42.9321 65.7732 42.9321 67.4668C42.9321 69.1605 44.3051 70.5335 45.9988 70.5335Z"
        fill="#F2994A" />
</svg>
    