<svg width="24" height="24" viewBox="0 0 24 24" fill="none" xmlns="http://www.w3.org/2000/svg">
    <g clip-path="url(#clip0_1_3262)">
        <path
            d="M6.62359 6.6569C6.23469 7.04775 6.235 7.68059 6.62359 8.07112L10.8451 12.3138L6.62359 16.5564C6.23469 16.9472 6.235 17.5801 6.62359 17.9706C7.01217 18.3611 7.64187 18.3615 8.03076 17.9706L12.2523 13.728L16.4738 17.9706C16.8624 18.3611 17.4921 18.3615 17.881 17.9706C18.2699 17.5798 18.2696 16.9469 17.881 16.5564L13.6595 12.3138L17.881 8.07112C18.2699 7.68028 18.2696 7.04743 17.881 6.6569C17.4924 6.26638 16.8627 6.26606 16.4738 6.6569L12.2523 10.8995L8.03076 6.6569C7.64218 6.26638 7.01248 6.26606 6.62359 6.6569Z"
            fill="#C0C2CC" />
    </g>
    <defs>
        <clipPath id="clip0_1_3262">
            <rect width="23.8806" height="24" fill="white" />
        </clipPath>
    </defs>
</svg>
    