<svg width="220" height="200" viewBox="0 0 220 200" fill="none" xmlns="http://www.w3.org/2000/svg">
    <rect width="220" height="200" fill="#F7F7FA" />
    <path
        d="M61.8639 59.5547C61.8639 63.727 65.2462 67.1094 69.4186 67.1094C73.5909 67.1094 76.9733 63.727 76.9733 59.5547C76.9733 55.3823 73.5909 52 69.4186 52C65.2462 52 61.8639 55.3823 61.8639 59.5547Z"
        fill="black" fill-opacity="0.31" />
    <path
        d="M119.527 147.929C119.527 153.491 115.018 158 109.455 158C103.893 158 99.3842 153.491 99.3842 147.929C99.3842 142.367 103.893 137.858 109.455 137.858C115.018 137.858 119.527 142.367 119.527 147.929Z"
        fill="black" fill-opacity="0.31" />
    <path
        d="M94.3478 135.09C91.5662 135.09 89.3113 132.835 89.3113 130.053C89.3113 127.272 91.5662 125.017 94.3478 125.017C97.1293 125.017 99.3842 127.272 99.3842 130.053C99.3842 132.835 97.1293 135.09 94.3478 135.09Z"
        fill="black" fill-opacity="0.31" />
    <path
        d="M51.2921 102.608C51.2921 105.39 53.547 107.645 56.3286 107.645C59.1101 107.645 61.365 105.39 61.365 102.608C61.365 99.8269 59.1101 97.572 56.3286 97.572C53.547 97.572 51.2921 99.8269 51.2921 102.608Z"
        fill="black" fill-opacity="0.31" />
    <path
        d="M162.836 107.645C160.054 107.645 157.799 105.39 157.799 102.608C157.799 99.8269 160.054 97.572 162.836 97.572C165.617 97.572 167.872 99.8269 167.872 102.608C167.872 105.39 165.617 107.645 162.836 107.645Z"
        fill="black" fill-opacity="0.31" />
    <path
        d="M67.6602 80.4515C67.6602 86.7089 62.5875 91.7815 56.3301 91.7815C50.0727 91.7815 45 86.7089 45 80.4515C45 74.194 50.0727 69.1214 56.3301 69.1214C62.5875 69.1214 67.6602 74.194 67.6602 80.4515Z"
        fill="black" fill-opacity="0.31" />
    <path
        d="M56.3301 157.244C62.5875 157.244 67.6602 152.172 67.6602 145.914C67.6602 139.657 62.5875 134.584 56.3301 134.584C50.0727 134.584 45 139.657 45 145.914C45 152.172 50.0727 157.244 56.3301 157.244Z"
        fill="black" fill-opacity="0.31" />
    <path
        d="M101.901 104.873C101.901 111.13 96.8284 116.203 90.571 116.203C84.3135 116.203 79.2409 111.13 79.2409 104.873C79.2409 98.6153 84.3135 93.5427 90.571 93.5427C96.8284 93.5427 101.901 98.6153 101.901 104.873Z"
        fill="black" fill-opacity="0.31" />
    <path
        d="M81.5072 85.2375C77.3348 85.2375 73.9525 81.8552 73.9525 77.6828C73.9525 73.5105 77.3348 70.1281 81.5072 70.1281C85.6795 70.1281 89.0618 73.5105 89.0618 77.6828C89.0618 81.8552 85.6795 85.2375 81.5072 85.2375Z"
        fill="black" fill-opacity="0.31" />
    <path
        d="M48.7757 122.499C48.7757 126.672 52.158 130.054 56.3303 130.054C60.5027 130.054 63.885 126.672 63.885 122.499C63.885 118.327 60.5027 114.945 56.3303 114.945C52.158 114.945 48.7757 118.327 48.7757 122.499Z"
        fill="black" fill-opacity="0.31" />
    <path
        d="M149.487 67.1094C153.659 67.1094 157.041 63.727 157.041 59.5547C157.041 55.3823 153.659 52 149.487 52C145.314 52 141.932 55.3823 141.932 59.5547C141.932 63.727 145.314 67.1094 149.487 67.1094Z"
        fill="black" fill-opacity="0.31" />
    <path
        d="M129.6 130.053C129.6 132.835 127.346 135.09 124.564 135.09C121.782 135.09 119.528 132.835 119.528 130.053C119.528 127.272 121.782 125.017 124.564 125.017C127.346 125.017 129.6 127.272 129.6 130.053Z"
        fill="black" fill-opacity="0.31" />
    <path
        d="M162.831 91.7815C156.573 91.7815 151.501 86.7089 151.501 80.4515C151.501 74.194 156.573 69.1214 162.831 69.1214C169.088 69.1214 174.161 74.194 174.161 80.4515C174.161 86.7089 169.088 91.7815 162.831 91.7815Z"
        fill="black" fill-opacity="0.31" />
    <path
        d="M151.248 145.914C151.248 152.172 156.321 157.244 162.578 157.244C168.836 157.244 173.908 152.172 173.908 145.914C173.908 139.657 168.836 134.584 162.578 134.584C156.321 134.584 151.248 139.657 151.248 145.914Z"
        fill="black" fill-opacity="0.31" />
    <path
        d="M128.338 116.203C122.08 116.203 117.008 111.13 117.008 104.873C117.008 98.6153 122.08 93.5427 128.338 93.5427C134.595 93.5427 139.668 98.6153 139.668 104.873C139.668 111.13 134.595 116.203 128.338 116.203Z"
        fill="black" fill-opacity="0.31" />
    <path
        d="M144.956 77.6828C144.956 81.8552 141.574 85.2375 137.401 85.2375C133.229 85.2375 129.847 81.8552 129.847 77.6828C129.847 73.5105 133.229 70.1281 137.401 70.1281C141.574 70.1281 144.956 73.5105 144.956 77.6828Z"
        fill="black" fill-opacity="0.31" />
    <path
        d="M162.581 130.054C166.754 130.054 170.136 126.672 170.136 122.499C170.136 118.327 166.754 114.945 162.581 114.945C158.409 114.945 155.027 118.327 155.027 122.499C155.027 126.672 158.409 130.054 162.581 130.054Z"
        fill="black" fill-opacity="0.31" />
</svg>
    