<svg width="145" height="120" viewBox="0 0 145 120" fill="none" xmlns="http://www.w3.org/2000/svg">
    <path fill-rule="evenodd" clip-rule="evenodd"
        d="M142.916 73.1061C142.104 74.0235 141.039 74.8845 139.72 75.6535L84.834 107.644C78.0052 111.62 66.9707 111.62 60.188 107.644L5.66049 75.6586C4.37735 74.9053 3.33806 74.0636 2.5425 73.1668C-0.850052 77 0.183411 81.8183 5.65634 85.0272L60.189 117.017C66.9716 120.994 78.0062 120.994 84.8299 117.017L139.716 85.0272C145.253 81.7986 146.324 76.9483 142.916 73.1061Z"
        fill="url(#paint0_linear_744_26087)" />
    <g style="mix-blend-mode:color-burn">
        <path fill-rule="evenodd" clip-rule="evenodd"
            d="M142.916 73.1061C142.104 74.0235 141.039 74.8845 139.72 75.6535L84.834 107.644C78.0052 111.62 66.9707 111.62 60.188 107.644L5.66049 75.6586C4.37735 74.9053 3.33806 74.0636 2.5425 73.1668C-0.850052 77 0.183411 81.8183 5.65634 85.0272L60.189 117.017C66.9716 120.994 78.0062 120.994 84.8299 117.017L139.716 85.0272C145.253 81.7986 146.324 76.9483 142.916 73.1061Z"
            fill="url(#paint1_linear_744_26087)" />
    </g>
    <path fill-rule="evenodd" clip-rule="evenodd"
        d="M142.915 55.2839C142.104 56.2019 141.038 57.0633 139.719 57.8326L84.8324 89.8228C78.0037 93.7996 66.9691 93.7996 60.1865 89.8228L5.65894 57.8378C4.37599 57.0846 3.33682 56.243 2.54132 55.3464C-0.849808 59.1793 0.184052 63.9969 5.65634 67.2054L60.189 99.1956C66.9716 103.172 78.0062 103.172 84.8299 99.1956L139.716 67.2054C145.253 63.9767 146.324 59.1262 142.915 55.2839Z"
        fill="url(#paint2_linear_744_26087)" />
    <g style="mix-blend-mode:color-burn">
        <path fill-rule="evenodd" clip-rule="evenodd"
            d="M142.915 55.2841C142.103 56.2019 141.038 57.0633 139.719 57.8326L84.8324 89.8228C78.0037 93.7996 66.9691 93.7996 60.1865 89.8228L5.65894 57.8378C4.37605 57.0846 3.33691 56.2431 2.54143 55.3465C-0.849838 59.1795 0.18399 63.9971 5.65634 67.2057L60.189 99.1959C66.9716 103.173 78.0062 103.173 84.8299 99.1959L139.716 67.2057C145.253 63.9769 146.324 59.1264 142.915 55.2841Z"
            fill="url(#paint3_linear_744_26087)" />
    </g>
    <path
        d="M93.6918 54.4586C92.6812 55.0371 91.6377 55.5552 90.5668 56.01C90.3419 56.1331 90.0901 56.1976 89.8343 56.1976C89.5784 56.1976 89.3266 56.1331 89.1017 56.01C82.927 53.1657 76.7369 50.3353 70.5314 47.5186C68.5386 46.6239 66.5663 45.7086 64.6043 44.7932C60.5368 42.9057 56.4692 41.0181 52.2173 39.2702C47.9516 37.4653 43.2985 36.7958 38.7032 37.3258C37.4193 37.4647 36.1515 37.7279 34.9174 38.1118C34.6888 38.1992 34.4446 38.2379 34.2004 38.2254C33.9562 38.213 33.7172 38.1496 33.4984 38.0394L32.7505 37.6929C31.7585 37.2055 30.7309 36.7957 29.6768 36.4673C26.849 35.6606 24.0416 35.9088 21.9925 37.1189C21.7014 37.2887 21.4224 37.4787 21.1575 37.6878C19.3645 39.1151 19.6872 41.0285 21.9771 42.4713C22.7558 42.9884 23.5703 43.4332 24.4054 43.8934C24.7845 44.1055 24.9176 44.2865 24.682 44.5916C22.0591 48.2994 23.7445 51.5367 28.268 54.2362C36.8573 59.3455 45.4893 64.4273 54.1639 69.4814C58.8052 72.2016 63.4448 74.9235 68.0827 77.6471C68.2614 77.785 68.4801 77.8598 68.7051 77.8598C68.9301 77.8598 69.1488 77.785 69.3276 77.6471L69.4249 77.5902C70.6492 76.8662 71.8685 76.1422 73.1031 75.4285C74.2028 74.7838 75.3145 74.146 76.4381 73.5151L76.4944 73.4789C77.0835 73.1376 76.976 72.9618 76.4176 72.6308C67.7634 67.5801 59.1331 62.5225 50.5267 57.458L45.8649 54.7223C40.0386 51.2989 34.1985 47.8806 28.3448 44.4675C27.6328 44.0537 27.6686 43.7848 28.1809 43.3608C29.1231 42.5821 30.131 41.8882 31.1931 41.287C31.8284 40.9147 32.4943 40.5631 33.191 40.2528C33.422 40.1119 33.6856 40.0348 33.9553 40.0294C34.2251 40.0239 34.4916 40.0903 34.7279 40.2217C40.1034 42.6557 45.4893 45.0794 50.8853 47.4927H50.9161L55.4805 49.5613C57.1045 50.2904 58.7233 51.0299 60.3421 51.7643C64.2047 53.5225 68.0673 55.2808 72.0068 56.9719C77.3886 59.3309 83.4223 59.6971 89.0454 58.0061C89.2433 57.9374 89.4535 57.912 89.662 57.9317C89.8704 57.9513 90.0724 58.0154 90.2544 58.1199C91.2072 58.5698 92.1805 59.0094 93.1488 59.449L94.2143 59.9299C95.4815 60.4932 96.8596 60.7562 98.243 60.6989C99.6265 60.6415 100.979 60.2652 102.196 59.5989C104.665 58.1613 105.003 56.2634 103.046 54.7637C102.022 53.9621 100.956 53.1709 99.8802 52.39C99.6138 52.1935 99.5165 52.0435 99.7367 51.7953C103.154 47.9271 101.596 44.4364 97.3444 41.1785C89.1478 34.9245 80.9513 28.6758 72.7547 22.4322L71.8839 21.7651C71.0386 21.1186 70.1933 20.4722 69.3224 19.8361C68.9485 19.5672 69.0099 19.4017 69.348 19.1483C69.9807 18.6859 70.6374 18.2578 71.3152 17.8658C72.4866 17.1872 73.7057 16.5961 74.9627 16.0972C75.2595 15.9374 75.5939 15.8625 75.9298 15.8808C76.2657 15.899 76.5903 16.0096 76.8684 16.2007C83.1422 19.9137 89.4415 23.6181 95.7665 27.314L100.889 30.303L106.012 33.3128C112.286 37.0155 118.551 40.7079 124.808 44.3899C125.032 44.5786 125.312 44.6858 125.604 44.6943C125.896 44.7027 126.182 44.6119 126.416 44.4364L126.478 44.3899C127.55 43.7383 128.633 43.0953 129.726 42.461C130.966 41.737 132.221 41.0233 133.476 40.3045C133.988 40.0201 133.988 39.8597 133.476 39.565C129.097 37.0069 124.716 34.4401 120.331 31.8648C111.417 26.6176 102.471 21.3858 93.492 16.1696C88.9275 13.5322 83.3949 12.5497 77.0989 14.0649C76.9003 14.1312 76.6895 14.1516 76.4821 14.1248C76.2746 14.0979 76.0758 14.0244 75.9002 13.9097C74.9985 13.3667 74.102 12.8134 73.1236 12.3118C71.8968 11.7141 70.5606 11.3794 69.1993 11.3286C67.838 11.2779 66.4811 11.5123 65.2139 12.017C64.8963 12.1618 64.6043 12.3066 64.3379 12.4617C62.2888 13.6512 61.8021 15.2129 63.006 16.7747C63.6094 17.4717 64.2979 18.0885 65.0551 18.6105C65.342 18.8277 65.6237 19.0449 65.8953 19.2621C66.1668 19.4793 66.3256 19.6396 66.0797 19.9137C63.0931 23.2803 64.0971 26.4917 67.2426 29.5945C68.7775 31.0192 70.4088 32.3341 72.1246 33.53C72.7496 33.9902 73.3746 34.4453 73.9893 34.9107C81.4209 40.5406 88.878 46.1637 96.3608 51.7798C96.7962 52.1056 96.8167 52.2969 96.3915 52.6382C95.5303 53.3041 94.6267 53.9121 93.6867 54.4586M5.74796 34.9728L60.6341 2.9826C67.4628 -0.994199 78.4974 -0.994199 85.2801 2.9826L139.797 34.9728C146.58 38.9548 146.549 45.4035 139.721 49.3854L84.8344 81.3756C78.0056 85.3524 66.971 85.3524 60.1884 81.3756L5.66087 49.3906C-1.12177 45.4086 -1.09103 38.9548 5.73772 34.978"
        fill="url(#paint4_linear_744_26087)" />
    <g style="mix-blend-mode:color-burn">
        <path
            d="M93.6918 54.4586C92.6812 55.0371 91.6377 55.5552 90.5668 56.01C90.3419 56.1331 90.0901 56.1976 89.8343 56.1976C89.5784 56.1976 89.3266 56.1331 89.1017 56.01C82.927 53.1657 76.7369 50.3353 70.5314 47.5186C68.5386 46.6239 66.5663 45.7086 64.6043 44.7932C60.5368 42.9057 56.4692 41.0181 52.2173 39.2702C47.9516 37.4653 43.2985 36.7958 38.7032 37.3258C37.4193 37.4647 36.1515 37.7279 34.9174 38.1118C34.6888 38.1992 34.4446 38.2379 34.2004 38.2254C33.9562 38.213 33.7172 38.1496 33.4984 38.0394L32.7505 37.6929C31.7585 37.2055 30.7309 36.7957 29.6768 36.4673C26.849 35.6606 24.0416 35.9088 21.9925 37.1189C21.7014 37.2887 21.4224 37.4787 21.1575 37.6878C19.3645 39.1151 19.6872 41.0285 21.9771 42.4713C22.7558 42.9884 23.5703 43.4332 24.4054 43.8934C24.7845 44.1055 24.9176 44.2865 24.682 44.5916C22.0591 48.2994 23.7445 51.5367 28.268 54.2362C36.8573 59.3455 45.4893 64.4273 54.1639 69.4814C58.8052 72.2016 63.4448 74.9235 68.0827 77.6471C68.2614 77.785 68.4801 77.8598 68.7051 77.8598C68.9301 77.8598 69.1488 77.785 69.3276 77.6471L69.4249 77.5902C70.6492 76.8662 71.8685 76.1422 73.1031 75.4285C74.2028 74.7838 75.3145 74.146 76.4381 73.5151L76.4944 73.4789C77.0835 73.1376 76.976 72.9618 76.4176 72.6308C67.7634 67.5801 59.1331 62.5225 50.5267 57.458L45.8649 54.7223C40.0386 51.2989 34.1985 47.8806 28.3448 44.4675C27.6328 44.0537 27.6686 43.7848 28.1809 43.3608C29.1231 42.5821 30.131 41.8882 31.1931 41.287C31.8284 40.9147 32.4943 40.5631 33.191 40.2528C33.422 40.1119 33.6856 40.0348 33.9553 40.0294C34.2251 40.0239 34.4916 40.0903 34.7279 40.2217C40.1034 42.6557 45.4893 45.0794 50.8853 47.4927H50.9161L55.4805 49.5613C57.1045 50.2904 58.7233 51.0299 60.3421 51.7643C64.2047 53.5225 68.0673 55.2808 72.0068 56.9719C77.3886 59.3309 83.4223 59.6971 89.0454 58.0061C89.2433 57.9374 89.4535 57.912 89.662 57.9317C89.8704 57.9513 90.0724 58.0154 90.2544 58.1199C91.2072 58.5698 92.1805 59.0094 93.1488 59.449L94.2143 59.9299C95.4815 60.4932 96.8596 60.7562 98.243 60.6989C99.6265 60.6415 100.979 60.2652 102.196 59.5989C104.665 58.1613 105.003 56.2634 103.046 54.7637C102.022 53.9621 100.956 53.1709 99.8802 52.39C99.6138 52.1935 99.5165 52.0435 99.7367 51.7953C103.154 47.9271 101.596 44.4364 97.3444 41.1785C89.1478 34.9245 80.9513 28.6758 72.7547 22.4322L71.8839 21.7651C71.0386 21.1186 70.1933 20.4722 69.3224 19.8361C68.9485 19.5672 69.0099 19.4017 69.348 19.1483C69.9807 18.6859 70.6374 18.2578 71.3152 17.8658C72.4866 17.1872 73.7057 16.5961 74.9627 16.0972C75.2595 15.9374 75.5939 15.8625 75.9298 15.8808C76.2657 15.899 76.5903 16.0096 76.8684 16.2007C83.1422 19.9137 89.4415 23.6181 95.7665 27.314L100.889 30.303L106.012 33.3128C112.286 37.0155 118.551 40.7079 124.808 44.3899C125.032 44.5786 125.312 44.6858 125.604 44.6943C125.896 44.7027 126.182 44.6119 126.416 44.4364L126.478 44.3899C127.55 43.7383 128.633 43.0953 129.726 42.461C130.966 41.737 132.221 41.0233 133.476 40.3045C133.988 40.0201 133.988 39.8597 133.476 39.565C129.097 37.0069 124.716 34.4401 120.331 31.8648C111.417 26.6176 102.471 21.3858 93.492 16.1696C88.9275 13.5322 83.3949 12.5497 77.0989 14.0649C76.9003 14.1312 76.6895 14.1516 76.4821 14.1248C76.2746 14.0979 76.0758 14.0244 75.9002 13.9097C74.9985 13.3667 74.102 12.8134 73.1236 12.3118C71.8968 11.7141 70.5606 11.3794 69.1993 11.3286C67.838 11.2779 66.4811 11.5123 65.2139 12.017C64.8963 12.1618 64.6043 12.3066 64.3379 12.4617C62.2888 13.6512 61.8021 15.2129 63.006 16.7747C63.6094 17.4717 64.2979 18.0885 65.0551 18.6105C65.342 18.8277 65.6237 19.0449 65.8953 19.2621C66.1668 19.4793 66.3256 19.6396 66.0797 19.9137C63.0931 23.2803 64.0971 26.4917 67.2426 29.5945C68.7775 31.0192 70.4088 32.3341 72.1246 33.53C72.7496 33.9902 73.3746 34.4453 73.9893 34.9107C81.4209 40.5406 88.878 46.1637 96.3608 51.7798C96.7962 52.1056 96.8167 52.2969 96.3915 52.6382C95.5303 53.3041 94.6267 53.9121 93.6867 54.4586M5.74796 34.9728L60.6341 2.9826C67.4628 -0.994199 78.4974 -0.994199 85.2801 2.9826L139.797 34.9728C146.58 38.9548 146.549 45.4035 139.721 49.3854L84.8344 81.3756C78.0056 85.3524 66.971 85.3524 60.1884 81.3756L5.66087 49.3906C-1.12177 45.4086 -1.09103 38.9548 5.73772 34.978"
            fill="url(#paint5_linear_744_26087)" />
    </g>
    <path fill-rule="evenodd" clip-rule="evenodd"
        d="M101.486 48.6357C102.072 45.9931 100.407 43.5254 97.3444 41.1785C89.1478 34.9245 80.9513 28.6758 72.7547 22.4322L71.8839 21.7651C71.0386 21.1186 70.1933 20.4722 69.3224 19.8361C68.9485 19.5672 69.0099 19.4017 69.348 19.1483C69.9807 18.6859 70.6374 18.2578 71.3152 17.8658C72.4866 17.1872 73.7057 16.5961 74.9627 16.0972C75.2595 15.9374 75.5939 15.8625 75.9298 15.8808C76.2657 15.899 76.5903 16.0096 76.8684 16.2007C83.1422 19.9137 89.4415 23.6181 95.7665 27.314L100.889 30.303L106.012 33.3128C112.286 37.0155 118.551 40.7079 124.808 44.3899C125.032 44.5786 125.312 44.6858 125.604 44.6943C125.896 44.7027 126.182 44.6119 126.416 44.4364L126.478 44.3899C127.55 43.7383 128.633 43.0953 129.726 42.461C130.702 41.891 131.687 41.3275 132.675 40.7628C132.942 40.6102 133.209 40.4575 133.476 40.3045C133.988 40.0201 133.988 39.8597 133.476 39.565C129.097 37.0069 124.716 34.4401 120.331 31.8648C111.417 26.6176 102.471 21.3858 93.492 16.1696C88.9275 13.5322 83.3949 12.5497 77.0989 14.0649C76.9003 14.1312 76.6895 14.1516 76.4821 14.1248C76.2746 14.0979 76.0758 14.0244 75.9002 13.9097C75.7945 13.8461 75.6889 13.7823 75.5833 13.7185C74.7873 13.2378 73.9874 12.7546 73.1236 12.3118C71.8968 11.7141 70.5606 11.3794 69.1993 11.3286C67.838 11.2779 66.4811 11.5123 65.2139 12.017C64.8963 12.1618 64.6043 12.3066 64.3379 12.4617C62.2888 13.6512 61.8021 15.2129 63.006 16.7747C63.6094 17.4717 64.2979 18.0885 65.0551 18.6105C65.342 18.8277 65.6237 19.0449 65.8953 19.2621C66.1668 19.4793 66.3256 19.6396 66.0797 19.9137C63.0931 23.2803 64.0971 26.4917 67.2426 29.5945C68.7775 31.0192 70.4088 32.3341 72.1246 33.53C72.2647 33.6332 72.4048 33.7361 72.5448 33.8389C73.0293 34.1948 73.5124 34.5496 73.9893 34.9107C74.6338 35.399 75.2785 35.8872 75.9234 36.3753C70.5421 35.8413 64.803 36.7802 60.6325 39.1919L56.9768 41.3077C55.41 40.6136 53.8269 39.9319 52.2173 39.2702C47.9516 37.4653 43.2985 36.7958 38.7032 37.3258C37.4193 37.4647 36.1515 37.7279 34.9174 38.1118C34.6888 38.1992 34.4446 38.2379 34.2004 38.2254C33.9562 38.213 33.7172 38.1496 33.4984 38.0394L32.7505 37.6929C31.7585 37.2055 30.7309 36.7957 29.6768 36.4673C26.849 35.6606 24.0416 35.9088 21.9925 37.1189C21.7014 37.2887 21.4224 37.4787 21.1575 37.6878C19.3645 39.1151 19.6872 41.0285 21.9771 42.4713C22.7217 42.9658 23.499 43.3941 24.2957 43.833L24.4054 43.8934C24.7845 44.1055 24.9176 44.2865 24.682 44.5916C22.0591 48.2994 23.7445 51.5367 28.268 54.2362C29.3153 54.8592 30.3633 55.4818 31.4119 56.104L24.2109 60.2718L5.66087 49.3906C-1.12177 45.4086 -1.09103 38.9548 5.73772 34.978L5.74796 34.9728L60.6341 2.9826C67.4628 -0.994199 78.4974 -0.994199 85.2801 2.9826L139.797 34.9728C146.58 38.9548 146.549 45.4035 139.721 49.3854L121.249 60.1514L101.486 48.6357ZM48.2945 46.3328L39.8736 51.2066C36.0366 48.958 32.1937 46.7116 28.3448 44.4675C27.6328 44.0537 27.6686 43.7848 28.1809 43.3608C29.1231 42.5821 30.131 41.8882 31.1931 41.287C31.8284 40.9147 32.4943 40.5631 33.191 40.2528C33.422 40.1119 33.6856 40.0348 33.9553 40.0294C34.2251 40.0239 34.4916 40.0903 34.7279 40.2217C39.2429 42.2661 43.765 44.3031 48.2945 46.3328Z"
        fill="url(#paint6_linear_744_26087)" />
    <path
        d="M21.9686 37.1494C24.0177 35.9393 26.8455 35.691 29.6529 36.4978C30.707 36.8262 31.7346 37.2359 32.7266 37.7234L33.4745 38.0699C33.6933 38.1801 33.9323 38.2434 34.1765 38.2559C34.4207 38.2683 34.6648 38.2297 34.8935 38.1423C36.1276 37.7584 37.3953 37.4952 38.6793 37.3562C43.2746 36.8262 47.9277 37.4957 52.1934 39.3007C56.4453 41.0486 60.5129 42.9206 64.5804 44.8237C66.5424 45.739 68.5147 46.6544 70.5075 47.549C76.7096 50.3657 82.8997 53.1962 89.0778 56.0404C89.3027 56.1636 89.5545 56.228 89.8104 56.228C90.0662 56.228 90.318 56.1636 90.543 56.0404C91.6138 55.5856 92.6573 55.0676 93.6679 54.489C94.608 53.9426 95.5115 53.3345 96.3728 52.6687C96.798 52.3377 96.7775 52.1516 96.342 51.8102C88.8661 46.1734 81.4141 40.5384 73.9859 34.905C73.3712 34.4396 72.7462 33.9845 72.1212 33.5242C70.4002 32.3306 68.7638 31.0174 67.2238 29.594C64.0784 26.4911 63.0743 23.2797 66.0609 19.9131C66.3068 19.6391 66.1531 19.4787 65.8765 19.2615C65.5999 19.0444 65.3232 18.8272 65.0363 18.61C64.2791 18.088 63.5906 17.4711 62.9872 16.7741C61.7833 15.2227 62.2802 13.6713 64.3191 12.4612C64.5855 12.306 64.8775 12.1612 65.1951 12.0164C66.4623 11.5117 67.8192 11.2773 69.1805 11.3281C70.5418 11.3788 71.878 11.7135 73.1048 12.3112C74.0833 12.8283 74.9798 13.3455 75.8814 13.9092C76.057 14.0239 76.2558 14.0973 76.4633 14.1242C76.6708 14.151 76.8815 14.1306 77.0801 14.0643C83.3761 12.5543 88.9088 13.5472 93.4732 16.1691C102.496 21.3715 111.448 26.6032 120.327 31.8642C124.716 34.4361 129.101 37.0063 133.483 39.5748C133.995 39.8695 133.959 40.0298 133.483 40.3143C132.228 41.0331 130.972 41.7467 129.733 42.4707C128.63 43.1085 127.544 43.7481 126.475 44.3893L126.413 44.4255C126.18 44.6024 125.894 44.695 125.603 44.6885C125.311 44.6819 125.03 44.5765 124.805 44.3893C118.555 40.7038 112.291 37.0235 106.014 33.3484L100.891 30.3387L95.7683 27.3496C89.4569 23.6538 83.1575 19.9493 76.8701 16.2363C76.592 16.0452 76.2674 15.9346 75.9315 15.9164C75.5956 15.8982 75.2612 15.973 74.9644 16.1329C73.7074 16.6317 72.4884 17.2228 71.3169 17.9015C70.6391 18.2934 69.9825 18.7215 69.3498 19.184C69.0117 19.4374 68.9502 19.6029 69.3242 19.8718C70.1899 20.5079 71.0352 21.1543 71.8856 21.8007L72.7565 22.4678C80.953 28.7114 89.1495 34.9602 97.3461 41.2141C101.598 44.4721 103.155 47.9369 99.7385 51.8309C99.5182 52.0792 99.6155 52.2291 99.8819 52.4256C100.958 53.2065 102.008 53.9771 103.048 54.7993C105.005 56.299 104.667 58.1969 102.197 59.6346C100.98 60.3009 99.6282 60.6771 98.2448 60.7345C96.8613 60.7919 95.4832 60.5288 94.216 59.9655L93.1505 59.4846C92.1823 59.045 91.2089 58.6054 90.2561 58.1555C90.0741 58.0511 89.8722 57.9869 89.6637 57.9673C89.4553 57.9477 89.2451 57.9731 89.0471 58.0418C83.4241 59.7328 77.3903 59.3665 72.0085 57.0075C68.069 55.3164 64.2064 53.5582 60.3438 51.7999C58.725 51.0656 57.1062 50.3261 55.4822 49.5969L50.9178 47.5283H50.887C45.4978 45.115 40.1188 42.6776 34.7501 40.216C34.5138 40.0845 34.2473 40.0182 33.9775 40.0236C33.7078 40.0291 33.4442 40.1061 33.2132 40.247C32.5165 40.5728 31.8506 40.9245 31.2153 41.2813C30.1294 41.9008 29.1007 42.6173 28.1416 43.4223C27.6293 43.8463 27.5935 44.1152 28.3055 44.5289C34.1661 47.9386 40.0061 51.3569 45.8257 54.7838L50.4875 57.5195C59.1007 62.584 67.7309 67.6416 76.3783 72.6923C76.9367 73.0233 77.0443 73.2094 76.4551 73.5404L76.3988 73.5766C75.2786 74.2075 74.167 74.8453 73.0638 75.49C71.8292 76.2037 70.61 76.9277 69.3856 77.6517L69.2883 77.7085C69.1096 77.8465 68.8908 77.9213 68.6659 77.9213C68.4409 77.9213 68.2222 77.8465 68.0434 77.7085C63.4124 74.985 58.7728 72.2631 54.1247 69.5429C45.4671 64.475 36.8351 59.3932 28.2287 54.2977C23.6899 51.5982 22.0045 48.3609 24.6427 44.6531C24.8579 44.3479 24.7452 44.1669 24.3661 43.9549C23.5311 43.4947 22.7165 43.0241 21.9379 42.5328C19.648 41.09 19.3252 39.1766 21.1182 37.7493C21.3871 37.529 21.6712 37.3285 21.9686 37.1494Z"
        fill="white" />
    <defs>
        <linearGradient id="paint0_linear_744_26087" x1="144.861" y1="78.7983" x2="0.592957"
            y2="78.7983" gradientUnits="userSpaceOnUse">
            <stop stop-color="#AE9AEE" />
            <stop offset="1" stop-color="#FFC5C2" />
        </linearGradient>
        <linearGradient id="paint1_linear_744_26087" x1="144.861" y1="78.7983" x2="0.592957"
            y2="78.7983" gradientUnits="userSpaceOnUse">
            <stop stop-color="#AE9AEE" />
            <stop offset="1" stop-color="#FFC5C2" />
        </linearGradient>
        <linearGradient id="paint2_linear_744_26087" x1="144.861" y1="60.9736" x2="0.592957"
            y2="60.9736" gradientUnits="userSpaceOnUse">
            <stop stop-color="#AE9AEE" />
            <stop offset="1" stop-color="#FFC5C2" />
        </linearGradient>
        <linearGradient id="paint3_linear_744_26087" x1="144.861" y1="60.9738" x2="0.592957"
            y2="60.9738" gradientUnits="userSpaceOnUse">
            <stop stop-color="#AE9AEE" />
            <stop offset="1" stop-color="#FFC5C2" />
        </linearGradient>
        <linearGradient id="paint4_linear_744_26087" x1="144.863" y1="42.1791" x2="0.594955"
            y2="42.1791" gradientUnits="userSpaceOnUse">
            <stop stop-color="#AE9AEE" />
            <stop offset="1" stop-color="#FFC5C2" />
        </linearGradient>
        <linearGradient id="paint5_linear_744_26087" x1="144.863" y1="42.1791" x2="0.594955"
            y2="42.1791" gradientUnits="userSpaceOnUse">
            <stop stop-color="#AE9AEE" />
            <stop offset="1" stop-color="#FFC5C2" />
        </linearGradient>
        <linearGradient id="paint6_linear_744_26087" x1="144.863" y1="30.1359" x2="0.59494"
            y2="30.1359" gradientUnits="userSpaceOnUse">
            <stop stop-color="#AE9AEE" />
            <stop offset="1" stop-color="#FFC5C2" />
        </linearGradient>
    </defs>
</svg>
    