<svg width="220" height="200" viewBox="0 0 220 200" fill="none" xmlns="http://www.w3.org/2000/svg">
    <rect width="220" height="200" fill="#F7F7FA" />
    <path fill-rule="evenodd" clip-rule="evenodd"
        d="M172.016 111.725C171.297 112.537 170.354 113.299 169.186 113.98L120.588 142.303C114.542 145.824 104.771 145.824 98.7658 142.303L50.4854 113.985C49.3493 113.318 48.429 112.572 47.7246 111.778C44.7207 115.172 45.6358 119.438 50.4817 122.279L98.7667 150.602C104.772 154.123 114.543 154.123 120.584 150.602L169.182 122.279C174.085 119.421 175.033 115.126 172.016 111.725Z"
        fill="url(#paint0_linear_1466_31432)" />
    <g style="mix-blend-mode:color-burn">
        <path fill-rule="evenodd" clip-rule="evenodd"
            d="M172.016 111.725C171.297 112.537 170.354 113.299 169.186 113.98L120.588 142.303C114.542 145.824 104.771 145.824 98.7658 142.303L50.4854 113.985C49.3493 113.318 48.429 112.572 47.7246 111.778C44.7207 115.172 45.6358 119.438 50.4817 122.279L98.7667 150.602C104.772 154.123 114.543 154.123 120.584 150.602L169.182 122.279C174.085 119.421 175.033 115.126 172.016 111.725Z"
            fill="url(#paint1_linear_1466_31432)" />
    </g>
    <path fill-rule="evenodd" clip-rule="evenodd"
        d="M172.015 95.9464C171.296 96.759 170.353 97.5217 169.185 98.2029L120.587 126.526C114.54 130.047 104.77 130.047 98.7644 126.526L50.484 98.2074C49.3481 97.5406 48.4279 96.7955 47.7236 96.0017C44.7209 99.3952 45.6364 103.66 50.4817 106.501L98.7667 134.824C104.772 138.345 114.543 138.345 120.584 134.824L169.182 106.501C174.085 103.643 175.033 99.3482 172.015 95.9464Z"
        fill="url(#paint2_linear_1466_31432)" />
    <g style="mix-blend-mode:color-burn">
        <path fill-rule="evenodd" clip-rule="evenodd"
            d="M172.015 95.9465C171.296 96.7591 170.353 97.5218 169.185 98.2029L120.587 126.526C114.54 130.047 104.77 130.047 98.7644 126.526L50.484 98.2074C49.3481 97.5406 48.428 96.7955 47.7237 96.0018C44.7209 99.3953 45.6363 103.661 50.4817 106.501L98.7667 134.824C104.772 138.345 114.543 138.345 120.584 134.824L169.182 106.501C174.085 103.643 175.033 99.3483 172.015 95.9465Z"
            fill="url(#paint3_linear_1466_31432)" />
    </g>
    <path
        d="M128.431 95.2154C127.537 95.7276 126.613 96.1863 125.664 96.5889C125.465 96.6979 125.242 96.755 125.016 96.755C124.789 96.755 124.566 96.6979 124.367 96.5889C118.9 94.0707 113.419 91.5648 107.924 89.071C106.16 88.2789 104.414 87.4685 102.676 86.6581C99.0748 84.9869 95.4733 83.3158 91.7085 81.7682C87.9316 80.1702 83.8115 79.5774 79.7427 80.0467C78.6058 80.1697 77.4833 80.4028 76.3906 80.7426C76.1882 80.82 75.972 80.8543 75.7558 80.8432C75.5395 80.8322 75.3279 80.7761 75.1342 80.6785L74.4719 80.3718C73.5937 79.9402 72.6838 79.5774 71.7504 79.2867C69.2466 78.5724 66.7609 78.7922 64.9465 79.8636C64.6887 80.0139 64.4417 80.1821 64.2071 80.3672C62.6196 81.6309 62.9053 83.3249 64.9329 84.6023C65.6223 85.0602 66.3436 85.4539 67.0829 85.8614C67.4186 86.0492 67.5365 86.2094 67.3279 86.4795C65.0055 89.7623 66.4978 92.6285 70.503 95.0185C78.1082 99.5421 85.7513 104.041 93.4321 108.516C97.5417 110.924 101.65 113.334 105.756 115.746C105.914 115.868 106.108 115.934 106.307 115.934C106.507 115.934 106.7 115.868 106.858 115.746L106.945 115.695C108.029 115.054 109.108 114.413 110.201 113.781C111.175 113.211 112.159 112.646 113.154 112.087L113.204 112.055C113.726 111.753 113.631 111.597 113.136 111.304C105.473 106.833 97.832 102.355 90.2116 97.8709L86.0839 95.4489C80.9251 92.4179 75.7541 89.3915 70.571 86.3697C69.9406 86.0034 69.9723 85.7653 70.4259 85.3899C71.2601 84.7005 72.1526 84.0861 73.093 83.5539C73.6555 83.2242 74.2451 82.9129 74.862 82.6382C75.0665 82.5134 75.2999 82.4452 75.5388 82.4404C75.7776 82.4355 76.0136 82.4943 76.2228 82.6107C80.9825 84.7656 85.7513 86.9114 90.5291 89.0481H90.5563L94.5979 90.8795C96.0357 91.5251 97.4691 92.1798 98.9025 92.83C102.323 94.3867 105.743 95.9434 109.231 97.4405C113.996 99.5291 119.338 99.8534 124.317 98.3563C124.493 98.2954 124.679 98.2729 124.863 98.2903C125.048 98.3077 125.227 98.3645 125.388 98.457C126.231 98.8553 127.093 99.2445 127.951 99.6337L128.894 100.059C130.016 100.558 131.236 100.791 132.461 100.74C133.686 100.689 134.883 100.356 135.961 99.7664C138.147 98.4936 138.447 96.8133 136.714 95.4855C135.807 94.7758 134.863 94.0753 133.911 93.384C133.675 93.21 133.589 93.0772 133.784 92.8574C136.809 89.4327 135.43 86.3422 131.665 83.4577C124.408 77.9207 117.15 72.3883 109.893 66.8605L109.122 66.2699C108.373 65.6976 107.625 65.1253 106.854 64.5621C106.523 64.324 106.577 64.1775 106.877 63.9532C107.437 63.5437 108.018 63.1647 108.618 62.8177C109.656 62.2169 110.735 61.6935 111.848 61.2518C112.111 61.1103 112.407 61.044 112.704 61.0602C113.002 61.0763 113.289 61.1743 113.535 61.3434C119.09 64.6308 124.668 67.9105 130.268 71.1827L134.804 73.8291L139.34 76.4938C144.895 79.772 150.443 83.0411 155.983 86.301C156.181 86.4681 156.429 86.563 156.688 86.5705C156.946 86.5779 157.199 86.4975 157.407 86.3422L157.461 86.301C158.411 85.7241 159.369 85.1548 160.337 84.5932C161.435 83.9522 162.546 83.3204 163.657 82.6839C164.111 82.4321 164.111 82.2902 163.657 82.0292C159.781 79.7644 155.901 77.4919 152.018 75.2118C144.126 70.5661 136.204 65.9341 128.254 61.3159C124.213 58.9809 119.314 58.111 113.739 59.4525C113.564 59.5111 113.377 59.5293 113.193 59.5055C113.01 59.4817 112.834 59.4167 112.678 59.3151C111.88 58.8344 111.086 58.3445 110.22 57.9003C109.133 57.3712 107.95 57.0748 106.745 57.0299C105.54 56.985 104.338 57.1925 103.216 57.6394C102.935 57.7676 102.676 57.8958 102.44 58.0331C100.626 59.0862 100.195 60.4689 101.261 61.8516C101.795 62.4687 102.405 63.0148 103.076 63.477C103.33 63.6693 103.579 63.8616 103.819 64.0539C104.06 64.2462 104.2 64.3881 103.983 64.6308C101.338 67.6114 102.227 70.4547 105.012 73.2018C106.371 74.4631 107.816 75.6273 109.335 76.6861C109.888 77.0935 110.442 77.4965 110.986 77.9085C117.566 82.893 124.169 87.8714 130.795 92.8437C131.18 93.1321 131.198 93.3016 130.822 93.6037C130.059 94.1932 129.259 94.7316 128.427 95.2154M50.563 77.9635L99.161 49.6407C105.207 46.1198 114.978 46.1198 120.983 49.6407L169.255 77.9635C175.26 81.4889 175.233 87.1984 169.187 90.7238L120.589 119.047C114.542 122.568 104.772 122.568 98.7664 119.047L50.4859 90.7284C44.4804 87.2029 44.5076 81.4889 50.554 77.9681"
        fill="url(#paint4_linear_1466_31432)" />
    <g style="mix-blend-mode:color-burn">
        <path
            d="M128.431 95.2154C127.537 95.7276 126.613 96.1863 125.664 96.5889C125.465 96.6979 125.242 96.755 125.016 96.755C124.789 96.755 124.566 96.6979 124.367 96.5889C118.9 94.0707 113.419 91.5648 107.924 89.071C106.16 88.2789 104.414 87.4685 102.676 86.6581C99.0748 84.9869 95.4733 83.3158 91.7085 81.7682C87.9316 80.1702 83.8115 79.5774 79.7427 80.0467C78.6058 80.1697 77.4833 80.4028 76.3906 80.7426C76.1882 80.82 75.972 80.8543 75.7558 80.8432C75.5395 80.8322 75.3279 80.7761 75.1342 80.6785L74.4719 80.3718C73.5937 79.9402 72.6838 79.5774 71.7504 79.2867C69.2466 78.5724 66.7609 78.7922 64.9465 79.8636C64.6887 80.0139 64.4417 80.1821 64.2071 80.3672C62.6196 81.6309 62.9053 83.3249 64.9329 84.6023C65.6223 85.0602 66.3436 85.4539 67.0829 85.8614C67.4186 86.0492 67.5365 86.2094 67.3279 86.4795C65.0055 89.7623 66.4978 92.6285 70.503 95.0185C78.1082 99.5421 85.7513 104.041 93.4321 108.516C97.5417 110.924 101.65 113.334 105.756 115.746C105.914 115.868 106.108 115.934 106.307 115.934C106.507 115.934 106.7 115.868 106.858 115.746L106.945 115.695C108.029 115.054 109.108 114.413 110.201 113.781C111.175 113.211 112.159 112.646 113.154 112.087L113.204 112.055C113.726 111.753 113.631 111.597 113.136 111.304C105.473 106.833 97.832 102.355 90.2116 97.8709L86.0839 95.4489C80.9251 92.4179 75.7541 89.3915 70.571 86.3697C69.9406 86.0034 69.9723 85.7653 70.4259 85.3899C71.2601 84.7005 72.1526 84.0861 73.093 83.5539C73.6555 83.2242 74.2451 82.9129 74.862 82.6382C75.0665 82.5134 75.2999 82.4452 75.5388 82.4404C75.7776 82.4355 76.0136 82.4943 76.2228 82.6107C80.9825 84.7656 85.7513 86.9114 90.5291 89.0481H90.5563L94.5979 90.8795C96.0357 91.5251 97.4691 92.1798 98.9025 92.83C102.323 94.3867 105.743 95.9434 109.231 97.4405C113.996 99.5291 119.338 99.8534 124.317 98.3563C124.493 98.2954 124.679 98.2729 124.863 98.2903C125.048 98.3077 125.227 98.3645 125.388 98.457C126.231 98.8553 127.093 99.2445 127.951 99.6337L128.894 100.059C130.016 100.558 131.236 100.791 132.461 100.74C133.686 100.689 134.883 100.356 135.961 99.7664C138.147 98.4936 138.447 96.8133 136.714 95.4855C135.807 94.7758 134.863 94.0753 133.911 93.384C133.675 93.21 133.589 93.0772 133.784 92.8574C136.809 89.4327 135.43 86.3422 131.665 83.4577C124.408 77.9207 117.15 72.3883 109.893 66.8605L109.122 66.2699C108.373 65.6976 107.625 65.1253 106.854 64.5621C106.523 64.324 106.577 64.1775 106.877 63.9532C107.437 63.5437 108.018 63.1647 108.618 62.8177C109.656 62.2169 110.735 61.6935 111.848 61.2518C112.111 61.1103 112.407 61.044 112.704 61.0602C113.002 61.0763 113.289 61.1743 113.535 61.3434C119.09 64.6308 124.668 67.9105 130.268 71.1827L134.804 73.8291L139.34 76.4938C144.895 79.772 150.443 83.0411 155.983 86.301C156.181 86.4681 156.429 86.563 156.688 86.5705C156.946 86.5779 157.199 86.4975 157.407 86.3422L157.461 86.301C158.411 85.7241 159.369 85.1548 160.337 84.5932C161.435 83.9522 162.546 83.3204 163.657 82.6839C164.111 82.4321 164.111 82.2902 163.657 82.0292C159.781 79.7644 155.901 77.4919 152.018 75.2118C144.126 70.5661 136.204 65.9341 128.254 61.3159C124.213 58.9809 119.314 58.111 113.739 59.4525C113.564 59.5111 113.377 59.5293 113.193 59.5055C113.01 59.4817 112.834 59.4167 112.678 59.3151C111.88 58.8344 111.086 58.3445 110.22 57.9003C109.133 57.3712 107.95 57.0748 106.745 57.0299C105.54 56.985 104.338 57.1925 103.216 57.6394C102.935 57.7676 102.676 57.8958 102.44 58.0331C100.626 59.0862 100.195 60.4689 101.261 61.8516C101.795 62.4687 102.405 63.0148 103.076 63.477C103.33 63.6693 103.579 63.8616 103.819 64.0539C104.06 64.2462 104.2 64.3881 103.983 64.6308C101.338 67.6114 102.227 70.4547 105.012 73.2018C106.371 74.4631 107.816 75.6273 109.335 76.6861C109.888 77.0935 110.442 77.4965 110.986 77.9085C117.566 82.893 124.169 87.8714 130.795 92.8437C131.18 93.1321 131.198 93.3016 130.822 93.6037C130.059 94.1932 129.259 94.7316 128.427 95.2154M50.563 77.9635L99.161 49.6407C105.207 46.1198 114.978 46.1198 120.983 49.6407L169.255 77.9635C175.26 81.4889 175.233 87.1984 169.187 90.7238L120.589 119.047C114.542 122.568 104.772 122.568 98.7664 119.047L50.4859 90.7284C44.4804 87.2029 44.5076 81.4889 50.554 77.9681"
            fill="url(#paint5_linear_1466_31432)" />
    </g>
    <path fill-rule="evenodd" clip-rule="evenodd"
        d="M135.333 90.0601C135.851 87.7204 134.378 85.5356 131.665 83.4577C124.408 77.9207 117.15 72.3883 109.893 66.8605L109.122 66.2699C108.373 65.6976 107.625 65.1253 106.854 64.5621C106.523 64.324 106.577 64.1775 106.877 63.9532C107.437 63.5437 108.018 63.1647 108.618 62.8177C109.656 62.2169 110.735 61.6935 111.848 61.2518C112.111 61.1103 112.407 61.044 112.704 61.0602C113.002 61.0763 113.289 61.1743 113.535 61.3434C119.09 64.6308 124.668 67.9105 130.268 71.1827L134.804 73.8291L139.34 76.4938C144.895 79.772 150.443 83.0411 155.983 86.301C156.181 86.4681 156.429 86.563 156.688 86.5705C156.946 86.5779 157.199 86.4975 157.407 86.3422L157.461 86.301C158.411 85.7241 159.369 85.1548 160.337 84.5932C161.201 84.0885 162.074 83.5895 162.948 83.0895C163.185 82.9544 163.421 82.8193 163.657 82.6839C164.111 82.4321 164.111 82.2902 163.657 82.0292C159.781 79.7644 155.901 77.4919 152.018 75.2118C144.126 70.5661 136.204 65.9341 128.254 61.3159C124.213 58.9809 119.314 58.111 113.739 59.4525C113.564 59.5111 113.377 59.5293 113.193 59.5055C113.01 59.4817 112.834 59.4167 112.678 59.3151C112.585 59.2588 112.491 59.2023 112.397 59.1458C111.693 58.7202 110.984 58.2924 110.22 57.9003C109.133 57.3712 107.95 57.0748 106.745 57.0299C105.54 56.985 104.338 57.1925 103.216 57.6394C102.935 57.7676 102.676 57.8958 102.44 58.0331C100.626 59.0862 100.195 60.4689 101.261 61.8516C101.795 62.4687 102.405 63.0148 103.076 63.477C103.33 63.6693 103.579 63.8616 103.819 64.0539C104.06 64.2462 104.2 64.3881 103.983 64.6308C101.338 67.6114 102.227 70.4547 105.012 73.2018C106.371 74.4631 107.816 75.6273 109.335 76.6861C109.459 76.7775 109.584 76.8688 109.708 76.96C110.137 77.2749 110.564 77.589 110.986 77.9085C111.557 78.3408 112.128 78.773 112.699 79.2052C107.934 78.7324 102.852 79.5637 99.1596 81.6989L95.9228 83.5722C94.5355 82.9576 93.1337 82.3541 91.7085 81.7682C87.9316 80.1702 83.8115 79.5774 79.7427 80.0467C78.6058 80.1697 77.4833 80.4028 76.3906 80.7426C76.1882 80.82 75.972 80.8543 75.7558 80.8432C75.5395 80.8322 75.3279 80.7761 75.1342 80.6785L74.4719 80.3718C73.5937 79.9402 72.6838 79.5774 71.7504 79.2867C69.2466 78.5724 66.7609 78.7922 64.9465 79.8636C64.6887 80.0139 64.4417 80.1821 64.2071 80.3672C62.6196 81.6309 62.9053 83.3249 64.9329 84.6023C65.5921 85.0401 66.2804 85.4193 66.9858 85.8079L67.0829 85.8614C67.4186 86.0492 67.5365 86.2094 67.3279 86.4795C65.0055 89.7623 66.4978 92.6285 70.503 95.0185C71.4304 95.5701 72.3583 96.1213 73.2868 96.6722L66.9108 100.362L50.4859 90.7284C44.4804 87.2029 44.5076 81.4889 50.554 77.9681L50.563 77.9635L99.161 49.6407C105.207 46.1198 114.978 46.1198 120.983 49.6407L169.255 77.9635C175.26 81.4889 175.233 87.1984 169.187 90.7238L152.832 100.256L135.333 90.0601ZM88.2351 88.0212L80.7791 92.3362C77.3816 90.3454 73.979 88.3565 70.571 86.3697C69.9406 86.0034 69.9723 85.7653 70.4259 85.3899C71.2601 84.7005 72.1526 84.0861 73.093 83.5539C73.6555 83.2242 74.2451 82.9129 74.862 82.6382C75.0665 82.5134 75.2999 82.4452 75.5388 82.4404C75.7776 82.4355 76.0136 82.4943 76.2228 82.6107C80.2205 84.4207 84.2246 86.2242 88.2351 88.0212Z"
        fill="url(#paint6_linear_1466_31432)" />
    <path
        d="M64.9257 79.8906C66.74 78.8192 69.2439 78.5994 71.7296 79.3137C72.663 79.6044 73.5728 79.9672 74.4511 80.3988L75.1134 80.7055C75.3071 80.8031 75.5187 80.8592 75.735 80.8702C75.9512 80.8813 76.1673 80.847 76.3698 80.7696C77.4625 80.4298 78.585 80.1967 79.7219 80.0737C83.7907 79.6045 87.9107 80.1972 91.6877 81.7952C95.4525 83.3428 99.054 85.0002 102.656 86.6851C104.393 87.4955 106.139 88.3059 107.904 89.098C113.395 91.5918 118.876 94.0978 124.346 96.6159C124.545 96.7249 124.768 96.782 124.995 96.782C125.222 96.782 125.444 96.7249 125.644 96.6159C126.592 96.2133 127.516 95.7546 128.411 95.2424C129.243 94.7586 130.043 94.2202 130.806 93.6307C131.182 93.3377 131.164 93.1729 130.778 92.8707C124.159 87.8801 117.561 82.891 110.984 77.9035C110.439 77.4914 109.886 77.0885 109.332 76.681C107.809 75.6243 106.36 74.4615 104.996 73.2013C102.211 70.4542 101.322 67.6109 103.966 64.6303C104.184 64.3876 104.048 64.2457 103.803 64.0534C103.558 63.8611 103.313 63.6688 103.059 63.4765C102.389 63.0144 101.779 62.4682 101.245 61.8511C100.179 60.4776 100.619 59.104 102.424 58.0326C102.66 57.8953 102.919 57.7671 103.2 57.6389C104.322 57.192 105.523 56.9845 106.729 57.0294C107.934 57.0744 109.117 57.3707 110.203 57.8999C111.07 58.3577 111.863 58.8156 112.662 59.3146C112.817 59.4162 112.993 59.4812 113.177 59.505C113.361 59.5288 113.547 59.5107 113.723 59.452C119.298 58.1151 124.197 58.9941 128.238 61.3155C136.227 65.9215 144.153 70.5534 152.016 75.2113C155.901 77.4884 159.784 79.7639 163.664 82.0379C164.117 82.2989 164.086 82.4408 163.664 82.6926C162.552 83.329 161.441 83.9609 160.343 84.6019C159.367 85.1666 158.405 85.7328 157.459 86.3005L157.404 86.3326C157.198 86.4892 156.945 86.5712 156.687 86.5654C156.428 86.5596 156.179 86.4663 155.98 86.3005C150.446 83.0375 144.9 79.7792 139.342 76.5253L134.806 73.8606L130.27 71.2142C124.682 67.9421 119.104 64.6624 113.537 61.375C113.291 61.2058 113.004 61.1079 112.706 61.0917C112.409 61.0756 112.113 61.1419 111.85 61.2834C110.737 61.7251 109.658 62.2484 108.62 62.8493C108.02 63.1962 107.439 63.5753 106.878 63.9847C106.579 64.2091 106.525 64.3556 106.856 64.5937C107.622 65.1568 108.371 65.7292 109.124 66.3015L109.895 66.8921C117.152 72.4199 124.41 77.9523 131.667 83.4893C135.432 86.3738 136.811 89.4414 133.786 92.889C133.591 93.1088 133.677 93.2416 133.913 93.4155C134.865 94.1069 135.795 94.7891 136.716 95.5171C138.449 96.8449 138.149 98.5252 135.963 99.798C134.885 100.388 133.688 100.721 132.463 100.772C131.238 100.823 130.018 100.59 128.896 100.091L127.952 99.6652C127.095 99.2761 126.233 98.8869 125.39 98.4886C125.228 98.3961 125.05 98.3393 124.865 98.3219C124.681 98.3045 124.494 98.327 124.319 98.3878C119.34 99.885 113.998 99.5607 109.233 97.4721C105.744 95.9749 102.324 94.4182 98.9043 92.8615C97.471 92.2114 96.0376 91.5567 94.5997 90.9111L90.5582 89.0797H90.531C85.7592 86.943 80.9965 84.785 76.2428 82.6056C76.0336 82.4892 75.7977 82.4305 75.5588 82.4353C75.3199 82.4401 75.0865 82.5083 74.882 82.6331C74.2652 82.9215 73.6755 83.2329 73.113 83.5488C72.1515 84.0972 71.2407 84.7316 70.3915 85.4443C69.9379 85.8198 69.9061 86.0578 70.5366 86.4241C75.7257 89.4429 80.8967 92.4693 86.0495 95.5034L90.1772 97.9254C97.8036 102.409 105.445 106.887 113.102 111.359C113.596 111.652 113.691 111.817 113.17 112.11L113.12 112.142C112.128 112.7 111.144 113.265 110.167 113.836C109.074 114.468 107.994 115.109 106.91 115.75L106.824 115.8C106.666 115.922 106.472 115.988 106.273 115.988C106.074 115.988 105.88 115.922 105.722 115.8C101.621 113.389 97.5133 110.979 93.3977 108.57C85.732 104.084 78.0889 99.5844 70.4686 95.073C66.4497 92.683 64.9574 89.8168 67.2934 86.534C67.4839 86.2639 67.3841 86.1036 67.0485 85.9159C66.3091 85.5084 65.5879 85.0918 64.8985 84.6568C62.8709 83.3794 62.5851 81.6853 64.1727 80.4217C64.4108 80.2266 64.6624 80.0491 64.9257 79.8906Z"
        fill="white" />
    <defs>
        <linearGradient id="paint0_linear_1466_31432" x1="173.738" y1="116.764" x2="45.9984"
            y2="116.764" gradientUnits="userSpaceOnUse">
            <stop stop-color="#AE9AEE" />
            <stop offset="1" stop-color="#FFC5C2" />
        </linearGradient>
        <linearGradient id="paint1_linear_1466_31432" x1="173.738" y1="116.764" x2="45.9984"
            y2="116.764" gradientUnits="userSpaceOnUse">
            <stop stop-color="#AE9AEE" />
            <stop offset="1" stop-color="#FFC5C2" />
        </linearGradient>
        <linearGradient id="paint2_linear_1466_31432" x1="173.738" y1="100.984" x2="45.9984"
            y2="100.984" gradientUnits="userSpaceOnUse">
            <stop stop-color="#AE9AEE" />
            <stop offset="1" stop-color="#FFC5C2" />
        </linearGradient>
        <linearGradient id="paint3_linear_1466_31432" x1="173.738" y1="100.984" x2="45.9984"
            y2="100.984" gradientUnits="userSpaceOnUse">
            <stop stop-color="#AE9AEE" />
            <stop offset="1" stop-color="#FFC5C2" />
        </linearGradient>
        <linearGradient id="paint4_linear_1466_31432" x1="173.74" y1="84.3437" x2="46.0004"
            y2="84.3437" gradientUnits="userSpaceOnUse">
            <stop stop-color="#AE9AEE" />
            <stop offset="1" stop-color="#FFC5C2" />
        </linearGradient>
        <linearGradient id="paint5_linear_1466_31432" x1="173.74" y1="84.3437" x2="46.0004"
            y2="84.3437" gradientUnits="userSpaceOnUse">
            <stop stop-color="#AE9AEE" />
            <stop offset="1" stop-color="#FFC5C2" />
        </linearGradient>
        <linearGradient id="paint6_linear_1466_31432" x1="173.74" y1="73.6811" x2="46.0004"
            y2="73.6811" gradientUnits="userSpaceOnUse">
            <stop stop-color="#AE9AEE" />
            <stop offset="1" stop-color="#FFC5C2" />
        </linearGradient>
    </defs>
</svg>
    