<svg width="20" height="20" viewBox="0 0 20 20" fill="none" xmlns="http://www.w3.org/2000/svg">
    <circle cx="10" cy="10" r="10" fill="#E56767" />
    <path
        d="M11.3261 3.03636L11.1011 12.8955H8.90568L8.6875 3.03636H11.3261ZM10.0034 17.15C9.58977 17.15 9.23523 17.0045 8.93977 16.7136C8.64886 16.4227 8.50341 16.0682 8.50341 15.65C8.50341 15.2409 8.64886 14.8909 8.93977 14.6C9.23523 14.3091 9.58977 14.1636 10.0034 14.1636C10.408 14.1636 10.758 14.3091 11.0534 14.6C11.3534 14.8909 11.5034 15.2409 11.5034 15.65C11.5034 15.9273 11.433 16.1795 11.292 16.4068C11.1557 16.6341 10.9739 16.8159 10.7466 16.9523C10.5239 17.0841 10.2761 17.15 10.0034 17.15Z"
        fill="white" />
</svg>
    