<svg width="28" height="28" viewBox="0 0 28 28" fill="none" xmlns="http://www.w3.org/2000/svg">
    <path fill-rule="evenodd" clip-rule="evenodd"
        d="M6.63636 14C6.63636 9.93318 9.93318 6.63636 14 6.63636C18.0668 6.63636 21.3636 9.93318 21.3636 14C21.3636 18.0668 18.0668 21.3636 14 21.3636C9.93318 21.3636 6.63636 18.0668 6.63636 14ZM14 5C9.02944 5 5 9.02944 5 14C5 18.9706 9.02944 23 14 23C18.9706 23 23 18.9706 23 14C23 9.02944 18.9706 5 14 5ZM16.0758 18.6812L16.2255 18.0857C16.1484 18.121 16.0236 18.1618 15.8512 18.2081C15.6788 18.2544 15.5245 18.2776 15.3884 18.2776C15.098 18.2776 14.8938 18.2313 14.7759 18.1386C14.6579 18.046 14.5989 17.8718 14.5989 17.6159C14.5989 17.5145 14.6171 17.3645 14.6534 17.166C14.6897 16.9675 14.7305 16.7911 14.7759 16.6367L15.3339 14.7113C15.3884 14.5348 15.4258 14.3408 15.4462 14.129C15.4667 13.9173 15.4769 13.7695 15.4769 13.6857C15.4769 13.2799 15.3305 12.9502 15.0379 12.6965C14.7452 12.4429 14.329 12.3161 13.789 12.3161C13.4896 12.3161 13.172 12.3679 12.8362 12.4716C12.5005 12.5752 12.1488 12.6998 11.7813 12.8454L11.6316 13.4409C11.7405 13.4012 11.8709 13.3593 12.0229 13.3152C12.1749 13.2711 12.3235 13.249 12.4687 13.249C12.7636 13.249 12.9632 13.2975 13.0676 13.3946C13.172 13.4916 13.2241 13.6637 13.2241 13.9107C13.2241 14.0474 13.2071 14.1985 13.1731 14.3639C13.1391 14.5293 13.0971 14.7047 13.0472 14.8899L12.4891 16.822C12.4392 17.0249 12.4029 17.2068 12.3802 17.3678C12.3575 17.5288 12.3462 17.6865 12.3462 17.8409C12.3462 18.2379 12.497 18.5654 12.7988 18.8235C13.1005 19.0815 13.5236 19.2105 14.0681 19.2105C14.422 19.2105 14.7328 19.1653 15.0005 19.0749C15.2682 18.9845 15.6266 18.8532 16.0758 18.6812ZM15.9771 10.8638C16.238 10.6278 16.3684 10.3422 16.3684 10.0069C16.3684 9.67168 16.238 9.38496 15.9771 9.14677C15.7162 8.90857 15.402 8.78947 15.0345 8.78947C14.667 8.78947 14.3516 8.90857 14.0885 9.14677C13.8253 9.38496 13.6937 9.67168 13.6937 10.0069C13.6937 10.3422 13.8253 10.6278 14.0885 10.8638C14.3516 11.0998 14.667 11.2177 15.0345 11.2177C15.402 11.2177 15.7162 11.0998 15.9771 10.8638Z"
        fill="#949499" />
</svg>
    