<svg xmlns="http://www.w3.org/2000/svg" width="228" height="40" viewBox="0 0 228 40" fill="none">
    <path fill-rule="evenodd" clip-rule="evenodd"
        d="M6.36573 2.85036C6.36573 4.42456 7.64188 5.70071 9.21609 5.70071C10.7903 5.70071 12.0664 4.42456 12.0664 2.85036C12.0664 1.27615 10.7903 0 9.21609 0C7.64188 0 6.36573 1.27615 6.36573 2.85036ZM28.1234 36.1995C28.1234 38.2985 26.4219 40 24.323 40C22.224 40 20.5225 38.2985 20.5225 36.1995C20.5225 34.1006 22.224 32.3991 24.323 32.3991C26.4219 32.3991 28.1234 34.1006 28.1234 36.1995ZM18.6222 31.3539C17.5728 31.3539 16.722 30.5032 16.722 29.4537C16.722 28.4042 17.5728 27.5535 18.6222 27.5535C19.6717 27.5535 20.5225 28.4042 20.5225 29.4537C20.5225 30.5032 19.6717 31.3539 18.6222 31.3539ZM2.37535 19.0974C2.37535 20.1468 3.22611 20.9976 4.27559 20.9976C5.32506 20.9976 6.17582 20.1468 6.17582 19.0974C6.17582 18.0479 5.32506 17.1971 4.27559 17.1971C3.22611 17.1971 2.37535 18.0479 2.37535 19.0974ZM44.4655 20.9976C43.416 20.9976 42.5653 20.1468 42.5653 19.0974C42.5653 18.0479 43.416 17.1971 44.4655 17.1971C45.515 17.1971 46.3657 18.0479 46.3657 19.0974C46.3657 20.1468 45.515 20.9976 44.4655 20.9976ZM8.55107 10.7363C8.55107 13.0976 6.63685 15.0118 4.27553 15.0118C1.91422 15.0118 0 13.0976 0 10.7363C0 8.375 1.91422 6.46078 4.27553 6.46078C6.63685 6.46078 8.55107 8.375 8.55107 10.7363ZM4.27553 39.715C6.63685 39.715 8.55107 37.8008 8.55107 35.4395C8.55107 33.0782 6.63685 31.1639 4.27553 31.1639C1.91422 31.1639 0 33.0782 0 35.4395C0 37.8008 1.91422 39.715 4.27553 39.715ZM21.4726 19.9525C21.4726 22.3138 19.5583 24.2281 17.197 24.2281C14.8357 24.2281 12.9215 22.3138 12.9215 19.9525C12.9215 17.5912 14.8357 15.677 17.197 15.677C19.5583 15.677 21.4726 17.5912 21.4726 19.9525ZM13.7768 12.5416C12.2026 12.5416 10.9264 11.2655 10.9264 9.69124C10.9264 8.11703 12.2026 6.84089 13.7768 6.84089C15.351 6.84089 16.6272 8.11703 16.6272 9.69124C16.6272 11.2655 15.351 12.5416 13.7768 12.5416ZM1.42513 26.6033C1.42513 28.1775 2.70128 29.4537 4.27549 29.4537C5.84969 29.4537 7.12584 28.1775 7.12584 26.6033C7.12584 25.0291 5.84969 23.7529 4.27549 23.7529C2.70128 23.7529 1.42513 25.0291 1.42513 26.6033ZM39.4301 5.70071C41.0043 5.70071 42.2805 4.42456 42.2805 2.85036C42.2805 1.27615 41.0043 0 39.4301 0C37.8559 0 36.5798 1.27615 36.5798 2.85036C36.5798 4.42456 37.8559 5.70071 39.4301 5.70071ZM31.9242 29.4537C31.9242 30.5032 31.0735 31.3539 30.024 31.3539C28.9745 31.3539 28.1237 30.5032 28.1237 29.4537C28.1237 28.4042 28.9745 27.5535 30.024 27.5535C31.0735 27.5535 31.9242 28.4042 31.9242 29.4537ZM44.4657 15.0118C42.1044 15.0118 40.1901 13.0976 40.1901 10.7363C40.1901 8.375 42.1044 6.46078 44.4657 6.46078C46.827 6.46078 48.7412 8.375 48.7412 10.7363C48.7412 13.0976 46.827 15.0118 44.4657 15.0118ZM40.0952 35.4395C40.0952 37.8008 42.0094 39.715 44.3707 39.715C46.732 39.715 48.6462 37.8008 48.6462 35.4395C48.6462 33.0782 46.732 31.1639 44.3707 31.1639C42.0094 31.1639 40.0952 33.0782 40.0952 35.4395ZM31.4489 24.2281C29.0876 24.2281 27.1734 22.3138 27.1734 19.9525C27.1734 17.5912 29.0876 15.677 31.4489 15.677C33.8102 15.677 35.7245 17.5912 35.7245 19.9525C35.7245 22.3138 33.8102 24.2281 31.4489 24.2281ZM37.7198 9.69124C37.7198 11.2655 36.4436 12.5416 34.8694 12.5416C33.2952 12.5416 32.0191 11.2655 32.0191 9.69124C32.0191 8.11703 33.2952 6.84089 34.8694 6.84089C36.4436 6.84089 37.7198 8.11703 37.7198 9.69124ZM44.3707 29.4537C45.945 29.4537 47.2211 28.1775 47.2211 26.6033C47.2211 25.0291 45.945 23.7529 44.3707 23.7529C42.7965 23.7529 41.5204 25.0291 41.5204 26.6033C41.5204 28.1775 42.7965 29.4537 44.3707 29.4537Z"
        fill="#1A1A1B" />
    <path
        d="M213.679 28.6933L216.013 25.8924C216.617 26.4965 217.377 26.9725 218.292 27.3203C219.207 27.6681 220.086 27.8421 220.928 27.8421C221.624 27.8421 222.155 27.7414 222.521 27.54C222.905 27.3203 223.097 27.064 223.097 26.7711C223.097 26.4233 222.914 26.1762 222.548 26.0297C222.182 25.865 221.459 25.7093 220.379 25.5629C218.402 25.2883 216.91 24.8123 215.903 24.135C214.896 23.4393 214.393 22.4599 214.393 21.1968C214.393 20.2265 214.667 19.3753 215.216 18.643C215.766 17.9108 216.516 17.3433 217.468 16.9405C218.42 16.5195 219.5 16.309 220.708 16.309C222.173 16.309 223.464 16.5286 224.58 16.968C225.715 17.4073 226.658 17.9565 227.409 18.6156L225.075 21.4439C224.507 20.913 223.839 20.4828 223.07 20.1533C222.319 19.8238 221.541 19.659 220.736 19.659C220.113 19.659 219.628 19.7689 219.281 19.9886C218.933 20.1899 218.759 20.4279 218.759 20.7025C218.759 21.0137 218.951 21.2334 219.335 21.3616C219.738 21.4897 220.452 21.627 221.477 21.7734C223.363 22.0664 224.837 22.5606 225.898 23.2563C226.96 23.9519 227.491 24.9771 227.491 26.3318C227.491 27.3203 227.207 28.1807 226.64 28.913C226.072 29.6452 225.276 30.2128 224.251 30.6155C223.226 30.9999 222.026 31.1921 220.653 31.1921C219.262 31.1921 217.944 30.9633 216.699 30.5057C215.473 30.048 214.466 29.4439 213.679 28.6933Z"
        fill="#1A1A1B" />
    <path
        d="M210.365 26.1396L212.617 28.913C211.921 29.6269 210.997 30.1853 209.843 30.588C208.708 30.9908 207.482 31.1921 206.164 31.1921C204.461 31.1921 202.978 30.8809 201.715 30.2585C200.452 29.6361 199.463 28.7665 198.75 27.6498C198.054 26.5331 197.706 25.2425 197.706 23.778C197.706 22.2952 198.045 20.9954 198.722 19.8787C199.399 18.7437 200.315 17.865 201.468 17.2426C202.64 16.6202 203.939 16.309 205.367 16.309C206.777 16.309 208.031 16.6202 209.129 17.2426C210.228 17.8467 211.088 18.698 211.711 19.7963C212.333 20.8764 212.644 22.1396 212.644 23.5858V23.7506H208.141V23.2563C208.141 22.5423 208.031 21.9291 207.811 21.4165C207.592 20.9039 207.271 20.5103 206.85 20.2357C206.447 19.9428 205.944 19.7963 205.34 19.7963C204.754 19.7963 204.232 19.9519 203.775 20.2632C203.335 20.5561 202.987 20.9863 202.731 21.5538C202.475 22.1213 202.347 22.8261 202.347 23.6682C202.347 24.5652 202.521 25.3158 202.868 25.9199C203.216 26.5057 203.701 26.945 204.324 27.2379C204.946 27.5308 205.66 27.6773 206.466 27.6773C207.949 27.6773 209.248 27.1647 210.365 26.1396ZM212.644 25.0961H200.479V22.405H212.177L212.644 23.6133V25.0961Z"
        fill="#1A1A1B" />
    <path
        d="M195.482 30.7528H190.841V22.4874C190.841 21.6819 190.676 21.087 190.347 20.7025C190.017 20.2998 189.56 20.0984 188.974 20.0984C188.553 20.0984 188.159 20.2174 187.793 20.4554C187.427 20.6751 187.125 21.032 186.887 21.5263C186.667 22.0206 186.557 22.6613 186.557 23.4485V30.7528H181.917V22.4874C181.917 21.6819 181.752 21.087 181.422 20.7025C181.093 20.2998 180.635 20.0984 180.049 20.0984C179.628 20.0984 179.235 20.2174 178.869 20.4554C178.502 20.6751 178.2 21.032 177.962 21.5263C177.743 22.0206 177.633 22.6613 177.633 23.4485V30.7528H172.992V16.7483H177.605V19.4668L177.413 19.4394C177.669 18.5973 178.026 17.9565 178.484 17.5172C178.96 17.0595 179.473 16.7483 180.022 16.5835C180.571 16.4005 181.102 16.309 181.615 16.309C182.695 16.309 183.61 16.5927 184.361 17.1602C185.111 17.7277 185.615 18.5973 185.871 19.7689H185.541C185.834 18.8353 186.246 18.1213 186.777 17.627C187.326 17.1327 187.921 16.7941 188.562 16.611C189.221 16.4096 189.843 16.309 190.429 16.309C192.003 16.309 193.239 16.8124 194.136 17.8192C195.033 18.8261 195.482 20.2815 195.482 22.1853V30.7528Z"
        fill="#1A1A1B" />
    <path
        d="M170.387 30.7528H166.241V27.897L165.994 27.6498V22.3776C165.994 21.5172 165.71 20.8673 165.143 20.4279C164.593 19.9886 163.834 19.7689 162.863 19.7689C162.131 19.7689 161.436 19.897 160.776 20.1533C160.117 20.4096 159.541 20.7757 159.047 21.2517L156.85 18.5057C157.582 17.8284 158.497 17.2975 159.596 16.9131C160.712 16.5103 161.884 16.309 163.111 16.309C164.557 16.309 165.82 16.5378 166.9 16.9954C167.998 17.4531 168.85 18.1305 169.454 19.0275C170.076 19.9062 170.387 20.9954 170.387 22.2952V30.7528ZM161.847 31.1921C160.767 31.1921 159.806 30.9999 158.964 30.6155C158.14 30.2128 157.5 29.6636 157.042 28.9679C156.584 28.2723 156.355 27.4576 156.355 26.524C156.355 25.572 156.639 24.7574 157.207 24.0801C157.774 23.4027 158.589 22.881 159.651 22.5149C160.712 22.1304 161.966 21.9382 163.413 21.9382H166.378V24.7391H163.687C162.863 24.7391 162.214 24.8856 161.738 25.1785C161.28 25.4714 161.051 25.8558 161.051 26.3318C161.051 26.7894 161.234 27.1556 161.6 27.4302C161.985 27.7048 162.47 27.8421 163.056 27.8421C163.623 27.8421 164.145 27.7139 164.621 27.4576C165.097 27.2013 165.481 26.8535 165.774 26.4141C166.085 25.9748 166.268 25.4805 166.323 24.9313L167.504 25.4256C167.504 26.5789 167.266 27.5949 166.79 28.4736C166.333 29.334 165.673 30.0022 164.813 30.4782C163.971 30.9542 162.982 31.1921 161.847 31.1921Z"
        fill="#1A1A1B" />
    <path
        d="M140.607 30.7528H135.966V11.1191H140.881L151.096 26.4416H149.064V11.1191H153.705V30.7528H148.79L138.575 15.4302H140.607V30.7528Z"
        fill="#1A1A1B" />
    <path
        d="M127.696 30.7528H123.55V27.897L123.302 27.6498V22.3776C123.302 21.5172 123.019 20.8673 122.451 20.4279C121.902 19.9886 121.142 19.7689 120.172 19.7689C119.44 19.7689 118.744 19.897 118.085 20.1533C117.426 20.4096 116.849 20.7757 116.355 21.2517L114.158 18.5057C114.891 17.8284 115.806 17.2975 116.904 16.9131C118.021 16.5103 119.193 16.309 120.419 16.309C121.865 16.309 123.129 16.5378 124.209 16.9954C125.307 17.4531 126.158 18.1305 126.762 19.0275C127.385 19.9062 127.696 20.9954 127.696 22.2952V30.7528ZM119.156 31.1921C118.076 31.1921 117.115 30.9999 116.273 30.6155C115.449 30.2128 114.808 29.6636 114.351 28.9679C113.893 28.2723 113.664 27.4576 113.664 26.524C113.664 25.572 113.948 24.7574 114.515 24.0801C115.083 23.4027 115.897 22.881 116.959 22.5149C118.021 22.1304 119.275 21.9382 120.721 21.9382H123.687V24.7391H120.996C120.172 24.7391 119.522 24.8856 119.046 25.1785C118.589 25.4714 118.36 25.8558 118.36 26.3318C118.36 26.7894 118.543 27.1556 118.909 27.4302C119.293 27.7048 119.778 27.8421 120.364 27.8421C120.932 27.8421 121.453 27.7139 121.929 27.4576C122.405 27.2013 122.79 26.8535 123.083 26.4141C123.394 25.9748 123.577 25.4805 123.632 24.9313L124.813 25.4256C124.813 26.5789 124.575 27.5949 124.099 28.4736C123.641 29.334 122.982 30.0022 122.122 30.4782C121.28 30.9542 120.291 31.1921 119.156 31.1921Z"
        fill="#1A1A1B" />
    <path
        d="M111.431 30.7528H106.79V22.6522C106.79 21.7918 106.598 21.151 106.213 20.73C105.829 20.3089 105.307 20.0984 104.648 20.0984C104.191 20.0984 103.751 20.2265 103.33 20.4828C102.927 20.7208 102.598 21.0961 102.342 21.6087C102.085 22.1213 101.957 22.7986 101.957 23.6407V30.7528H97.3164V16.7483H101.93V21.1693H101.408C101.536 19.8513 101.856 18.8444 102.369 18.1488C102.882 17.4531 103.477 16.9771 104.154 16.7208C104.85 16.4463 105.509 16.309 106.131 16.309C107.76 16.309 109.051 16.8124 110.003 17.8192C110.955 18.8261 111.431 20.2815 111.431 22.1853V30.7528Z"
        fill="#1A1A1B" />
    <path
        d="M94.5024 30.7528H89.8617V16.7483H94.5024V30.7528ZM92.1684 15.1282C91.4361 15.1282 90.8137 14.8902 90.3011 14.4142C89.7885 13.92 89.5322 13.3158 89.5322 12.6019C89.5322 11.8696 89.7885 11.2655 90.3011 10.7895C90.8137 10.2953 91.4361 10.0481 92.1684 10.0481C92.9189 10.0481 93.5414 10.2953 94.0356 10.7895C94.5482 11.2655 94.8045 11.8696 94.8045 12.6019C94.8045 13.3158 94.5482 13.92 94.0356 14.4142C93.5414 14.8902 92.9189 15.1282 92.1684 15.1282Z"
        fill="#1A1A1B" />
    <path
        d="M77.4848 28.3363H74.0249L66.5009 12.6843L69.2195 12.6019V30.7528H64.6611V11.1191H69.9334L76.6061 25.0961H74.9585L81.6313 11.1191H86.7937V30.7528H82.1805V12.6019L85.0088 12.6843L77.4848 28.3363Z"
        fill="#1A1A1B" />
</svg>