<svg width="40" height="40" viewBox="0 0 40 40" fill="none" xmlns="http://www.w3.org/2000/svg">
    <path fill-rule="evenodd" clip-rule="evenodd"
        d="M38.2784 24.0379C38.067 24.2768 37.7896 24.5011 37.4461 24.7013L23.1529 33.0321C21.3746 34.0677 18.501 34.0677 16.7347 33.0321L2.53492 24.7027C2.20084 24.5066 1.93023 24.2874 1.72306 24.0539C0.839714 25.0521 1.10888 26.3068 2.53406 27.1424L16.7352 35.4732C18.5015 36.5088 21.3751 36.5088 23.152 35.4732L37.4452 27.1424C38.8872 26.3016 39.166 25.0385 38.2784 24.0379Z"
        fill="url(#paint0_linear_45747_281311)" />
    <g style="mix-blend-mode:color-burn">
        <path fill-rule="evenodd" clip-rule="evenodd"
            d="M38.2784 24.0379C38.067 24.2768 37.7896 24.5011 37.4461 24.7013L23.1529 33.0321C21.3746 34.0677 18.501 34.0677 16.7347 33.0321L2.53492 24.7027C2.20084 24.5066 1.93023 24.2874 1.72306 24.0539C0.839714 25.0521 1.10888 26.3068 2.53406 27.1424L16.7352 35.4732C18.5015 36.5088 21.3751 36.5088 23.152 35.4732L37.4452 27.1424C38.8872 26.3016 39.166 25.0385 38.2784 24.0379Z"
            fill="url(#paint1_linear_45747_281311)" />
    </g>
    <path fill-rule="evenodd" clip-rule="evenodd"
        d="M38.2786 19.3971C38.0672 19.636 37.7898 19.8603 37.4463 20.0605L23.1532 28.3913C21.3749 29.4269 18.5013 29.4269 16.735 28.3913L2.53518 20.0619C2.20096 19.8657 1.93027 19.6464 1.72308 19.4128C0.83971 20.411 1.10887 21.6657 2.53405 22.5013L16.7352 30.8321C18.5015 31.8677 21.3751 31.8677 23.152 30.8321L37.4452 22.5013C38.887 21.6606 39.166 20.3976 38.2786 19.3971Z"
        fill="url(#paint2_linear_45747_281311)" />
    <g style="mix-blend-mode:color-burn">
        <path fill-rule="evenodd" clip-rule="evenodd"
            d="M38.2785 19.3972C38.0672 19.6361 37.7898 19.8603 37.4463 20.0605L23.1532 28.3913C21.3749 29.4269 18.5013 29.4269 16.735 28.3913L2.53518 20.0619C2.201 19.8657 1.93034 19.6465 1.72316 19.4129C0.839691 20.4111 1.10883 21.6659 2.53405 22.5015L16.7352 30.8323C18.5015 31.8679 21.3751 31.8679 23.152 30.8323L37.4452 22.5015C38.8871 21.6608 39.166 20.3977 38.2785 19.3972Z"
            fill="url(#paint3_linear_45747_281311)" />
    </g>
    <path
        d="M25.4593 19.1818C25.1961 19.3325 24.9244 19.4674 24.6455 19.5859C24.587 19.6179 24.5214 19.6347 24.4548 19.6347C24.3881 19.6347 24.3226 19.6179 24.264 19.5859C22.656 18.8452 21.044 18.1081 19.428 17.3746C18.9091 17.1416 18.3954 16.9032 17.8845 16.6648C16.8252 16.1733 15.766 15.6817 14.6587 15.2266C13.5479 14.7565 12.3361 14.5822 11.1395 14.7202C10.8051 14.7564 10.4749 14.8249 10.1536 14.9249C10.094 14.9477 10.0305 14.9577 9.96686 14.9545C9.90326 14.9512 9.84102 14.9347 9.78404 14.906L9.58927 14.8158C9.33095 14.6889 9.06335 14.5822 8.78883 14.4966C8.05242 14.2866 7.32135 14.3512 6.78773 14.6663C6.71191 14.7105 6.63925 14.76 6.57027 14.8145C6.10335 15.1862 6.1874 15.6844 6.78373 16.0602C6.9865 16.1948 7.19862 16.3107 7.41607 16.4305C7.51479 16.4857 7.54948 16.5329 7.48811 16.6123C6.80507 17.5779 7.24398 18.421 8.42196 19.1239C10.6587 20.4545 12.9066 21.7778 15.1657 23.094C16.3743 23.8024 17.5825 24.5112 18.7903 25.2205C18.8369 25.2564 18.8938 25.2759 18.9524 25.2759C19.011 25.2759 19.068 25.2564 19.1145 25.2205L19.1398 25.2057C19.4587 25.0171 19.7762 24.8286 20.0977 24.6427C20.3841 24.4748 20.6736 24.3088 20.9662 24.1445L20.9809 24.135C21.1343 24.0461 21.1063 24.0004 20.9608 23.9142C18.7072 22.5989 16.4597 21.2818 14.2185 19.9629L13.0045 19.2505C11.4872 18.359 9.96636 17.4688 8.44197 16.58C8.25653 16.4723 8.26587 16.4022 8.39928 16.2918C8.64464 16.089 8.90712 15.9083 9.18371 15.7518C9.34913 15.6548 9.52256 15.5632 9.70399 15.4824C9.76413 15.4457 9.83278 15.4257 9.90303 15.4243C9.97329 15.4228 10.0427 15.4401 10.1042 15.4744C11.5041 16.1082 12.9066 16.7394 14.3119 17.3678H14.3199L15.5085 17.9065C15.9314 18.0964 16.353 18.289 16.7745 18.4802C17.7804 18.9381 18.7863 19.396 19.8122 19.8363C21.2137 20.4507 22.785 20.546 24.2493 20.1057C24.3009 20.0878 24.3556 20.0812 24.4099 20.0863C24.4642 20.0914 24.5168 20.1081 24.5642 20.1353C24.8123 20.2525 25.0658 20.3669 25.3179 20.4814L25.5954 20.6067C25.9254 20.7533 26.2843 20.8218 26.6445 20.8069C27.0048 20.792 27.3569 20.694 27.6739 20.5205C28.3169 20.1461 28.4049 19.6518 27.8953 19.2613C27.6285 19.0526 27.351 18.8465 27.0709 18.6432C27.0015 18.592 26.9761 18.5529 27.0335 18.4883C27.9233 17.4809 27.5178 16.5719 26.4105 15.7235C24.276 14.0949 22.1415 12.4676 20.007 10.8417L19.7802 10.668C19.5601 10.4996 19.34 10.3313 19.1132 10.1656C19.0158 10.0956 19.0318 10.0525 19.1198 9.98652C19.2846 9.86608 19.4556 9.7546 19.6321 9.65254C19.9372 9.47581 20.2546 9.32188 20.582 9.19196C20.6593 9.15034 20.7464 9.13084 20.8338 9.13559C20.9213 9.14034 21.0058 9.16915 21.0782 9.2189C22.712 10.1858 24.3525 11.1505 25.9996 12.113L27.3337 12.8914L28.6677 13.6752C30.3015 14.6394 31.9331 15.6009 33.5624 16.5598C33.6208 16.609 33.6938 16.6369 33.7698 16.6391C33.8458 16.6413 33.9203 16.6176 33.9813 16.5719L33.9973 16.5598C34.2766 16.3901 34.5585 16.2227 34.8431 16.0575C35.166 15.8689 35.4928 15.6831 35.8197 15.4959C35.9531 15.4218 35.9531 15.3801 35.8197 15.3033C34.6795 14.6372 33.5384 13.9687 32.3965 13.2981C30.0752 11.9316 27.7455 10.5692 25.4073 9.21082C24.2186 8.524 22.7778 8.26812 21.1383 8.66271C21.0866 8.67997 21.0317 8.6853 20.9776 8.6783C20.9236 8.67131 20.8718 8.65218 20.8261 8.62231C20.5913 8.4809 20.3578 8.3368 20.103 8.20617C19.7836 8.05053 19.4356 7.96336 19.0811 7.95015C18.7266 7.93694 18.3732 7.99797 18.0432 8.12941C17.9605 8.16712 17.8845 8.20483 17.8151 8.24523C17.2815 8.55497 17.1548 8.96168 17.4683 9.36838C17.6254 9.54988 17.8047 9.71053 18.0019 9.84646C18.0766 9.90303 18.15 9.95959 18.2207 10.0161C18.2914 10.0727 18.3327 10.1145 18.2687 10.1858C17.4909 11.0625 17.7524 11.8988 18.5715 12.7069C18.9712 13.0779 19.3961 13.4203 19.8429 13.7317C20.0057 13.8516 20.1684 13.9701 20.3285 14.0913C22.2638 15.5574 24.2057 17.0217 26.1544 18.4842C26.2678 18.5691 26.2731 18.6189 26.1624 18.7078C25.9381 18.8812 25.7028 19.0395 25.458 19.1818M2.5574 14.1074L16.8506 5.77671C18.6289 4.7411 21.5025 4.7411 23.2688 5.77671L37.4659 14.1074C39.2322 15.1444 39.2242 16.8238 37.4459 17.8607L23.1527 26.1915C21.3744 27.2271 18.5008 27.2271 16.7345 26.1915L2.53473 17.8621C0.768421 16.8251 0.776424 15.1444 2.55473 14.1088"
        fill="url(#paint4_linear_45747_281311)" />
    <g style="mix-blend-mode:color-burn">
        <path
            d="M25.4593 19.1818C25.1961 19.3325 24.9244 19.4674 24.6455 19.5859C24.587 19.6179 24.5214 19.6347 24.4548 19.6347C24.3881 19.6347 24.3226 19.6179 24.264 19.5859C22.656 18.8452 21.044 18.1081 19.428 17.3746C18.9091 17.1416 18.3954 16.9032 17.8845 16.6648C16.8252 16.1733 15.766 15.6817 14.6587 15.2266C13.5479 14.7565 12.3361 14.5822 11.1395 14.7202C10.8051 14.7564 10.4749 14.8249 10.1536 14.9249C10.094 14.9477 10.0305 14.9577 9.96686 14.9545C9.90326 14.9512 9.84102 14.9347 9.78404 14.906L9.58927 14.8158C9.33095 14.6889 9.06335 14.5822 8.78883 14.4966C8.05242 14.2866 7.32135 14.3512 6.78773 14.6663C6.71191 14.7105 6.63925 14.76 6.57027 14.8145C6.10335 15.1862 6.1874 15.6844 6.78373 16.0602C6.9865 16.1948 7.19862 16.3107 7.41607 16.4305C7.51479 16.4857 7.54948 16.5329 7.48811 16.6123C6.80507 17.5779 7.24398 18.421 8.42196 19.1239C10.6587 20.4545 12.9066 21.7778 15.1657 23.094C16.3743 23.8024 17.5825 24.5112 18.7903 25.2205C18.8369 25.2564 18.8938 25.2759 18.9524 25.2759C19.011 25.2759 19.068 25.2564 19.1145 25.2205L19.1398 25.2057C19.4587 25.0171 19.7762 24.8286 20.0977 24.6427C20.3841 24.4748 20.6736 24.3088 20.9662 24.1445L20.9809 24.135C21.1343 24.0461 21.1063 24.0004 20.9608 23.9142C18.7072 22.5989 16.4597 21.2818 14.2185 19.9629L13.0045 19.2505C11.4872 18.359 9.96636 17.4688 8.44197 16.58C8.25653 16.4723 8.26587 16.4022 8.39928 16.2918C8.64464 16.089 8.90712 15.9083 9.18371 15.7518C9.34913 15.6548 9.52256 15.5632 9.70399 15.4824C9.76413 15.4457 9.83278 15.4257 9.90303 15.4243C9.97329 15.4228 10.0427 15.4401 10.1042 15.4744C11.5041 16.1082 12.9066 16.7394 14.3119 17.3678H14.3199L15.5085 17.9065C15.9314 18.0964 16.353 18.289 16.7745 18.4802C17.7804 18.9381 18.7863 19.396 19.8122 19.8363C21.2137 20.4507 22.785 20.546 24.2493 20.1057C24.3009 20.0878 24.3556 20.0812 24.4099 20.0863C24.4642 20.0914 24.5168 20.1081 24.5642 20.1353C24.8123 20.2525 25.0658 20.3669 25.3179 20.4814L25.5954 20.6067C25.9254 20.7533 26.2843 20.8218 26.6445 20.8069C27.0048 20.792 27.3569 20.694 27.6739 20.5205C28.3169 20.1461 28.4049 19.6518 27.8953 19.2613C27.6285 19.0526 27.351 18.8465 27.0709 18.6432C27.0015 18.592 26.9761 18.5529 27.0335 18.4883C27.9233 17.4809 27.5178 16.5719 26.4105 15.7235C24.276 14.0949 22.1415 12.4676 20.007 10.8417L19.7802 10.668C19.5601 10.4996 19.34 10.3313 19.1132 10.1656C19.0158 10.0956 19.0318 10.0525 19.1198 9.98652C19.2846 9.86608 19.4556 9.7546 19.6321 9.65254C19.9372 9.47581 20.2546 9.32188 20.582 9.19196C20.6593 9.15034 20.7464 9.13084 20.8338 9.13559C20.9213 9.14034 21.0058 9.16915 21.0782 9.2189C22.712 10.1858 24.3525 11.1505 25.9996 12.113L27.3337 12.8914L28.6677 13.6752C30.3015 14.6394 31.9331 15.6009 33.5624 16.5598C33.6208 16.609 33.6938 16.6369 33.7698 16.6391C33.8458 16.6413 33.9203 16.6176 33.9813 16.5719L33.9973 16.5598C34.2766 16.3901 34.5585 16.2227 34.8431 16.0575C35.166 15.8689 35.4928 15.6831 35.8197 15.4959C35.9531 15.4218 35.9531 15.3801 35.8197 15.3033C34.6795 14.6372 33.5384 13.9687 32.3965 13.2981C30.0752 11.9316 27.7455 10.5692 25.4073 9.21082C24.2186 8.524 22.7778 8.26812 21.1383 8.66271C21.0866 8.67997 21.0317 8.6853 20.9776 8.6783C20.9236 8.67131 20.8718 8.65218 20.8261 8.62231C20.5913 8.4809 20.3578 8.3368 20.103 8.20617C19.7836 8.05053 19.4356 7.96336 19.0811 7.95015C18.7266 7.93694 18.3732 7.99797 18.0432 8.12941C17.9605 8.16712 17.8845 8.20483 17.8151 8.24523C17.2815 8.55497 17.1548 8.96168 17.4683 9.36838C17.6254 9.54988 17.8047 9.71053 18.0019 9.84646C18.0766 9.90303 18.15 9.95959 18.2207 10.0161C18.2914 10.0727 18.3327 10.1145 18.2687 10.1858C17.4909 11.0625 17.7524 11.8988 18.5715 12.7069C18.9712 13.0779 19.3961 13.4203 19.8429 13.7317C20.0057 13.8516 20.1684 13.9701 20.3285 14.0913C22.2638 15.5574 24.2057 17.0217 26.1544 18.4842C26.2678 18.5691 26.2731 18.6189 26.1624 18.7078C25.9381 18.8812 25.7028 19.0395 25.458 19.1818M2.5574 14.1074L16.8506 5.77671C18.6289 4.7411 21.5025 4.7411 23.2688 5.77671L37.4659 14.1074C39.2322 15.1444 39.2242 16.8238 37.4459 17.8607L23.1527 26.1915C21.3744 27.2271 18.5008 27.2271 16.7345 26.1915L2.53473 17.8621C0.768421 16.8251 0.776424 15.1444 2.55473 14.1088"
            fill="url(#paint5_linear_45747_281311)" />
    </g>
    <path fill-rule="evenodd" clip-rule="evenodd"
        d="M27.4891 17.6652C27.6416 16.9772 27.2081 16.3346 26.4105 15.7235C24.276 14.0949 22.1415 12.4676 20.007 10.8417L19.7802 10.668C19.5601 10.4996 19.34 10.3313 19.1132 10.1656C19.0158 10.0956 19.0318 10.0525 19.1198 9.98652C19.2846 9.86608 19.4556 9.7546 19.6321 9.65254C19.9372 9.47581 20.2546 9.32188 20.582 9.19196C20.6593 9.15034 20.7464 9.13084 20.8338 9.13559C20.9213 9.14034 21.0058 9.16915 21.0782 9.2189C22.712 10.1858 24.3525 11.1505 25.9996 12.113L27.3337 12.8914L28.6677 13.6752C30.3015 14.6394 31.9331 15.6009 33.5624 16.5598C33.6208 16.609 33.6938 16.6369 33.7698 16.6391C33.8458 16.6413 33.9203 16.6176 33.9813 16.5719L33.9973 16.5598C34.2766 16.3901 34.5585 16.2227 34.8431 16.0575C35.0972 15.9091 35.3538 15.7624 35.6109 15.6153C35.6805 15.5755 35.7501 15.5358 35.8197 15.4959C35.9531 15.4218 35.9531 15.3801 35.8197 15.3033C34.6795 14.6372 33.5384 13.9687 32.3965 13.2981C30.0752 11.9316 27.7455 10.5692 25.4073 9.21082C24.2186 8.524 22.7778 8.26812 21.1383 8.66271C21.0866 8.67997 21.0317 8.6853 20.9776 8.6783C20.9236 8.67131 20.8718 8.65218 20.8261 8.62231C20.7986 8.60574 20.7711 8.58913 20.7436 8.57251C20.5363 8.44731 20.328 8.3215 20.103 8.20617C19.7836 8.05053 19.4356 7.96336 19.0811 7.95015C18.7266 7.93694 18.3732 7.99797 18.0432 8.12941C17.9605 8.16712 17.8845 8.20483 17.8151 8.24523C17.2815 8.55497 17.1548 8.96168 17.4683 9.36838C17.6254 9.54988 17.8047 9.71053 18.0019 9.84646C18.0766 9.90303 18.15 9.95959 18.2207 10.0161C18.2914 10.0727 18.3327 10.1145 18.2687 10.1858C17.4909 11.0625 17.7524 11.8988 18.5715 12.7069C18.9712 13.0779 19.3961 13.4203 19.8429 13.7317C19.8794 13.7586 19.916 13.7854 19.9525 13.8123C20.0786 13.9049 20.2043 13.9973 20.3285 14.0913C20.4963 14.2184 20.6642 14.3456 20.8322 14.4727C19.431 14.3338 17.9367 14.5783 16.8507 15.2062L15.8986 15.7573C15.4904 15.5765 15.078 15.3989 14.6587 15.2266C13.5479 14.7565 12.3361 14.5822 11.1395 14.7202C10.8051 14.7564 10.4749 14.8249 10.1536 14.9249C10.094 14.9477 10.0305 14.9577 9.96686 14.9545C9.90326 14.9512 9.84102 14.9347 9.78404 14.906L9.58927 14.8158C9.33095 14.6889 9.06335 14.5822 8.78883 14.4966C8.05242 14.2866 7.32135 14.3512 6.78773 14.6663C6.71191 14.7105 6.63925 14.76 6.57027 14.8145C6.10335 15.1862 6.1874 15.6844 6.78373 16.0602C6.97762 16.1889 7.18006 16.3005 7.38753 16.4148L7.41607 16.4305C7.51479 16.4857 7.54948 16.5329 7.48811 16.6123C6.80507 17.5779 7.24398 18.421 8.42196 19.1239C8.69482 19.2862 8.96784 19.4484 9.24103 19.6105L7.36578 20.6959L2.53473 17.8621C0.768421 16.8251 0.776424 15.1444 2.55473 14.1088L2.5574 14.1074L16.8506 5.77671C18.6289 4.7411 21.5025 4.7411 23.2688 5.77671L37.4659 14.1074C39.2322 15.1444 39.2242 16.8238 37.4459 17.8607L32.6359 20.6642L27.4891 17.6652ZM13.6376 17.066L11.4446 18.3352C10.4453 17.7495 9.44438 17.1645 8.44197 16.58C8.25653 16.4723 8.26587 16.4022 8.39928 16.2918C8.64464 16.089 8.90712 15.9083 9.18371 15.7518C9.34913 15.6548 9.52256 15.5632 9.70399 15.4824C9.76413 15.4457 9.83278 15.4257 9.90303 15.4243C9.97329 15.4228 10.0427 15.4401 10.1042 15.4744C11.2801 16.0068 12.4579 16.5373 13.6376 17.066Z"
        fill="url(#paint6_linear_45747_281311)" />
    <path
        d="M6.78143 14.6743C7.31506 14.3591 8.05146 14.2945 8.78253 14.5046C9.05706 14.5901 9.32466 14.6968 9.58297 14.8238L9.77775 14.914C9.83472 14.9427 9.89696 14.9592 9.96056 14.9624C10.0242 14.9657 10.0877 14.9556 10.1473 14.9328C10.4686 14.8329 10.7988 14.7643 11.1332 14.7281C12.3298 14.5901 13.5416 14.7645 14.6524 15.2345C15.7597 15.6897 16.8189 16.1772 17.8782 16.6728C18.3891 16.9111 18.9028 17.1495 19.4217 17.3825C21.0368 18.116 22.6488 18.8531 24.2577 19.5938C24.3163 19.6259 24.3818 19.6426 24.4485 19.6426C24.5151 19.6426 24.5807 19.6259 24.6392 19.5938C24.9181 19.4753 25.1898 19.3404 25.453 19.1898C25.6978 19.0475 25.9331 18.8891 26.1574 18.7157C26.2681 18.6295 26.2628 18.5811 26.1494 18.4922C24.2026 17.0243 22.2619 15.5568 20.3275 14.0898C20.1675 13.9686 20.0047 13.8501 19.8419 13.7302C19.3938 13.4194 18.9676 13.0774 18.5666 12.7067C17.7475 11.8987 17.486 11.0624 18.2637 10.1857C18.3278 10.1143 18.2878 10.0726 18.2157 10.016C18.1437 9.95945 18.0716 9.90288 17.9969 9.84632C17.7997 9.71039 17.6204 9.54974 17.4633 9.36824C17.1498 8.96423 17.2792 8.56022 17.8102 8.24509C17.8795 8.20469 17.9556 8.16698 18.0383 8.12927C18.3683 7.99783 18.7216 7.9368 19.0761 7.95001C19.4306 7.96322 19.7786 8.05039 20.0981 8.20603C20.3529 8.3407 20.5863 8.47537 20.8211 8.62216C20.8669 8.65203 20.9187 8.67117 20.9727 8.67816C21.0267 8.68515 21.0816 8.67982 21.1333 8.66257C22.7729 8.26933 24.2137 8.5279 25.4023 9.21068C27.7521 10.5655 30.0831 11.9279 32.3955 13.2979C33.5384 13.9677 34.6803 14.637 35.8214 15.3059C35.9548 15.3826 35.9455 15.4244 35.8214 15.4985C35.4945 15.6856 35.1677 15.8715 34.8448 16.06C34.5576 16.2261 34.2748 16.3927 33.9964 16.5597L33.9804 16.5691C33.9196 16.6152 33.8453 16.6393 33.7693 16.6376C33.6933 16.6359 33.6201 16.6084 33.5615 16.5597C31.9339 15.5999 30.3028 14.6415 28.6681 13.6844L27.3341 12.9007L26 12.1223C24.3564 11.1598 22.716 10.1951 21.0786 9.22818C21.0062 9.17843 20.9217 9.14962 20.8342 9.14488C20.7467 9.14013 20.6596 9.15962 20.5823 9.20125C20.255 9.33116 19.9375 9.4851 19.6325 9.66182C19.456 9.76388 19.285 9.87537 19.1202 9.99581C19.0322 10.0618 19.0162 10.1049 19.1135 10.1749C19.339 10.3406 19.5591 10.5089 19.7806 10.6772L20.0074 10.851C22.1419 12.4769 24.2764 14.1042 26.4109 15.7328C27.5182 16.5812 27.9237 17.4835 27.0339 18.4976C26.9765 18.5622 27.0019 18.6013 27.0712 18.6524C27.3514 18.8558 27.6249 19.0565 27.8957 19.2706C28.4053 19.6611 28.3173 20.1554 27.6742 20.5298C27.3573 20.7033 27.0052 20.8013 26.6449 20.8162C26.2846 20.8311 25.9258 20.7626 25.5958 20.6159L25.3183 20.4907C25.0661 20.3762 24.8127 20.2618 24.5645 20.1446C24.5171 20.1174 24.4646 20.1007 24.4103 20.0956C24.356 20.0905 24.3013 20.0971 24.2497 20.115C22.7854 20.5553 21.2141 20.4599 19.8126 19.8456C18.7867 19.4053 17.7808 18.9474 16.7749 18.4895C16.3534 18.2983 15.9318 18.1057 15.5089 17.9158L14.3202 17.3771H14.3122C12.9088 16.7486 11.508 16.1139 10.1099 15.4729C10.0484 15.4386 9.979 15.4213 9.90874 15.4228C9.83849 15.4242 9.76984 15.4442 9.70971 15.4809C9.52827 15.5658 9.35485 15.6574 9.18942 15.7503C8.90663 15.9116 8.63875 16.0982 8.38898 16.3078C8.25558 16.4183 8.24623 16.4883 8.43167 16.596C9.95784 17.4839 11.4787 18.3741 12.9942 19.2665L14.2082 19.9789C16.4512 21.2978 18.6986 22.6149 20.9505 23.9302C21.096 24.0164 21.124 24.0649 20.9706 24.151L20.9559 24.1605C20.6642 24.3248 20.3747 24.4909 20.0874 24.6588C19.7659 24.8446 19.4484 25.0331 19.1295 25.2217L19.1042 25.2365C19.0577 25.2724 19.0007 25.2919 18.9421 25.2919C18.8835 25.2919 18.8266 25.2724 18.78 25.2365C17.574 24.5272 16.3658 23.8184 15.1554 23.11C12.9008 21.7903 10.6529 20.4669 8.41166 19.14C7.22968 18.437 6.79077 17.5939 7.47782 16.6283C7.53385 16.5489 7.5045 16.5017 7.40577 16.4465C7.18832 16.3267 6.97621 16.2041 6.77343 16.0762C6.1771 15.7005 6.09305 15.2022 6.55998 14.8305C6.62999 14.7731 6.704 14.7209 6.78143 14.6743Z"
        fill="white" />
    <defs>
        <linearGradient id="paint0_linear_45747_281311" x1="38.7852" y1="25.5203" x2="1.21547"
            y2="25.5203" gradientUnits="userSpaceOnUse">
            <stop stop-color="#AE9AEE" />
            <stop offset="1" stop-color="#FFC5C2" />
        </linearGradient>
        <linearGradient id="paint1_linear_45747_281311" x1="38.7852" y1="25.5203" x2="1.21547"
            y2="25.5203" gradientUnits="userSpaceOnUse">
            <stop stop-color="#AE9AEE" />
            <stop offset="1" stop-color="#FFC5C2" />
        </linearGradient>
        <linearGradient id="paint2_linear_45747_281311" x1="38.7852" y1="20.8785" x2="1.21547"
            y2="20.8785" gradientUnits="userSpaceOnUse">
            <stop stop-color="#AE9AEE" />
            <stop offset="1" stop-color="#FFC5C2" />
        </linearGradient>
        <linearGradient id="paint3_linear_45747_281311" x1="38.7852" y1="20.8785" x2="1.21547"
            y2="20.8785" gradientUnits="userSpaceOnUse">
            <stop stop-color="#AE9AEE" />
            <stop offset="1" stop-color="#FFC5C2" />
        </linearGradient>
        <linearGradient id="paint4_linear_45747_281311" x1="38.7852" y1="15.9841" x2="1.21548"
            y2="15.9841" gradientUnits="userSpaceOnUse">
            <stop stop-color="#AE9AEE" />
            <stop offset="1" stop-color="#FFC5C2" />
        </linearGradient>
        <linearGradient id="paint5_linear_45747_281311" x1="38.7852" y1="15.9841" x2="1.21548"
            y2="15.9841" gradientUnits="userSpaceOnUse">
            <stop stop-color="#AE9AEE" />
            <stop offset="1" stop-color="#FFC5C2" />
        </linearGradient>
        <linearGradient id="paint6_linear_45747_281311" x1="38.7852" y1="12.848" x2="1.21548"
            y2="12.848" gradientUnits="userSpaceOnUse">
            <stop stop-color="#AE9AEE" />
            <stop offset="1" stop-color="#FFC5C2" />
        </linearGradient>
    </defs>
</svg>
    