<svg width="234" height="234" viewBox="0 0 234 234" fill="none" xmlns="http://www.w3.org/2000/svg">
    <path fill-rule="evenodd" clip-rule="evenodd"
        d="M223.924 140.622C222.687 142.02 221.065 143.331 219.056 144.503L135.441 193.238C125.038 199.296 108.227 199.296 97.8942 193.238L14.8254 144.511C12.8706 143.363 11.2873 142.081 10.0753 140.714C4.90671 146.554 6.48103 153.894 14.8188 158.783L97.8954 207.518C108.228 213.576 125.039 213.576 135.434 207.518L219.049 158.783C227.484 153.865 229.116 146.476 223.924 140.622Z"
        fill="url(#paint0_linear_574_17556)" />
    <g style="mix-blend-mode:color-burn">
        <path fill-rule="evenodd" clip-rule="evenodd"
            d="M223.924 140.622C222.687 142.02 221.065 143.331 219.056 144.503L135.441 193.238C125.038 199.296 108.227 199.296 97.8942 193.238L14.8254 144.511C12.8706 143.363 11.2873 142.081 10.0753 140.714C4.90671 146.554 6.48103 153.894 14.8188 158.783L97.8954 207.518C108.228 213.576 125.039 213.576 135.434 207.518L219.049 158.783C227.484 153.865 229.116 146.476 223.924 140.622Z"
            fill="url(#paint1_linear_574_17556)" />
    </g>
    <path fill-rule="evenodd" clip-rule="evenodd"
        d="M223.925 113.471C222.689 114.87 221.065 116.182 219.055 117.354L135.44 166.089C125.037 172.147 108.227 172.147 97.894 166.089L14.8251 117.362C12.8707 116.215 11.2876 114.932 10.0757 113.567C4.90956 119.406 6.48457 126.745 14.8212 131.633L97.8978 180.368C108.231 186.426 125.041 186.426 135.436 180.368L219.052 131.633C227.487 126.714 229.118 119.325 223.925 113.471Z"
        fill="url(#paint2_linear_574_17556)" />
    <g style="mix-blend-mode:color-burn">
        <path fill-rule="evenodd" clip-rule="evenodd"
            d="M223.925 113.472C222.689 114.87 221.065 116.182 219.055 117.354L135.44 166.089C125.037 172.147 108.227 172.147 97.894 166.089L14.8251 117.362C12.8708 116.215 11.2879 114.933 10.076 113.567C4.9095 119.406 6.48441 126.746 14.8212 131.634L97.8978 180.368C108.231 186.427 125.041 186.427 135.436 180.368L219.052 131.634C227.487 126.715 229.118 119.325 223.925 113.472Z"
            fill="url(#paint3_linear_574_17556)" />
    </g>
    <path
        d="M148.935 112.214C147.396 113.095 145.806 113.884 144.175 114.577C143.832 114.765 143.449 114.863 143.059 114.863C142.669 114.863 142.285 114.765 141.943 114.577C132.536 110.244 123.106 105.932 113.652 101.641C110.616 100.278 107.612 98.8838 104.623 97.4893C98.4261 94.6138 92.2295 91.7382 85.7519 89.0754C79.2536 86.3257 72.1648 85.3057 65.1642 86.1132C63.2082 86.3248 61.2769 86.7258 59.3969 87.3107C59.0485 87.4438 58.6766 87.5027 58.3045 87.4837C57.9325 87.4648 57.5684 87.3683 57.2351 87.2004L56.0956 86.6725C54.5845 85.9299 53.019 85.3056 51.4131 84.8054C47.1051 83.5764 42.8283 83.9545 39.7066 85.798C39.2631 86.0566 38.8381 86.3462 38.4345 86.6646C35.703 88.839 36.1947 91.754 39.6832 93.952C40.8695 94.7398 42.1104 95.4174 43.3824 96.1185C43.96 96.4415 44.1629 96.7173 43.8039 97.1821C39.8081 102.831 42.3757 107.763 49.2669 111.875C62.3521 119.659 75.5023 127.4 88.7176 135.1C95.7882 139.244 102.856 143.391 109.922 147.54C110.194 147.75 110.527 147.864 110.87 147.864C111.213 147.864 111.546 147.75 111.818 147.54L111.967 147.453C113.832 146.35 115.689 145.247 117.57 144.16C119.245 143.178 120.939 142.206 122.651 141.245L122.736 141.19C123.634 140.67 123.47 140.402 122.619 139.898C109.435 132.203 96.2877 124.499 83.1765 116.783L76.0746 112.616C67.1985 107.4 58.3017 102.193 49.384 96.993C48.2991 96.3628 48.3538 95.9531 49.1342 95.3071C50.5696 94.1208 52.1051 93.0637 53.7231 92.1479C54.6909 91.5807 55.7054 91.0449 56.7668 90.5722C57.1186 90.3576 57.5202 90.2402 57.9312 90.2319C58.3422 90.2236 58.7481 90.3247 59.1081 90.525C67.2974 94.233 75.5023 97.9253 83.7228 101.602H83.7696L90.7233 104.753C93.1972 105.864 95.6634 106.99 98.1295 108.109C104.014 110.788 109.898 113.466 115.9 116.043C124.099 119.636 133.291 120.194 141.857 117.618C142.159 117.514 142.479 117.475 142.796 117.505C143.114 117.535 143.422 117.632 143.699 117.792C145.15 118.477 146.633 119.147 148.108 119.816L149.731 120.549C151.662 121.407 153.761 121.808 155.869 121.72C157.977 121.633 160.036 121.06 161.891 120.045C165.652 117.855 166.167 114.963 163.186 112.679C161.625 111.457 160.002 110.252 158.363 109.062C157.957 108.763 157.809 108.535 158.144 108.156C163.35 102.264 160.977 96.9457 154.5 91.9825C142.013 82.455 129.526 72.9355 117.039 63.4238L115.713 62.4075C114.425 61.4228 113.137 60.438 111.81 59.469C111.241 59.0593 111.334 58.8072 111.849 58.4212C112.813 57.7166 113.814 57.0644 114.846 56.4673C116.631 55.4335 118.488 54.533 120.403 53.773C120.855 53.5295 121.365 53.4154 121.876 53.4432C122.388 53.471 122.882 53.6395 123.306 53.9306C132.864 59.5871 142.46 65.2306 152.096 70.8609L159.9 75.4145L167.705 79.9996C177.262 85.6405 186.807 91.2655 196.339 96.8748C196.68 97.1624 197.107 97.3257 197.552 97.3386C197.996 97.3514 198.432 97.2131 198.789 96.9457L198.883 96.8748C200.517 95.8822 202.166 94.9026 203.831 93.9362C205.719 92.8333 207.631 91.7461 209.544 90.651C210.324 90.2177 210.324 89.9735 209.544 89.5244C202.873 85.6273 196.198 81.7171 189.518 77.7937C175.938 69.8 162.309 61.8298 148.631 53.8833C141.677 49.8654 133.249 48.3685 123.657 50.6768C123.355 50.7778 123.034 50.809 122.718 50.7681C122.402 50.7272 122.099 50.6152 121.831 50.4405C120.458 49.6133 119.092 48.7703 117.601 48.0061C115.732 47.0956 113.697 46.5857 111.623 46.5084C109.549 46.4311 107.482 46.7881 105.551 47.5571C105.068 47.7776 104.623 47.9982 104.217 48.2346C101.095 50.0466 100.354 52.4258 102.188 54.805C103.107 55.8668 104.156 56.8066 105.309 57.6018C105.747 57.9327 106.176 58.2636 106.589 58.5945C107.003 58.9254 107.245 59.1696 106.87 59.5871C102.32 64.7159 103.85 69.6082 108.642 74.3352C110.98 76.5055 113.465 78.5088 116.079 80.3305C117.032 81.0317 117.984 81.725 118.92 82.434C130.242 91.0108 141.602 99.5771 153.001 108.133C153.665 108.629 153.696 108.921 153.048 109.441C151.736 110.455 150.36 111.381 148.928 112.214M14.9592 82.5286L98.5744 33.7938C108.977 27.7354 125.788 27.7354 136.121 33.7938L219.174 82.5286C229.507 88.5948 229.46 98.419 219.057 104.485L135.442 153.22C125.039 159.278 108.228 159.278 97.8954 153.22L14.8266 104.493C4.49368 98.4268 4.5405 88.5948 14.9436 82.5364"
        fill="url(#paint4_linear_574_17556)" />
    <g style="mix-blend-mode:color-burn">
        <path
            d="M148.935 112.214C147.396 113.095 145.806 113.884 144.175 114.577C143.832 114.765 143.449 114.863 143.059 114.863C142.669 114.863 142.285 114.765 141.943 114.577C132.536 110.244 123.106 105.932 113.652 101.641C110.616 100.278 107.612 98.8838 104.623 97.4893C98.4261 94.6138 92.2295 91.7382 85.7519 89.0754C79.2536 86.3257 72.1648 85.3057 65.1642 86.1132C63.2082 86.3248 61.2769 86.7258 59.3969 87.3107C59.0485 87.4438 58.6766 87.5027 58.3045 87.4837C57.9325 87.4648 57.5684 87.3683 57.2351 87.2004L56.0956 86.6725C54.5845 85.9299 53.019 85.3056 51.4131 84.8054C47.1051 83.5764 42.8283 83.9545 39.7066 85.798C39.2631 86.0566 38.8381 86.3462 38.4345 86.6646C35.703 88.839 36.1947 91.754 39.6832 93.952C40.8695 94.7398 42.1104 95.4174 43.3824 96.1185C43.96 96.4415 44.1629 96.7173 43.8039 97.1821C39.8081 102.831 42.3757 107.763 49.2669 111.875C62.3521 119.659 75.5023 127.4 88.7176 135.1C95.7882 139.244 102.856 143.391 109.922 147.54C110.194 147.75 110.527 147.864 110.87 147.864C111.213 147.864 111.546 147.75 111.818 147.54L111.967 147.453C113.832 146.35 115.689 145.247 117.57 144.16C119.245 143.178 120.939 142.206 122.651 141.245L122.736 141.19C123.634 140.67 123.47 140.402 122.619 139.898C109.435 132.203 96.2877 124.499 83.1765 116.783L76.0746 112.616C67.1985 107.4 58.3017 102.193 49.384 96.993C48.2991 96.3628 48.3538 95.9531 49.1342 95.3071C50.5696 94.1208 52.1051 93.0637 53.7231 92.1479C54.6909 91.5807 55.7054 91.0449 56.7668 90.5722C57.1186 90.3576 57.5202 90.2402 57.9312 90.2319C58.3422 90.2236 58.7481 90.3247 59.1081 90.525C67.2974 94.233 75.5023 97.9253 83.7228 101.602H83.7696L90.7233 104.753C93.1972 105.864 95.6634 106.99 98.1295 108.109C104.014 110.788 109.898 113.466 115.9 116.043C124.099 119.636 133.291 120.194 141.857 117.618C142.159 117.514 142.479 117.475 142.796 117.505C143.114 117.535 143.422 117.632 143.699 117.792C145.15 118.477 146.633 119.147 148.108 119.816L149.731 120.549C151.662 121.407 153.761 121.808 155.869 121.72C157.977 121.633 160.036 121.06 161.891 120.045C165.652 117.855 166.167 114.963 163.186 112.679C161.625 111.457 160.002 110.252 158.363 109.062C157.957 108.763 157.809 108.535 158.144 108.156C163.35 102.264 160.977 96.9457 154.5 91.9825C142.013 82.455 129.526 72.9355 117.039 63.4238L115.713 62.4075C114.425 61.4228 113.137 60.438 111.81 59.469C111.241 59.0593 111.334 58.8072 111.849 58.4212C112.813 57.7166 113.814 57.0644 114.846 56.4673C116.631 55.4335 118.488 54.533 120.403 53.773C120.855 53.5295 121.365 53.4154 121.876 53.4432C122.388 53.471 122.882 53.6395 123.306 53.9306C132.864 59.5871 142.46 65.2306 152.096 70.8609L159.9 75.4145L167.705 79.9996C177.262 85.6405 186.807 91.2655 196.339 96.8748C196.68 97.1624 197.107 97.3257 197.552 97.3386C197.996 97.3514 198.432 97.2131 198.789 96.9457L198.883 96.8748C200.517 95.8822 202.166 94.9026 203.831 93.9362C205.719 92.8333 207.631 91.7461 209.544 90.651C210.324 90.2177 210.324 89.9735 209.544 89.5244C202.873 85.6273 196.198 81.7171 189.518 77.7937C175.938 69.8 162.309 61.8298 148.631 53.8833C141.677 49.8654 133.249 48.3685 123.657 50.6768C123.355 50.7778 123.034 50.809 122.718 50.7681C122.402 50.7272 122.099 50.6152 121.831 50.4405C120.458 49.6133 119.092 48.7703 117.601 48.0061C115.732 47.0956 113.697 46.5857 111.623 46.5084C109.549 46.4311 107.482 46.7881 105.551 47.5571C105.068 47.7776 104.623 47.9982 104.217 48.2346C101.095 50.0466 100.354 52.4258 102.188 54.805C103.107 55.8668 104.156 56.8066 105.309 57.6018C105.747 57.9327 106.176 58.2636 106.589 58.5945C107.003 58.9254 107.245 59.1696 106.87 59.5871C102.32 64.7159 103.85 69.6082 108.642 74.3352C110.98 76.5055 113.465 78.5088 116.079 80.3305C117.032 81.0317 117.984 81.725 118.92 82.434C130.242 91.0108 141.602 99.5771 153.001 108.133C153.665 108.629 153.696 108.921 153.048 109.441C151.736 110.455 150.36 111.381 148.928 112.214M14.9592 82.5286L98.5744 33.7938C108.977 27.7354 125.788 27.7354 136.121 33.7938L219.174 82.5286C229.507 88.5948 229.46 98.419 219.057 104.485L135.442 153.22C125.039 159.278 108.228 159.278 97.8954 153.22L14.8266 104.493C4.49368 98.4268 4.5405 88.5948 14.9436 82.5364"
            fill="url(#paint5_linear_574_17556)" />
    </g>
    <path fill-rule="evenodd" clip-rule="evenodd"
        d="M160.81 103.343C161.702 99.3174 159.166 95.5579 154.5 91.9825C142.013 82.455 129.526 72.9355 117.039 63.4238L115.713 62.4075C114.425 61.4228 113.137 60.438 111.81 59.469C111.241 59.0593 111.334 58.8072 111.849 58.4212C112.813 57.7166 113.814 57.0644 114.846 56.4673C116.631 55.4335 118.488 54.533 120.403 53.773C120.855 53.5295 121.365 53.4154 121.876 53.4432C122.388 53.471 122.882 53.6395 123.306 53.9306C132.864 59.5871 142.46 65.2306 152.096 70.8609L159.9 75.4145L167.705 79.9996C177.262 85.6405 186.807 91.2655 196.339 96.8748C196.68 97.1624 197.107 97.3257 197.552 97.3386C197.996 97.3514 198.432 97.2131 198.789 96.9457L198.883 96.8748C200.517 95.8822 202.166 94.9026 203.831 93.9362C205.318 93.068 206.819 92.2095 208.323 91.3492C208.73 91.1167 209.137 90.884 209.544 90.651C210.324 90.2177 210.324 89.9735 209.544 89.5244C202.873 85.6273 196.198 81.7171 189.518 77.7937C175.938 69.8 162.309 61.8298 148.631 53.8833C141.677 49.8654 133.249 48.3685 123.657 50.6768C123.355 50.7778 123.034 50.809 122.718 50.7681C122.402 50.7272 122.099 50.6152 121.831 50.4405C121.67 50.3435 121.509 50.2464 121.348 50.1492C120.136 49.4168 118.917 48.6807 117.601 48.0061C115.732 47.0956 113.697 46.5857 111.623 46.5084C109.549 46.4311 107.482 46.7881 105.551 47.5571C105.068 47.7776 104.623 47.9982 104.217 48.2346C101.095 50.0466 100.354 52.4258 102.188 54.805C103.107 55.8668 104.156 56.8066 105.309 57.6018C105.747 57.9327 106.176 58.2636 106.589 58.5945C107.003 58.9254 107.245 59.1696 106.87 59.5871C102.32 64.7159 103.85 69.6082 108.642 74.3352C110.98 76.5055 113.465 78.5088 116.079 80.3305C116.293 80.488 116.507 80.645 116.721 80.8019C117.458 81.3438 118.194 81.8842 118.92 82.434C119.902 83.178 120.884 83.9218 121.867 84.6656C113.669 83.852 104.926 85.2823 98.5721 88.9565L93.0032 92.1796C90.6162 91.1221 88.2042 90.0835 85.7519 89.0754C79.2536 86.3257 72.1648 85.3057 65.1642 86.1132C63.2082 86.3248 61.2769 86.7258 59.3969 87.3107C59.0485 87.4438 58.6766 87.5027 58.3045 87.4837C57.9325 87.4648 57.5684 87.3683 57.2351 87.2004L56.0956 86.6725C54.5845 85.9299 53.019 85.3056 51.4131 84.8054C47.1051 83.5764 42.8283 83.9545 39.7066 85.798C39.2631 86.0566 38.8381 86.3462 38.4345 86.6646C35.703 88.839 36.1947 91.754 39.6832 93.952C40.8175 94.7053 42.0017 95.3578 43.2154 96.0265L43.3824 96.1185C43.96 96.4415 44.1629 96.7173 43.8039 97.1821C39.8081 102.831 42.3757 107.763 49.2669 111.875C50.8626 112.824 52.4592 113.773 54.0569 114.721L43.0866 121.07L14.8266 104.493C4.49368 98.4268 4.5405 88.5948 14.9436 82.5364L14.9592 82.5286L98.5744 33.7938C108.977 27.7354 125.788 27.7354 136.121 33.7938L219.174 82.5286C229.507 88.5948 229.46 98.419 219.057 104.485L190.917 120.887L160.81 103.343ZM79.7763 99.835L66.9477 107.26C61.1021 103.834 55.2475 100.412 49.384 96.993C48.2991 96.3628 48.3538 95.9531 49.1342 95.3071C50.5696 94.1208 52.1051 93.0637 53.7231 92.1479C54.6909 91.5807 55.7054 91.0449 56.7668 90.5722C57.1186 90.3576 57.5202 90.2402 57.9312 90.2319C58.3422 90.2236 58.7481 90.3247 59.1081 90.525C65.9865 93.6394 72.8759 96.7428 79.7763 99.835Z"
        fill="url(#paint6_linear_574_17556)" />
    <path
        d="M39.6714 85.8446C42.7931 84.0011 47.1011 83.6229 51.3778 84.8519C52.9838 85.3522 54.5492 85.9764 56.0604 86.7191L57.1998 87.2469C57.5331 87.4148 57.8972 87.5113 58.2693 87.5303C58.6413 87.5493 59.0132 87.4903 59.3616 87.3572C61.2416 86.7724 63.1729 86.3714 65.129 86.1597C72.1296 85.3523 79.2183 86.3722 85.7167 89.1219C92.1942 91.7848 98.3908 94.6367 104.587 97.5359C107.576 98.9303 110.581 100.325 113.617 101.688C123.065 105.979 132.496 110.291 141.908 114.624C142.25 114.811 142.634 114.91 143.024 114.91C143.413 114.91 143.797 114.811 144.14 114.624C145.771 113.931 147.361 113.142 148.9 112.26C150.332 111.428 151.709 110.501 153.021 109.487C153.669 108.983 153.637 108.699 152.974 108.179C141.585 99.5921 130.232 91.0074 118.916 82.4254C117.98 81.7164 117.027 81.0231 116.075 80.3219C113.454 78.5036 110.961 76.5029 108.614 74.3345C103.823 69.6075 102.293 64.7151 106.843 59.5864C107.217 59.1688 106.983 58.9246 106.562 58.5937C106.14 58.2629 105.719 57.932 105.282 57.6011C104.128 56.8059 103.08 55.8661 102.16 54.8043C100.326 52.4408 101.083 50.0774 104.189 48.2339C104.595 47.9975 105.04 47.7769 105.524 47.5563C107.454 46.7874 109.522 46.4304 111.595 46.5076C113.669 46.5849 115.705 47.0949 117.574 48.0054C119.064 48.7932 120.43 49.581 121.804 50.4398C122.071 50.6145 122.374 50.7264 122.69 50.7673C123.006 50.8083 123.327 50.7771 123.63 50.6761C133.221 48.3757 141.65 49.8883 148.604 53.8826C162.35 61.8081 175.986 69.7782 189.514 77.793C196.199 81.7111 202.88 85.6266 209.555 89.5395C210.336 89.9885 210.281 90.2327 209.555 90.6661C207.643 91.7611 205.731 92.8483 203.842 93.9513C202.162 94.9229 200.507 95.8972 198.879 96.8741L198.785 96.9292C198.43 97.1988 197.995 97.3399 197.55 97.3299C197.106 97.3199 196.678 97.1593 196.335 96.8741C186.813 91.2595 177.271 85.6529 167.709 80.0541L159.904 75.4689L152.1 70.9153C142.485 65.285 132.888 59.6415 123.31 53.985C122.886 53.6939 122.392 53.5254 121.88 53.4976C121.368 53.4698 120.859 53.5839 120.407 53.8274C118.492 54.5874 116.635 55.4879 114.85 56.5218C113.817 57.1188 112.817 57.771 111.853 58.4756C111.338 58.8616 111.244 59.1137 111.814 59.5234C113.133 60.4924 114.421 61.4772 115.716 62.462L117.043 63.4782C129.53 72.9899 142.017 82.5094 154.504 92.0369C160.981 97.0002 163.354 102.279 158.148 108.211C157.813 108.589 157.961 108.818 158.367 109.117C160.006 110.306 161.606 111.48 163.19 112.733C166.171 115.018 165.656 117.909 161.894 120.099C160.04 121.114 157.98 121.687 155.873 121.775C153.765 121.862 151.666 121.462 149.735 120.603L148.112 119.871C146.637 119.201 145.154 118.531 143.703 117.846C143.425 117.687 143.118 117.589 142.8 117.559C142.483 117.529 142.162 117.568 141.861 117.673C133.294 120.249 124.102 119.691 115.904 116.097C109.902 113.521 104.018 110.842 98.1333 108.164C95.6671 107.045 93.201 105.918 90.727 104.807L83.7734 101.656H83.7266C75.5165 97.9797 67.322 94.2664 59.1431 90.5164C58.7831 90.3161 58.3771 90.215 57.9661 90.2233C57.5552 90.2316 57.1536 90.349 56.8018 90.5636C55.7404 91.06 54.7258 91.5957 53.7581 92.1393C52.1038 93.083 50.5367 94.1745 49.0755 95.4009C48.2951 96.0469 48.2405 96.4566 49.3253 97.0868C58.2534 102.281 67.1503 107.489 76.0159 112.709L83.1178 116.877C96.2394 124.592 109.387 132.297 122.561 139.992C123.411 140.496 123.575 140.78 122.678 141.284L122.592 141.339C120.885 142.3 119.192 143.272 117.511 144.254C115.631 145.341 113.773 146.444 111.908 147.547L111.76 147.634C111.487 147.844 111.154 147.958 110.811 147.958C110.469 147.958 110.135 147.844 109.863 147.634C102.808 143.484 95.74 139.338 88.6589 135.194C75.4696 127.473 62.3194 119.731 49.2082 111.969C42.2936 107.856 39.726 102.925 43.7452 97.2759C44.073 96.8111 43.9013 96.5353 43.3238 96.2123C42.0517 95.5112 40.8108 94.7943 39.6246 94.0458C36.136 91.8478 35.6444 88.9328 38.3759 86.7584C38.7854 86.4228 39.2184 86.1174 39.6714 85.8446Z"
        fill="white" />
    <defs>
        <linearGradient id="paint0_linear_574_17556" x1="226.888" y1="149.294" x2="7.10507"
            y2="149.294" gradientUnits="userSpaceOnUse">
            <stop stop-color="#AE9AEE" />
            <stop offset="1" stop-color="#FFC5C2" />
        </linearGradient>
        <linearGradient id="paint1_linear_574_17556" x1="226.888" y1="149.294" x2="7.10507"
            y2="149.294" gradientUnits="userSpaceOnUse">
            <stop stop-color="#AE9AEE" />
            <stop offset="1" stop-color="#FFC5C2" />
        </linearGradient>
        <linearGradient id="paint2_linear_574_17556" x1="226.89" y1="122.139" x2="7.10751"
            y2="122.139" gradientUnits="userSpaceOnUse">
            <stop stop-color="#AE9AEE" />
            <stop offset="1" stop-color="#FFC5C2" />
        </linearGradient>
        <linearGradient id="paint3_linear_574_17556" x1="226.89" y1="122.14" x2="7.10751"
            y2="122.14" gradientUnits="userSpaceOnUse">
            <stop stop-color="#AE9AEE" />
            <stop offset="1" stop-color="#FFC5C2" />
        </linearGradient>
        <linearGradient id="paint4_linear_574_17556" x1="226.892" y1="93.5069" x2="7.10899"
            y2="93.5069" gradientUnits="userSpaceOnUse">
            <stop stop-color="#AE9AEE" />
            <stop offset="1" stop-color="#FFC5C2" />
        </linearGradient>
        <linearGradient id="paint5_linear_574_17556" x1="226.892" y1="93.5069" x2="7.10899"
            y2="93.5069" gradientUnits="userSpaceOnUse">
            <stop stop-color="#AE9AEE" />
            <stop offset="1" stop-color="#FFC5C2" />
        </linearGradient>
        <linearGradient id="paint6_linear_574_17556" x1="226.892" y1="75.16" x2="7.10896" y2="75.16"
            gradientUnits="userSpaceOnUse">
            <stop stop-color="#AE9AEE" />
            <stop offset="1" stop-color="#FFC5C2" />
        </linearGradient>
    </defs>
</svg>
    