<svg width="28" height="28" viewBox="0 0 28 28" fill="none" xmlns="http://www.w3.org/2000/svg">
    <path
        d="M14.7227 5.99431C14.5371 5.80875 14.2808 5.69974 13.9977 5.69971C13.4314 5.69964 12.9783 6.15284 12.9783 6.71908L12.9795 12.9819L6.71667 12.9807C6.15042 12.9807 5.69722 13.4339 5.69727 14.0001C5.69735 14.5663 6.15065 15.0196 6.71687 15.0197L12.9797 15.0209L12.9808 21.2837C12.9809 21.8499 13.4342 22.3032 14.0005 22.3033C14.5667 22.3034 15.0199 21.8502 15.0199 21.2839L15.0187 15.0211L21.2815 15.0223C21.8477 15.0223 22.3009 14.5691 22.3009 14.0029C22.3008 13.7198 22.1918 13.4634 22.0063 13.2779C21.8207 13.0924 21.5644 12.9833 21.2813 12.9833L15.0184 12.9821L15.0173 6.71931C15.0173 6.43619 14.9082 6.17986 14.7227 5.99431Z"
        fill="white" />
</svg>
    