<svg width="35" height="35" viewBox="0 0 35 35" fill="none" xmlns="http://www.w3.org/2000/svg">
    <path fill-rule="evenodd" clip-rule="evenodd" d="M26.2435 16.0419C26.2435 21.6798 21.6731 26.2502 16.0352 26.2502C10.3973 26.2502 5.82682 21.6798 5.82682 16.0419C5.82682 10.404 10.3973 5.83354 16.0352 5.83354C21.6731 5.83354 26.2435 10.404 26.2435 16.0419ZM24.5571 26.0243C22.2641 27.9837 19.2878 29.1669 16.0352 29.1669C8.78642 29.1669 2.91016 23.2906 2.91016 16.0419C2.91016 8.79313 8.78642 2.91687 16.0352 2.91687C23.2839 2.91687 29.1602 8.79313 29.1602 16.0419C29.1602 18.9868 28.1903 21.7051 26.5525 23.895L31.5739 28.9163C32.1434 29.4858 32.1434 30.4092 31.5739 30.9787C31.0044 31.5482 30.081 31.5482 29.5115 30.9787L24.5571 26.0243Z" fill="#9C9EA6"/>
    </svg>
    