<svg width="32" height="32" viewBox="0 0 32 32" fill="none" xmlns="http://www.w3.org/2000/svg">
    <path fill-rule="evenodd" clip-rule="evenodd"
        d="M22.5634 15.1916C22.5634 19.2627 19.2631 22.5629 15.1921 22.5629C11.1211 22.5629 7.82091 19.2627 7.82091 15.1916C7.82091 11.1206 11.1211 7.82042 15.1921 7.82042C19.2631 7.82042 22.5634 11.1206 22.5634 15.1916ZM21.3452 22.4001C19.6895 23.8147 17.5406 24.6689 15.1921 24.6689C9.95797 24.6689 5.71484 20.4258 5.71484 15.1916C5.71484 9.95748 9.95797 5.71436 15.1921 5.71436C20.4263 5.71436 24.6694 9.95748 24.6694 15.1916C24.6694 17.3183 23.969 19.2813 22.7862 20.8626L26.4117 24.4882C26.8229 24.8994 26.8229 25.5661 26.4117 25.9774C26.0005 26.3886 25.3337 26.3886 24.9225 25.9774L21.3452 22.4001Z"
        fill="white" />
</svg>
    