<svg width="28" height="28" viewBox="0 0 28 28" fill="none" xmlns="http://www.w3.org/2000/svg">
    <path
        d="M24.0978 11.5271C23.9278 11.0471 23.4678 10.8071 22.7478 10.8171H17.0878L15.3678 5.45705C15.3221 5.29703 15.2584 5.14271 15.1778 4.99705C15.1472 4.93044 15.1103 4.86683 15.0678 4.80705C15.0264 4.75238 14.9795 4.70212 14.9278 4.65705C14.8446 4.56804 14.7439 4.49707 14.6321 4.44855C14.5203 4.40003 14.3997 4.375 14.2778 4.375C14.1559 4.375 14.0354 4.40003 13.9236 4.44855C13.8117 4.49707 13.7111 4.56804 13.6278 4.65705C13.523 4.75524 13.4351 4.87013 13.3678 4.99705C13.2915 5.14468 13.2279 5.29857 13.1778 5.45705L11.4378 10.8571H5.78783C5.05783 10.8571 4.59783 11.0871 4.42783 11.5671C4.35739 11.7574 4.35739 11.9667 4.42783 12.1571C4.48286 12.3039 4.56419 12.4394 4.66783 12.5571L4.79783 12.6871C4.89512 12.7776 4.99872 12.8612 5.10783 12.9371L9.71783 16.2571L7.91783 21.6271C7.8146 21.8873 7.77351 22.1681 7.79783 22.4471C7.79292 22.4869 7.79292 22.5272 7.79783 22.5671C7.81579 22.6433 7.84265 22.7171 7.87783 22.7871C7.91057 22.8547 7.95082 22.9184 7.99783 22.9771C8.04342 23.0376 8.09728 23.0915 8.15783 23.1371C8.57783 23.4571 9.09783 23.3471 9.68783 22.9171L11.9778 21.2371L14.2578 19.5571L18.8278 22.9171C19.4278 23.3471 19.9378 23.4571 20.3478 23.1371C20.4092 23.089 20.4661 23.0354 20.5178 22.9771C20.5648 22.9184 20.6051 22.8547 20.6378 22.7871C20.6806 22.7206 20.7079 22.6454 20.7178 22.5671C20.7276 22.5276 20.7276 22.4865 20.7178 22.4471C20.7422 22.1681 20.7011 21.8873 20.5978 21.6271L18.7978 16.2571L23.4078 12.9371C23.5192 12.8642 23.6231 12.7805 23.7178 12.6871L23.8478 12.5571C23.9515 12.4394 24.0328 12.3039 24.0878 12.1571C24.1718 11.9561 24.1753 11.7306 24.0978 11.5271ZM21.5678 12.3771L17.4478 15.2071C17.3588 15.2491 17.2795 15.3092 17.2149 15.3835C17.1504 15.4579 17.102 15.5448 17.0728 15.6388C17.0437 15.7329 17.0344 15.832 17.0456 15.9298C17.0568 16.0276 17.0882 16.122 17.1378 16.2071L18.8078 20.927C18.8078 20.927 18.8078 20.9771 18.8078 20.9971C18.8078 21.0171 18.8078 20.9971 18.7378 20.9971L14.7378 17.9371C14.6036 17.8075 14.4244 17.7351 14.2378 17.7351C14.0513 17.7351 13.8721 17.8075 13.7378 17.9371L9.73783 20.9971C9.73783 20.9971 9.73783 20.9971 9.66783 20.9971C9.59783 20.9971 9.66783 20.997 9.66783 20.927L11.3678 16.1971C11.4175 16.112 11.4489 16.0176 11.4601 15.9198C11.4713 15.822 11.462 15.7229 11.4328 15.6288C11.4037 15.5348 11.3553 15.4479 11.2907 15.3735C11.2262 15.2992 11.1469 15.2391 11.0578 15.1971L6.94783 12.3771C6.94783 12.3771 6.89783 12.3771 6.94783 12.3171C6.99783 12.2571 6.94783 12.3171 7.02783 12.3171L12.0278 12.4271C12.1192 12.4443 12.2131 12.4432 12.304 12.4238C12.3949 12.4044 12.481 12.3671 12.5574 12.314C12.6337 12.2609 12.6987 12.1932 12.7486 12.1148C12.7984 12.0363 12.8322 11.9487 12.8478 11.8571L14.2478 7.05705C14.2478 7.00705 14.2478 6.99705 14.2978 6.99705C14.3478 6.99705 14.2978 6.99705 14.2978 7.05705L15.7078 11.8571C15.7223 11.9483 15.7549 12.0357 15.8038 12.1141C15.8526 12.1925 15.9167 12.2603 15.9922 12.3134C16.0678 12.3666 16.1532 12.404 16.2435 12.4235C16.3338 12.4431 16.4271 12.4443 16.5178 12.4271L21.5178 12.3171C21.5778 12.3171 21.5878 12.3171 21.5978 12.3171C21.6078 12.3171 21.6078 12.3771 21.5678 12.3771Z"
        fill="#949499" />
</svg>
    