<svg xmlns="http://www.w3.org/2000/svg" width="18" height="18" viewBox="0 0 18 18" fill="none">
    <circle cx="9" cy="9" r="9" fill="#51CC26" />
    <path
        d="M12.1943 5.86138L7.83655 10.451L5.79449 8.4829C5.72081 8.40869 5.63381 8.35073 5.53859 8.31242C5.44337 8.27412 5.34184 8.25623 5.23997 8.25982C5.1381 8.2634 5.03794 8.28839 4.94536 8.3333C4.85277 8.37822 4.76964 8.44217 4.70082 8.52139C4.632 8.60061 4.5789 8.69352 4.54461 8.79466C4.51032 8.8958 4.49555 9.00313 4.50116 9.11036C4.50677 9.2176 4.53264 9.32257 4.57727 9.41913C4.62189 9.51569 4.68436 9.60188 4.76102 9.67266L7.3447 12.1631C7.4901 12.3035 7.68131 12.3793 7.87848 12.3748C8.07565 12.3703 8.26356 12.2858 8.40304 12.1389L13.2757 7.00275C13.4193 6.8514 13.5 6.64612 13.5 6.43207C13.5 6.21802 13.4193 6.01274 13.2757 5.86138C13.132 5.71003 12.9372 5.625 12.734 5.625C12.5309 5.625 12.3361 5.71003 12.1924 5.86138H12.1943Z"
        fill="white" />
</svg>