<svg width="24" height="24" viewBox="0 0 24 24" fill="none" xmlns="http://www.w3.org/2000/svg">
    <g clip-path="url(#clip0_1218_31671)">
        <path
            d="M12.1712 7.19985C12.5499 7.19985 12.8569 7.50685 12.8569 7.88556V12.1713C12.8569 12.55 12.5499 12.857 12.1712 12.857H8.74263C8.36392 12.857 8.05692 12.55 8.05692 12.1713C8.05692 11.7926 8.36392 11.4856 8.74263 11.4856H11.4855V7.88556C11.4855 7.50685 11.7925 7.19985 12.1712 7.19985Z"
            fill="#57575A" />
        <path fill-rule="evenodd" clip-rule="evenodd"
            d="M19.7137 11.9999C19.7137 16.2604 16.2599 19.7142 11.9994 19.7142C7.73896 19.7142 4.28516 16.2604 4.28516 11.9999C4.28516 7.73945 7.73896 4.28564 11.9994 4.28564C16.2599 4.28564 19.7137 7.73945 19.7137 11.9999ZM18.308 11.9999C18.308 15.4841 15.4836 18.3085 11.9994 18.3085C8.51531 18.3085 5.69087 15.4841 5.69087 11.9999C5.69087 8.5158 8.51531 5.69136 11.9994 5.69136C15.4836 5.69136 18.308 8.5158 18.308 11.9999Z"
            fill="#57575A" />
    </g>
    <defs>
        <clipPath id="clip0_1218_31671">
            <rect width="24" height="24" fill="white" />
        </clipPath>
    </defs>
</svg>
    